<?xml version="1.0" encoding="utf-8"?>
<!-- Generator: Adobe Illustrator 23.0.1, SVG Export Plug-In . SVG Version: 6.00 Build 0)  -->
<svg version="1.1" id="Layer_1" xmlns="http://www.w3.org/2000/svg" xmlns:xlink="http://www.w3.org/1999/xlink" x="0px" y="0px"
	 viewBox="0 0 350 200" style="enable-background:new 0 0 350 200;" xml:space="preserve">
<style type="text/css">
	.st0{fill:none;stroke:#AFBDC4;stroke-width:4;stroke-miterlimit:10;}
	.st1{fill:none;stroke:#CFD8DB;stroke-width:4;stroke-miterlimit:10;}
	.st2{fill:#465B65;}
	.st3{fill:none;stroke:#556F7A;stroke-width:3;stroke-miterlimit:10;}
	.st4{fill:none;stroke:#F05423;stroke-width:3;stroke-miterlimit:10;}
	.st5{fill:none;stroke:#FDC010;stroke-width:3;stroke-miterlimit:10;}
	.st6{fill:#77C8F0;}
	.st7{fill:#3F4499;}
	.st8{fill:#4E4251;}
	.st9{opacity:0.4;}
	.st10{fill:#34C1D6;}
	.st11{fill:#5AC8DA;}
	.st12{fill:#89D3E1;}
	.st13{fill:none;stroke:#AFBDC4;stroke-width:3;stroke-miterlimit:10;}
	.st14{fill:none;stroke:#FFFFFF;stroke-width:3;stroke-miterlimit:10;}
	.st15{fill:none;stroke:#556F7A;stroke-width:4;stroke-miterlimit:10;}
</style>
<g>
	<polygon class="st0" points="193.92,150.79 144.02,150.79 144.02,160.96 188.58,160.96 	"/>
	<path class="st1" d="M159.85,198.31c5.6,0,10.74-3.11,13.35-8.07l15.37-29.28h-44.55v28.98c0,4.62,3.75,8.37,8.37,8.37
		L159.85,198.31L159.85,198.31L159.85,198.31z"/>
	<polygon class="st0" points="193.92,49.21 144.02,49.21 144.02,39.04 188.58,39.04 	"/>
	<path class="st1" d="M159.85,1.69c5.6,0,10.74,3.11,13.35,8.07l15.37,29.28h-44.55V10.06c0-4.62,3.75-8.37,8.37-8.37L159.85,1.69
		L159.85,1.69z"/>
	<polygon class="st2" points="126.3,127.33 126.3,73.26 120.46,71.64 120.46,128.79 	"/>
	<polygon class="st3" points="120.46,71.64 105.05,67.37 105.05,132.64 120.46,128.79 	"/>
	<path class="st4" d="M51.02,69.97l6.14,4.22c-12.27,0-33.4,14.85-44.08,25.83h0l0,0v0h0c10.68,10.98,31.81,25.83,44.08,25.83
		l-6.14,4.22c5.91,4.44,29.31,11.46,49.18,3.96v-34.01v0V66C80.33,58.5,56.92,65.52,51.02,69.97z"/>
	<path class="st5" d="M100.2,78.42c-12.62-4.76-27.48-0.3-31.23,2.52l3.9,2.68c-7.79,0-21.21,9.43-27.99,16.4
		c6.78,6.97,20.2,16.4,27.99,16.4l-3.9,2.68c3.75,2.82,18.61,7.28,31.23,2.52l0-21.59L100.2,78.42z"/>
	<g>
		<path class="st6" d="M200.21,114.71c9.16,8.11,20.41,13.52,30.96,19.84c2.44-6.03,4.59-13,5.49-20.27c0.12-1.08,1-1.95,2.07-2.11
			c3.63-0.52,6.48-1.3,6.48-1.3c3.49-0.76,5.89-3.93,5.76-7.46l-0.27-6.28c-0.02-1.32-0.83-2.49-1.97-3.09l-3.49-1.76l-2.93-3.52
			c-1.76-2.1-4.36-3.4-7.1-3.48c0,0-4.27-0.29-5.65-0.25c-6.57,0.21-11.5,4.86-11.5,4.86c-6.35,5.81-10.98,14.07-13.73,19.78
			C203.35,111.67,201.93,113.37,200.21,114.71z"/>
		<path class="st7" d="M224.83,74.54c-2.43,2.07-6.99,7.31-6.46,16.52c0.13,1.99,2.4,3.11,4.05,2.02l5.83-3.91
			c1.24-0.83,1.8-2.31,1.41-3.74l-2.87-10.38C226.55,74.21,225.48,73.87,224.83,74.54z"/>
		<path class="st8" d="M235.16,95.49c-0.36-1.3,0.39-2.62,1.69-2.98c1.3-0.36,2.62,0.39,2.98,1.69c0.36,1.3-0.39,2.62-1.69,2.98
			C236.84,97.54,235.52,96.79,235.16,95.49z"/>
		<path class="st7" d="M250.31,99.05c0.19-0.05,0.31-0.15,0.44-0.19l-0.06-1.73c-0.02-1.32-0.83-2.49-1.97-3.09l-0.17-0.09
			c-1.24,0.55-1.97,1.94-1.62,3.24C247.33,98.62,248.82,99.46,250.31,99.05z"/>
	</g>
	<path class="st1" d="M305.73,100V67.32c-17.44-11.8-38.01-18.11-59.07-18.11H137.5c-6.26,0-11.33,5.07-11.33,11.33V100h0v39.46
		c0,6.26,5.07,11.33,11.33,11.33h109.17c21.05,0,41.62-6.31,59.06-18.1l0,0L305.73,100L305.73,100z M228.93,131.18
		c-17.25,0-31.24-13.95-31.32-31.18h0c0-0.03,0-0.07,0-0.1c0-17.3,14.02-31.32,31.32-31.32c17.3,0,31.32,14.02,31.32,31.32
		c0,0.03,0,0.07,0,0.1h0C260.17,117.23,246.18,131.18,228.93,131.18z"/>
	<g class="st9">
		<g>
			<path class="st10" d="M228.93,125.03c6.62,0,12.62-2.57,17.12-6.74c-0.5,0.01-0.99,0.04-1.49,0.04
				c-16.04,0-30.5-6.71-40.77-17.46C204.32,114.3,215.37,125.03,228.93,125.03z"/>
			<path class="st11" d="M244.55,118.33c0.5,0,0.99-0.02,1.49-0.04c3.76-3.5,6.47-8.12,7.54-13.34c-0.69,0.05-1.38,0.09-2.08,0.09
				c-15.33,0-27.76-12.43-27.76-27.76c0-0.7,0.04-1.39,0.09-2.08c-11.46,2.36-20.08,12.5-20.08,24.66c0,0.34,0.01,0.68,0.03,1.01
				C214.05,111.62,228.51,118.33,244.55,118.33z"/>
		</g>
		<path class="st12" d="M251.51,105.04c0.7,0,1.39-0.04,2.08-0.09c0.34-1.64,0.52-3.35,0.52-5.09c0-13.9-11.27-25.17-25.17-25.17
			c-1.74,0-3.45,0.18-5.09,0.52c-0.05,0.69-0.09,1.38-0.09,2.08C223.75,92.61,236.18,105.04,251.51,105.04z"/>
	</g>
	<path class="st2" d="M260.25,99.86c0-17.3-14.02-31.32-31.32-31.32s-31.32,14.02-31.32,31.32c0,17.3,14.02,31.32,31.32,31.32
		S260.25,117.16,260.25,99.86z M203.78,100.87c-0.01-0.34-0.03-0.67-0.03-1.01c0-12.16,8.62-22.3,20.08-24.66
		c1.65-0.34,3.35-0.52,5.09-0.52c13.9,0,25.17,11.27,25.17,25.17c0,1.74-0.18,3.45-0.52,5.09c-1.07,5.22-3.78,9.84-7.54,13.34
		c-4.49,4.17-10.5,6.74-17.12,6.74C215.37,125.03,204.32,114.3,203.78,100.87z"/>
	<path class="st13" d="M115.29,100.01L115.29,100.01c0-3.05,2.5-5.55,5.55-5.55h41.92c3.05,0,5.55,2.5,5.55,5.55l0,0
		c0,3.05-2.5,5.55-5.55,5.55h-41.92C117.79,105.57,115.29,103.07,115.29,100.01z"/>
	<path class="st14" d="M117.6,100L117.6,100c0-1.65,1.19-3,2.64-3h21.34c1.45,0,2.64,1.35,2.64,3l0,0c0,1.65-1.19,3-2.64,3h-21.34
		C118.79,103,117.6,101.65,117.6,100z"/>
	<path class="st2" d="M100.2,136.61v-73.2c0-1.33,1.09-2.42,2.42-2.42l0,0c1.33,0,2.42,1.09,2.42,2.42v73.2
		c0,1.33-1.09,2.42-2.42,2.42l0,0C101.29,139.03,100.2,137.94,100.2,136.61z"/>
	<path class="st15" d="M327.35,81.95l-21.61-14.63V100h0l0,32.68l21.61-14.62c6.39-4.32,9.58-11.19,9.58-18.06
		C336.93,93.14,333.73,86.27,327.35,81.95z"/>
</g>
</svg>
