<?xml version="1.0" encoding="utf-8"?>
<!-- Generator: Adobe Illustrator 23.0.1, SVG Export Plug-In . SVG Version: 6.00 Build 0)  -->
<svg version="1.1" id="Layer_1" xmlns="http://www.w3.org/2000/svg" xmlns:xlink="http://www.w3.org/1999/xlink" x="0px" y="0px"
	 viewBox="0 0 1920 1080" style="enable-background:new 0 0 1920 1080;" xml:space="preserve">
<style type="text/css">
	.st0{fill:#DD6033;}
	.st1{fill:#AC3925;}
	.st2{fill:#F9AB5A;}
	.st3{fill:#F47741;}
	.st4{fill:#972E22;}
	.st5{fill:#148CB9;}
	.st6{fill:#8AD6EF;}
	.st7{fill:#20A4DD;}
	.st8{fill:#42B9E0;}
	.st9{opacity:0.7;}
	.st10{opacity:0.8;}
	.st11{fill:#40BDAF;}
	.st12{fill:#12998C;}
	.st13{fill:#66C6BF;}
	.st14{fill:#007B6D;}
	.st15{fill:#00A798;}
</style>
<g id="marte">
	<circle class="st0" cx="561.8" cy="170.2" r="47.2"/>
	<path class="st1" d="M592.3,155.9c1.6,1.9,3.4,2.1,5.7,3.1c4.9,2,7.8,9.8,2.9,13.5c-5,3.7-12.6-1.2-15-5.7c-1-2-1.3-4.3-2.3-6.3
		c-1-1.9-3-4.8-1.9-7c1-2.1,4.6-2.9,6.5-2.1c1.9,0.7,2.6,2.7,3.7,4.2C592.1,155.7,592.2,155.8,592.3,155.9z"/>
	<path class="st1" d="M589.3,190.4c1.5-0.3,3.2-1.3,4.1-3.2c2.2-6.6-8.5-3.1-5.3,2.1L589.3,190.4z"/>
	<path class="st1" d="M568,193.6c1.8,0.8,6,0.8,6.5-1.8c0.4-2.1-4.6-6.3-6.7-5.6C564.8,187,565.7,192.5,568,193.6z"/>
	<path class="st1" d="M550.1,177.3c-2.1,3-5.4,5.1-8.7,6.5c-6,2.4-11.9,1-13.5-5.8c-1-4.4,1.3-9,1.7-13.1c0.8-4.8-0.9-9.1,2-13.3
		c6-8.9,22.5,0.6,24.3,9.1c0.5,2.6-0.7,4.4-1.8,6.7c-1.1,2.2-1.5,4.6-2.3,6.9C551.3,175.3,550.8,176.4,550.1,177.3z"/>
	<path class="st1" d="M562.8,148c0.9-0.2,1.9-0.5,2.9-0.8c2.2-0.7,3.5-0.7,3.3-3.4c-0.2-2.2-1.5-4.4-3.6-5.1
		c-3.9-1.3-7.1,1.7-6.8,5.6C558.8,147.9,560.6,148.4,562.8,148z"/>
	<path class="st1" d="M549.4,134c-2.4,2.2-8.2-0.1-7.5-3.9c0.9-4.4,11.8-3.5,8.5,3.1L549.4,134z"/>
	<path class="st1" d="M543.8,193c0.8-1.9,0.2-5.1-2.7-4.7c-2.6,0.3-1.8,4.7-0.1,5.7C542.3,194.8,543.3,194.1,543.8,193z"/>
	<path class="st2" d="M563.4,202.8c-2.4-0.3-4.5-3.1-2-4.5c2.7-2.1,9.1,3.3,4,5.1L563.4,202.8z"/>
	<path class="st1" d="M578,205.3c1.2-0.1,4.6-1.1,5-2.4c0.4-1.6-1.3-2.7-2.7-2.7C577,200.3,575,203.3,578,205.3z"/>
	<path class="st1" d="M580.2,128.9c-1,0-2,0-2.7,0.1c-3.7,0.3-11.4-2.2-14.1,1.3c-2.7,3.6,2.1,4.8,4.8,5.2c2.5,0.2,5,0,7.5,0.6
		c2.3,0.6,3.8,2.1,5.8,2.9c4.2,1.7,7.5-0.2,7.5-4.8C589.1,130,584,129,580.2,128.9z"/>
	<path class="st2" d="M584.3,176.6c-1.7-0.4-7.3,1-3.3,3.8c2.1,1.5,7.3-0.4,5-3.4L584.3,176.6z"/>
	<path class="st2" d="M592.4,194c-2.9,0.2,0.8,4.4,2.3,1.3c-0.2,0-0.6-0.2-1-0.4L592.4,194z"/>
	<path class="st2" d="M551.2,209c1.3-0.6,4.8-1.3,5.6,0.2c1.5,2.5-4,2.5-5.2,1L551.2,209z"/>
	<path class="st2" d="M521.8,161.4c-5.2,3.4,3.1,5.4,0.6,1.5L521.8,161.4z"/>
	<path class="st2" d="M592.4,143.4c-1,0-2.1,0.2-1.9,1.3c0.2,1.5,5,1.1,2.3-1L592.4,143.4z"/>
	<path class="st2" d="M576.7,148c-0.8-4.8,5.8,1.7,1,1.5L576.7,148z"/>
	<path class="st3" d="M545.2,159.5c0.7,0.1,1.2,0.5,1.7,0.9c0.5,0.4,0.9,0.8,1.2,1.4c-0.4,0.1-0.7,0-1-0.1c-0.3-0.1-0.6-0.3-0.9-0.5
		C545.7,160.8,545.3,160.2,545.2,159.5z"/>
	<path class="st3" d="M545.6,156.2c0.5-0.3,1-0.3,1.5-0.1c0.2,0.1,0.5,0.2,0.7,0.4c0.2,0.2,0.3,0.4,0.4,0.8c-0.6,0-1-0.1-1.3-0.2
		C546.4,156.9,546,156.7,545.6,156.2z"/>
	<path class="st3" d="M586.5,171.5c2,1.4,3.9,2.5,6.1,3.1c2.1,0.7,4.4,0.9,6.8,1.2c-2.3,1-4.9,1-7.3,0.3c-1.2-0.4-2.3-0.9-3.3-1.7
		C587.8,173.6,587,172.6,586.5,171.5z"/>
	<path class="st3" d="M598,180.4c0.8-0.8,1.4-1.2,2.2-1.7c0.7-0.4,1.4-0.8,2.5-1.2c0,0.6-0.2,1.1-0.5,1.5c-0.3,0.4-0.7,0.8-1.1,1
		c-0.5,0.3-0.9,0.4-1.4,0.5C599,180.7,598.5,180.6,598,180.4z"/>
	<path class="st4" d="M581.5,136.4c1.3-0.6,2.4-1.2,2.8-2c0.2-0.4,0.3-0.7,0.1-1.1c-0.2-0.4-0.6-1-1.1-1.5c0.7,0,1.5,0.1,2.1,0.8
		c0.3,0.3,0.5,0.8,0.6,1.3c0,0.5-0.1,1-0.3,1.4C584.7,136.7,582.8,137,581.5,136.4z"/>
	<path class="st3" d="M524.7,178.7c0.3,2.3,1.3,4.1,2.7,5.6c1.4,1.6,3.2,2.8,5.1,4c-2.3,0-4.6-1.1-6.3-2.9c-0.8-0.9-1.5-2-1.8-3.2
		C524.2,181.1,524.2,179.8,524.7,178.7z"/>
	<path class="st3" d="M524.1,189.6c1.7,0.5,3.1,1,4.6,1.5c1.5,0.6,3,1.1,4.4,2.1c-1.7,0.3-3.4,0-5-0.6
		C526.6,191.9,525,191.1,524.1,189.6z"/>
	<path class="st4" d="M531.9,156.5c1,1.2,1.6,2.8,1.9,4.4c0.2,1.6,0,3.3-0.1,4.8c-0.2,1.6-0.4,3.1-0.4,4.6c0.1,1.5-0.2,3.3-0.4,4.8
		c-0.2,1.5-0.1,2.9,1,3.5c1.1,0.6,2.8,0.8,4.2,0.8c1.4-0.1,2.8-0.6,3.8-1.8c1-1.1,1.4-2.7,1.6-4.2c0.2,1.6-0.1,3.2-1,4.7
		c-0.9,1.4-2.6,2.4-4.3,2.6c-0.8,0.1-1.7,0.1-2.5,0c-0.8-0.1-1.7-0.3-2.5-0.7c-0.8-0.4-1.5-1.4-1.7-2.3c-0.2-0.9-0.1-1.8-0.1-2.6
		c0.2-1.6,0.5-3,0.5-4.6c0.1-1.6,0.4-3.2,0.7-4.8C533.1,162.5,533.4,159.3,531.9,156.5z"/>
</g>
<g>
	<g>
		<path class="st5" d="M2825.6,772.3c-5.2-1.8-10.8-2.7-16.6-2.7c-18.2,0-34.1,9.2-43.6,23.3c7.4-1.6,14.7-4.1,21.5-5.8
			C2800.1,783.4,2813.4,778.8,2825.6,772.3z"/>
		<path class="st6" d="M2783.3,820.3c5.6-2.2,11.7-2.8,17.6-3.9c8.1-1.4,15.4-4.2,23.2-6.4c9.5-2.5,18.7-6.4,27.4-11.2
			c1-0.6,2.2-1.3,3.4-2.1c-0.9-1.7-2-3.4-3.2-5c-11.3,7-23.2,12.9-36,17.4C2805.1,812.8,2793.9,816.4,2783.3,820.3z"/>
		<path class="st5" d="M2778.7,864.7c8.6,6.1,19,9.7,30.3,9.7c20,0,37.4-11.3,46.3-27.8c-13.5,6.8-28.9,10.1-43.5,14
			C2801.3,863.4,2790,864.5,2778.7,864.7z"/>
		<path class="st6" d="M2786.4,831.2c8.7-2.5,18.4-5.3,26.3-10.1c-8.4,0-14.5,4.5-22.6,6.4c-10.2,2.7-22.2,2.6-32.8,1.6
			c0.2,1.7,0.6,3.4,1,5.1C2767.6,834.5,2777.1,834.2,2786.4,831.2z"/>
		<path class="st7" d="M2854.9,796.7c-1.2,0.8-2.4,1.5-3.4,2.1c-8.7,4.8-17.9,8.7-27.4,11.2c-7.8,2.2-15.1,5-23.2,6.4
			c-5.9,1.1-12,1.7-17.6,3.9c10.6-3.9,21.8-7.5,32.4-11.2c12.9-4.5,24.8-10.4,36-17.4c-1.2-1.7-2.5-3.2-3.9-4.8
			c-25.8,19.3-59.9,26-91.1,31c-0.1,1.3-0.1,2.7-0.1,4c0,2.5,0.2,4.8,0.6,7.2c10.7,1,22.6,1.1,32.8-1.6c8.1-2,14.3-6.4,22.6-6.4
			c-7.8,4.8-17.6,7.5-26.3,10.1c-9.3,3-18.7,3.3-28.2,3.1c3,12.5,10.4,23.2,20.6,30.4c11.3-0.1,22.6-1.3,33.1-4.1
			c14.6-3.9,30-7.1,43.5-14c1.7-3.2,3.1-6.5,4.1-10c-2.7,1.4-6,3.3-8.9,5.7c-6.7,5.4-19.9,8-19.9,8c5.9-2,12-4.8,16.2-9
			c2.9-2.9,9-7.2,13.8-10c0.5-3,0.8-6.1,0.8-9.3C2861.4,812.8,2859,804.2,2854.9,796.7z"/>
		<path class="st8" d="M2825.6,772.3c-12.2,6.4-25.4,11-38.7,14.7c-6.7,1.7-14.1,4.2-21.5,5.8c-4.9,7.3-8,15.9-8.7,25.1
			c31.3-5,65.4-11.7,91.1-31C2841.9,780.4,2834.3,775.2,2825.6,772.3z"/>
		<path class="st6" d="M2830.5,850.2c0,0,13.1-2.5,19.9-8c3-2.4,6.2-4.3,8.9-5.7c0.5-1.7,0.9-3.5,1.2-5.2c-4.8,2.8-11,7.1-13.8,10
			C2842.5,845.5,2836.4,848.3,2830.5,850.2z"/>
	</g>
	<g class="st9">
		<path class="st5" d="M2841.4,781c-0.9,1-1.9,2-2.6,3c-0.1,0.2-0.4,0.7-0.8,0.9l-0.9,0.6l-1.7,1.1c-2.3,1.4-4.6,2.8-7.1,4
			c-4.8,2.5-9.8,4.5-14.9,6.3c-10.2,3.4-20.9,5.7-31.6,6.2c10.3-3.3,20.5-6.1,30.5-9.6c5-1.7,10-3.5,14.9-5.4c2.5-1,4.9-1.9,7.4-3
			c1.1-0.6,2.8-0.8,3.4-1.6C2839.1,782.4,2840.3,781.7,2841.4,781z"/>
	</g>
	<g class="st9">
		<path class="st5" d="M2798.6,803.8c4-2.6,8-4.4,12.2-6.1c4.2-1.6,8.5-3.1,13.2-3.7c-3.6,3.1-7.7,5.2-11.9,7
			C2807.9,802.6,2803.4,803.9,2798.6,803.8z"/>
	</g>
	<g class="st9">
		<path class="st5" d="M2809.8,791c4.3-3,8.8-5.1,13.4-7.3c4.6-2,9.2-4,14.3-5.3c-3.7,3.8-8.2,6.4-12.8,8.5
			C2820,789,2815.1,790.6,2809.8,791z"/>
	</g>
	<path class="st5" d="M2825,847.2c-0.7-0.5-1.6-1-2.7-1.4c-5.2-1.7-12.3-1.3-17.3,1c-5,2.5-14.3,10.3-4.5,12
		c6.6,1.1,18.3-1.3,23.7-5.2C2827.4,851.5,2827.2,848.9,2825,847.2z"/>
	<g class="st10">
		<path class="st6" d="M2841.4,814.5c-1.4,1.8-3,3.4-4.9,4.7c-1.8,1.3-3.8,2.4-5.8,3.3c-4.1,1.8-8.2,3.2-12.8,3.7
			c3.4-3.1,7.4-5.1,11.3-6.9C2833.2,817.5,2837,815.9,2841.4,814.5z"/>
	</g>
	<g class="st10">
		<path class="st6" d="M2850.1,806.1c-1.5,1.7-3.1,3.1-5,4.3c-1.8,1.2-3.8,2.1-5.8,3c-4,1.6-8.2,2.7-12.7,2.6
			c3.6-2.6,7.5-4.2,11.4-5.8C2841.9,808.5,2845.7,807.1,2850.1,806.1z"/>
	</g>
	<path class="st8" d="M2804.8,867.6c2.4-1.9,4.9-2.9,7.4-3.8c2.6-0.8,5.2-1.4,8.2-1.2c-1.9,2.4-4.5,3.7-7.2,4.6
		C2810.6,867.9,2807.8,868.3,2804.8,867.6z"/>
	<g class="st10">
		<path class="st6" d="M2807.9,836.5c8.4-3.1,16.8-6,24.9-9.2c8.2-3.3,16.1-6.8,24-11.2c-6.2,6.6-14.4,11-22.7,14.4
			C2825.7,833.8,2816.9,836.1,2807.9,836.5z"/>
	</g>
</g>
<g>
	<g>
		<path class="st11" d="M253.8,915.4c14.7-1.8,29.4-1.8,42.3-8.8c7.9-4,15.2-6,20.8-10.4c-1.6-2.3-3.4-4.6-5.3-6.7
			C299.2,906.9,272.7,910.3,253.8,915.4z"/>
		<path class="st12" d="M241.4,891.9c14.6-6.7,26.8-15.2,39.2-23.7c-8.4-3.1-17.4-4.8-26.9-4.8c-30.4,0-56.7,17.6-69.3,43.1
			C204.5,907.5,221.6,900.8,241.4,891.9z"/>
		<path class="st11" d="M246.1,904.8c14.1-4.7,20.6-10.6,30-20.6c4.4-4.4,9.5-8,14.6-11.5c-3.2-1.8-6.6-3.3-10-4.6
			c-12.5,8.4-24.7,17-39.2,23.7c-19.8,9-37,15.6-56.9,14.6c-1.8,3.7-3.4,7.6-4.6,11.6C200.8,921.6,228.6,909.8,246.1,904.8z"/>
		<path class="st11" d="M313.1,973.6c-9.4,7.6-18.8,5.3-29.4,11.2c-5.9,3.5-7.1,5.9-14.1,7c-6.5,1.2-12.9,1.2-19.4,2.3
			c-8.2,1.8-15.3,5.9-22.9,7.6c-8.5,1.3-16.3-0.7-24.1-2.8c6.8,5.9,14.7,10.7,23.4,14c22.5-2.3,44.2-18.2,64.9-25.8
			c8.2-2.9,16.5-2.9,24.1-6.5c2-0.8,4-1.8,6-2.8c3.1-5.6,5.5-11.6,7.1-18C323.4,964.5,318.3,969.4,313.1,973.6z"/>
		<path class="st12" d="M291.4,987.1c-20.7,7.6-42.4,23.5-64.9,25.8c8.5,3.2,17.6,5,27.2,5c29.2,0,54.6-16.2,67.7-40.1
			c-2,1-4,2-6,2.8C307.8,984.2,299.6,984.2,291.4,987.1z"/>
		<path class="st13" d="M227.3,1001.8c7.6-1.8,14.7-5.9,22.9-7.6c6.5-1.2,12.9-1.2,19.4-2.3c7-1.2,8.2-3.5,14.1-7
			c10.6-5.9,20-3.5,29.4-11.2c5.1-4.2,10.3-9,15.5-13.7c1.6-6.1,2.4-12.6,2.4-19.2c0-16.5-5.2-31.9-14.1-44.5
			c-5.6,4.5-12.9,6.4-20.8,10.4c-12.9,7.1-27.6,7.1-42.3,8.8c18.9-5.1,45.5-8.5,57.8-26c-5.9-6.7-13-12.3-20.9-16.7
			c-5.1,3.5-10.2,7.1-14.6,11.5c-9.4,10-15.9,15.9-30,20.6c-17.6,5-45.3,16.8-66.3,13.3c-2.2,7.1-3.4,14.7-3.4,22.6
			c0,23.3,10.3,44.2,26.7,58.3C211.1,1001.1,218.9,1003.1,227.3,1001.8z M186.2,955.4l2.9-2.3c13.5-6.5,26.4-7.6,42.3-7.6
			c15.3,0,24.7-9.4,38.8-13.5c-12.3,12.9-27,20.6-45.3,19.4C212.6,950.1,197.4,949.5,186.2,955.4z"/>
		<path class="st11" d="M270.2,931.9c-14.1,4.1-23.5,13.5-38.8,13.5c-15.9,0-28.8,1.2-42.3,7.6l-2.9,2.3c11.2-5.9,26.4-5.3,38.8-4.1
			C243.2,952.4,257.9,944.8,270.2,931.9z"/>
	</g>
	<path class="st11" d="M226.9,956c5.9-1.3,12-1,17.8-1.6c2.9-0.4,5.7-0.8,8.4-1.8c2.6-0.9,5.4-2.3,7.9-3.6
		c5.3-2.6,10.3-5.6,15.4-8.7c5-3.1,9.9-6.5,14.9-9.8c-4.1,4.4-8.6,8.3-13.4,11.9c-4.8,3.6-9.9,6.8-15.3,9.5
		c-2.8,1.3-5.4,2.6-8.4,3.6c-3,0.9-6.1,1.3-9.2,1.4C238.6,957,232.9,956,226.9,956z"/>
	<path class="st14" d="M287.9,992.9c1.5-1.8,3.8-2.9,6-3.5c2.3-0.6,4.5-0.8,6.7-1.1c2.2-0.2,4.3-0.4,6.3-0.8c1.9-0.5,3.8-1.3,5.5-3
		c-0.4,2.3-2.3,4.4-4.5,5.4c-2.2,1.1-4.6,1.5-6.8,1.7c-2.3,0.2-4.4,0.3-6.6,0.3C292.2,992,290.1,992.1,287.9,992.9z"/>
	<path class="st14" d="M201.6,897.7c10.2-0.1,19.9-2.4,28.9-6.4c9.1-3.9,17.6-9.3,26.7-14c-7.5,6.8-15.9,12.8-25.4,17
		c-4.7,2-9.8,3.5-14.9,4.2C211.8,899.2,206.6,898.9,201.6,897.7z"/>
	<path class="st11" d="M262.4,901c2.9-3,5.7-5.5,8.6-8.2c2.9-2.6,5.8-5.3,9.3-7.5c-1.5,3.9-4.1,7.2-7.1,10
		C270.1,897.9,266.6,900.3,262.4,901z"/>
	<path class="st11" d="M278.4,893.1c0.5-2,1.2-3.2,2.2-4.4c1.1-1.1,2.3-2.2,4.3-2.6c0,2.1-0.7,3.5-1.8,4.8
		C282,892,280.4,893.1,278.4,893.1z"/>
	<path class="st11" d="M206.3,994.2c4.1,0.7,8.2,0.8,12.3,0.9c4.1,0,8.1-0.2,12.1-0.6c4-0.3,7.6-1.5,11.3-3.2
		c3.6-1.7,7.3-3.8,11.1-5.5c-3.2,2.7-6.3,5.5-9.9,7.7c-3.6,2.3-7.9,3.8-12.2,4.2C222.7,998.5,213.9,998,206.3,994.2z"/>
	<path class="st15" d="M226.4,949.7c4.4-0.3,8.3-1.2,12.3-2.5c4-1.3,7.9-2.9,12.2-3.8c-3.6,2.5-7.4,4.5-11.5,5.9
		C235.3,950.6,230.6,951.1,226.4,949.7z"/>
	<path class="st15" d="M307.5,899.5c0.7-1.1,1.2-1.7,2-2.2c0.8-0.5,1.6-0.8,2.8-0.9c0,0.7-0.3,1.2-0.6,1.6c-0.3,0.5-0.7,0.8-1.1,1.1
		c-0.5,0.3-0.9,0.5-1.5,0.5C308.6,899.8,308.1,899.7,307.5,899.5z"/>
</g>
<g>
	<g>
		<path class="st5" d="M100.5,363.2c-2.3-0.8-4.8-1.2-7.3-1.2c-8,0-15.1,4.1-19.3,10.3c3.3-0.7,6.5-1.8,9.5-2.6
			C89.3,368.1,95.1,366,100.5,363.2z"/>
		<path class="st6" d="M81.8,384.5c2.5-1,5.2-1.2,7.8-1.7c3.6-0.6,6.8-1.9,10.3-2.9c4.2-1.1,8.3-2.9,12.1-5c0.5-0.3,1-0.6,1.5-0.9
			c-0.4-0.8-0.9-1.5-1.4-2.2c-5,3.1-10.3,5.7-15.9,7.7C91.5,381.1,86.5,382.7,81.8,384.5z"/>
		<path class="st5" d="M79.8,404.1c3.8,2.7,8.4,4.3,13.4,4.3c8.9,0,16.6-5,20.5-12.3c-6,3-12.8,4.5-19.2,6.2
			C89.8,403.5,84.8,404,79.8,404.1z"/>
		<path class="st6" d="M83.2,389.3c3.8-1.1,8.2-2.4,11.6-4.5c-3.7,0-6.4,2-10,2.9c-4.5,1.2-9.8,1.1-14.5,0.7
			c0.1,0.8,0.3,1.5,0.4,2.3C74.9,390.7,79.1,390.6,83.2,389.3z"/>
		<path class="st7" d="M113.5,374c-0.5,0.3-1.1,0.7-1.5,0.9c-3.8,2.1-7.9,3.8-12.1,5c-3.5,1-6.7,2.2-10.3,2.9
			c-2.6,0.5-5.3,0.7-7.8,1.7c4.7-1.7,9.7-3.3,14.4-5c5.7-2,11-4.6,15.9-7.7c-0.5-0.7-1.1-1.4-1.7-2.1c-11.4,8.5-26.5,11.5-40.3,13.7
			c0,0.6-0.1,1.2-0.1,1.8c0,1.1,0.1,2.1,0.2,3.2c4.7,0.4,10,0.5,14.5-0.7c3.6-0.9,6.3-2.9,10-2.9c-3.5,2.1-7.8,3.3-11.6,4.5
			c-4.1,1.3-8.3,1.5-12.5,1.4c1.3,5.5,4.6,10.3,9.1,13.5c5-0.1,10-0.6,14.7-1.8c6.4-1.7,13.3-3.2,19.2-6.2c0.8-1.4,1.3-2.9,1.8-4.5
			c-1.2,0.6-2.6,1.5-4,2.5c-3,2.4-8.8,3.5-8.8,3.5c2.6-0.9,5.3-2.1,7.2-4c1.3-1.3,4-3.2,6.1-4.4c0.2-1.3,0.4-2.7,0.4-4.1
			C116.4,381.1,115.3,377.3,113.5,374z"/>
		<path class="st8" d="M100.5,363.2c-5.4,2.8-11.3,4.9-17.1,6.5c-3,0.8-6.3,1.9-9.5,2.6c-2.2,3.2-3.5,7-3.8,11.1
			c13.8-2.2,28.9-5.2,40.3-13.7C107.8,366.8,104.4,364.5,100.5,363.2z"/>
		<path class="st6" d="M102.7,397.7c0,0,5.8-1.1,8.8-3.5c1.3-1.1,2.8-1.9,4-2.5c0.2-0.8,0.4-1.5,0.6-2.3c-2.2,1.2-4.8,3.1-6.1,4.4
			C108,395.6,105.3,396.8,102.7,397.7z"/>
	</g>
	<g class="st9">
		<path class="st5" d="M107.6,367c-0.4,0.4-0.8,0.9-1.1,1.3c0,0.1-0.2,0.3-0.3,0.4l-0.4,0.3l-0.8,0.5c-1,0.6-2.1,1.2-3.1,1.8
			c-2.1,1.1-4.3,2-6.6,2.8c-4.5,1.5-9.2,2.5-14,2.8c4.5-1.5,9.1-2.7,13.5-4.2c2.2-0.7,4.4-1.5,6.6-2.4c1.1-0.4,2.2-0.9,3.3-1.3
			c0.5-0.3,1.2-0.4,1.5-0.7C106.5,367.6,107,367.4,107.6,367z"/>
	</g>
	<g class="st9">
		<path class="st5" d="M88.6,377.1c1.8-1.1,3.6-1.9,5.4-2.7c1.9-0.7,3.8-1.4,5.8-1.6c-1.6,1.4-3.4,2.3-5.3,3.1
			C92.7,376.6,90.7,377.2,88.6,377.1z"/>
	</g>
	<g class="st9">
		<path class="st5" d="M93.6,371.5c1.9-1.3,3.9-2.3,5.9-3.2c2-0.9,4.1-1.8,6.3-2.4c-1.6,1.7-3.6,2.8-5.7,3.8
			C98.1,370.6,95.9,371.3,93.6,371.5z"/>
	</g>
	<path class="st5" d="M100.3,396.4c-0.3-0.2-0.7-0.5-1.2-0.6c-2.3-0.8-5.4-0.6-7.6,0.5c-2.2,1.1-6.3,4.6-2,5.3
		c2.9,0.5,8.1-0.6,10.5-2.3C101.3,398.2,101.3,397.1,100.3,396.4z"/>
	<g class="st10">
		<path class="st6" d="M107.6,381.9c-0.6,0.8-1.3,1.5-2.2,2.1c-0.8,0.6-1.7,1-2.6,1.5c-1.8,0.8-3.6,1.4-5.7,1.6
			c1.5-1.4,3.3-2.3,5-3.1C103.9,383.2,105.6,382.5,107.6,381.9z"/>
	</g>
	<g class="st10">
		<path class="st6" d="M111.4,378.1c-0.7,0.7-1.4,1.4-2.2,1.9c-0.8,0.5-1.7,0.9-2.6,1.3c-1.8,0.7-3.6,1.2-5.6,1.1
			c1.6-1.1,3.3-1.9,5-2.6C107.8,379.2,109.4,378.6,111.4,378.1z"/>
	</g>
	<path class="st8" d="M91.3,405.4c1.1-0.9,2.2-1.3,3.3-1.7c1.1-0.3,2.3-0.6,3.7-0.5c-0.9,1.1-2,1.6-3.2,2
		C93.9,405.5,92.6,405.7,91.3,405.4z"/>
	<g class="st10">
		<path class="st6" d="M92.7,391.6c3.7-1.4,7.4-2.6,11-4.1c3.6-1.4,7.1-3,10.6-4.9c-2.8,2.9-6.4,4.9-10.1,6.4
			C100.6,390.4,96.7,391.5,92.7,391.6z"/>
	</g>
</g>
</svg>
