<?xml version="1.0" encoding="utf-8"?>
<!-- Generator: Adobe Illustrator 23.0.1, SVG Export Plug-In . SVG Version: 6.00 Build 0)  -->
<svg version="1.1" id="Layer_1" xmlns="http://www.w3.org/2000/svg" xmlns:xlink="http://www.w3.org/1999/xlink" x="0px" y="0px"
	 viewBox="0 0 1920 1080" style="enable-background:new 0 0 1920 1080;" xml:space="preserve">
<style type="text/css">
	.st0{fill:#082D4B;}
	.st1{fill:#DD6033;}
	.st2{fill:#AC3925;}
	.st3{fill:#F9AB5A;}
	.st4{fill:#F47741;}
	.st5{fill:#972E22;}
	.st6{fill:#148CB9;}
	.st7{fill:#8AD6EF;}
	.st8{fill:#20A4DD;}
	.st9{fill:#42B9E0;}
	.st10{opacity:0.7;}
	.st11{opacity:0.8;}
	.st12{fill:#40BDAF;}
	.st13{fill:#12998C;}
	.st14{fill:#66C6BF;}
	.st15{fill:#007B6D;}
	.st16{fill:#00A798;}
</style>
<g>
	<rect x="-7" y="-5" class="st0" width="1934" height="1093"/>
</g>
<g id="marte">
	<circle class="st1" cx="561.8" cy="170.19" r="47.2"/>
	<path class="st2" d="M592.3,155.95c1.58,1.89,3.37,2.08,5.74,3.07c4.88,2.04,7.85,9.82,2.94,13.46
		c-4.96,3.69-12.64-1.23-15.02-5.73c-1.05-2-1.31-4.25-2.35-6.26c-0.99-1.91-2.96-4.76-1.88-7.01c0.99-2.06,4.57-2.88,6.54-2.14
		c1.91,0.71,2.62,2.71,3.7,4.19C592.08,155.68,592.19,155.82,592.3,155.95z"/>
	<path class="st2" d="M589.29,190.41c1.52-0.3,3.22-1.26,4.11-3.16c2.19-6.57-8.47-3.09-5.26,2.11L589.29,190.41z"/>
	<path class="st2" d="M567.96,193.55c1.77,0.8,5.99,0.76,6.45-1.83c0.38-2.13-4.6-6.25-6.72-5.59
		C564.82,187,565.66,192.51,567.96,193.55z"/>
	<path class="st2" d="M550.11,177.31c-2.09,3.02-5.37,5.1-8.72,6.47c-5.97,2.43-11.91,0.99-13.55-5.82c-1-4.38,1.26-8.96,1.72-13.1
		c0.81-4.82-0.94-9.09,2-13.3c5.97-8.91,22.47,0.57,24.25,9.06c0.51,2.65-0.73,4.43-1.82,6.7c-1.08,2.23-1.53,4.55-2.31,6.87
		C551.29,175.33,550.76,176.36,550.11,177.31z"/>
	<path class="st2" d="M562.84,148c0.91-0.16,1.9-0.46,2.91-0.78c2.23-0.7,3.53-0.67,3.32-3.4c-0.16-2.21-1.45-4.39-3.62-5.13
		c-3.92-1.34-7.09,1.74-6.85,5.61C558.82,147.86,560.56,148.39,562.84,148z"/>
	<path class="st2" d="M549.39,134c-2.41,2.2-8.22-0.15-7.53-3.9c0.88-4.42,11.76-3.53,8.47,3.09L549.39,134z"/>
	<path class="st2" d="M543.81,193.02c0.82-1.89,0.2-5.05-2.7-4.67c-2.57,0.34-1.77,4.67-0.08,5.67
		C542.34,194.8,543.33,194.14,543.81,193.02z"/>
	<path class="st3" d="M563.42,202.83c-2.42-0.32-4.52-3.06-1.97-4.5c2.74-2.11,9.14,3.27,3.97,5.06L563.42,202.83z"/>
	<path class="st2" d="M577.97,205.33c1.22-0.13,4.61-1.05,4.97-2.42c0.41-1.55-1.3-2.69-2.65-2.68
		C576.98,200.26,575,203.33,577.97,205.33z"/>
	<path class="st2" d="M580.16,128.89c-1.02-0.04-1.96,0-2.69,0.05c-3.71,0.28-11.39-2.23-14.11,1.32c-2.72,3.55,2.09,4.8,4.8,5.22
		c2.51,0.21,5.02,0,7.52,0.63c2.3,0.63,3.76,2.09,5.85,2.92c4.18,1.67,7.52-0.21,7.52-4.8C589.06,130.04,584,129.01,580.16,128.89z"
		/>
	<path class="st3" d="M584.25,176.63c-1.67-0.42-7.31,1.04-3.34,3.76c2.09,1.46,7.31-0.42,5.01-3.35L584.25,176.63z"/>
	<path class="st3" d="M592.4,193.96c-2.92,0.21,0.84,4.39,2.3,1.25c-0.21,0-0.63-0.21-1.04-0.42L592.4,193.96z"/>
	<path class="st3" d="M551.24,209.01c1.25-0.63,4.8-1.25,5.64,0.21c1.46,2.51-3.97,2.51-5.22,1.04L551.24,209.01z"/>
	<path class="st3" d="M521.79,161.38c-5.22,3.35,3.13,5.43,0.63,1.46L521.79,161.38z"/>
	<path class="st3" d="M592.4,143.41c-1.04,0-2.09,0.21-1.88,1.25c0.21,1.46,5.01,1.05,2.3-1.04L592.4,143.41z"/>
	<path class="st3" d="M576.73,148.01c-0.84-4.81,5.85,1.67,1.05,1.46L576.73,148.01z"/>
	<path class="st4" d="M545.19,159.5c0.73,0.15,1.23,0.51,1.7,0.87c0.45,0.39,0.86,0.78,1.23,1.43c-0.37,0.05-0.71-0.02-1.03-0.13
		c-0.33-0.1-0.6-0.29-0.86-0.49C545.72,160.75,545.33,160.22,545.19,159.5z"/>
	<path class="st4" d="M545.61,156.16c0.54-0.29,1.02-0.28,1.5-0.13c0.23,0.1,0.47,0.21,0.65,0.42c0.18,0.2,0.34,0.45,0.36,0.76
		c-0.61-0.01-0.95-0.05-1.35-0.19C546.37,156.86,545.96,156.66,545.61,156.16z"/>
	<path class="st4" d="M586.53,171.47c1.98,1.43,3.92,2.48,6.07,3.12c2.14,0.67,4.38,0.92,6.81,1.18c-2.25,0.98-4.87,1.04-7.27,0.33
		c-1.19-0.38-2.34-0.95-3.32-1.74C587.85,173.59,587.04,172.57,586.53,171.47z"/>
	<path class="st4" d="M597.98,180.42c0.81-0.81,1.43-1.23,2.17-1.7c0.74-0.43,1.43-0.82,2.48-1.17c-0.04,0.55-0.23,1.07-0.54,1.48
		c-0.3,0.42-0.7,0.75-1.12,1.04c-0.45,0.25-0.92,0.44-1.43,0.52C599,180.68,598.5,180.62,597.98,180.42z"/>
	<path class="st5" d="M581.52,136.4c1.31-0.62,2.36-1.23,2.81-2.01c0.21-0.37,0.26-0.67,0.1-1.14c-0.19-0.45-0.61-0.97-1.11-1.5
		c0.72-0.03,1.52,0.14,2.12,0.79c0.31,0.31,0.51,0.77,0.58,1.26c0.05,0.49-0.1,0.98-0.31,1.38
		C584.69,136.74,582.83,137.01,581.52,136.4z"/>
	<path class="st4" d="M524.69,178.73c0.34,2.31,1.28,4.11,2.7,5.64c1.4,1.55,3.15,2.75,5.12,3.98c-2.34-0.03-4.64-1.14-6.28-2.91
		c-0.8-0.9-1.46-1.98-1.75-3.18C524.15,181.08,524.24,179.81,524.69,178.73z"/>
	<path class="st4" d="M524.09,189.56c1.67,0.46,3.1,0.98,4.6,1.53c1.47,0.58,2.95,1.14,4.42,2.08c-1.73,0.29-3.41-0.03-4.98-0.6
		C526.58,191.95,525.04,191.05,524.09,189.56z"/>
	<path class="st5" d="M531.9,156.48c0.99,1.24,1.61,2.79,1.86,4.4c0.21,1.62,0.05,3.25-0.11,4.82c-0.15,1.57-0.39,3.1-0.39,4.62
		c0.06,1.54-0.21,3.29-0.37,4.75c-0.19,1.52-0.12,2.9,0.97,3.49c1.06,0.65,2.75,0.82,4.15,0.82c1.44-0.05,2.84-0.65,3.76-1.81
		c0.97-1.12,1.4-2.68,1.58-4.24c0.17,1.56-0.07,3.24-0.95,4.69c-0.9,1.45-2.58,2.36-4.27,2.56c-0.84,0.13-1.71,0.09-2.51-0.01
		c-0.83-0.1-1.69-0.27-2.53-0.74c-0.85-0.44-1.52-1.4-1.7-2.33c-0.21-0.93-0.14-1.79-0.07-2.6c0.21-1.65,0.46-3.03,0.45-4.64
		c0.1-1.63,0.36-3.22,0.68-4.75C533.11,162.48,533.42,159.34,531.9,156.48z"/>
</g>
<g>
	<g>
		<path class="st6" d="M2825.6,772.34c-5.22-1.75-10.79-2.73-16.6-2.73c-18.16,0-34.15,9.24-43.55,23.27
			c7.35-1.64,14.72-4.1,21.46-5.83C2800.14,783.39,2813.38,778.76,2825.6,772.34z"/>
		<path class="st7" d="M2783.27,820.32c5.59-2.23,11.74-2.79,17.61-3.91c8.11-1.4,15.38-4.19,23.2-6.43
			c9.5-2.51,18.72-6.43,27.39-11.18c1.04-0.57,2.22-1.3,3.41-2.06c-0.95-1.73-2.02-3.38-3.16-4.98
			c-11.25,7.02-23.16,12.89-36.03,17.38C2805.08,812.77,2793.9,816.4,2783.27,820.32z"/>
		<path class="st6" d="M2778.69,864.68c8.56,6.09,19,9.71,30.31,9.71c20.04,0,37.44-11.26,46.25-27.79
			c-13.5,6.83-28.9,10.09-43.46,13.97C2801.29,863.43,2789.99,864.54,2778.69,864.68z"/>
		<path class="st7" d="M2786.35,831.22c8.66-2.52,18.45-5.31,26.27-10.06c-8.38,0-14.53,4.47-22.64,6.43
			c-10.23,2.68-22.16,2.6-32.82,1.61c0.24,1.73,0.56,3.43,0.96,5.11C2767.61,834.53,2777.08,834.2,2786.35,831.22z"/>
		<path class="st8" d="M2854.89,796.73c-1.19,0.76-2.36,1.49-3.41,2.06c-8.67,4.75-17.89,8.67-27.39,11.18
			c-7.83,2.24-15.1,5.03-23.2,6.43c-5.87,1.12-12.02,1.68-17.61,3.91c10.62-3.91,21.8-7.55,32.43-11.18
			c12.87-4.49,24.78-10.36,36.03-17.38c-1.18-1.67-2.49-3.24-3.86-4.75c-25.76,19.31-59.85,26.04-91.11,31.01
			c-0.1,1.32-0.15,2.65-0.15,3.99c0,2.45,0.23,4.83,0.55,7.19c10.66,0.99,22.59,1.07,32.82-1.61c8.11-1.95,14.26-6.43,22.64-6.43
			c-7.82,4.75-17.61,7.54-26.28,10.06c-9.27,2.98-18.74,3.31-28.23,3.09c3.01,12.46,10.44,23.17,20.57,30.38
			c11.3-0.14,22.6-1.26,33.1-4.11c14.56-3.88,29.96-7.14,43.46-13.97c1.69-3.17,3.05-6.54,4.06-10.05c-2.7,1.37-5.96,3.28-8.95,5.7
			c-6.71,5.43-19.85,7.99-19.85,7.99c5.87-1.95,12.02-4.75,16.21-8.95c2.86-2.86,8.98-7.18,13.82-9.98c0.54-3.02,0.84-6.13,0.84-9.3
			C2861.39,812.84,2859.02,804.23,2854.89,796.73z"/>
		<path class="st9" d="M2825.6,772.34c-12.22,6.42-25.45,11.05-38.69,14.71c-6.74,1.72-14.11,4.19-21.46,5.83
			c-4.88,7.29-7.99,15.88-8.69,25.13c31.26-4.97,65.36-11.7,91.11-31.01C2841.89,780.36,2834.27,775.23,2825.6,772.34z"/>
		<path class="st7" d="M2830.51,850.23c0,0,13.14-2.55,19.85-7.99c2.98-2.42,6.24-4.32,8.95-5.7c0.5-1.71,0.92-3.46,1.24-5.24
			c-4.84,2.79-10.96,7.12-13.82,9.98C2842.53,845.48,2836.39,848.27,2830.51,850.23z"/>
	</g>
	<g class="st10">
		<path class="st6" d="M2841.41,780.96c-0.89,0.99-1.87,1.99-2.58,3.01c-0.06,0.16-0.43,0.74-0.78,0.91l-0.87,0.56l-1.69,1.09
			c-2.26,1.42-4.65,2.77-7.06,3.98c-4.81,2.47-9.83,4.51-14.93,6.26c-10.24,3.4-20.86,5.68-31.64,6.22
			c10.26-3.3,20.47-6.14,30.5-9.57c5.03-1.66,9.99-3.51,14.94-5.42c2.47-0.98,4.91-1.94,7.39-3c1.12-0.57,2.81-0.84,3.4-1.6
			C2839.13,782.37,2840.26,781.69,2841.41,780.96z"/>
	</g>
	<g class="st10">
		<path class="st6" d="M2798.65,803.82c3.99-2.61,8.04-4.39,12.24-6.1c4.22-1.6,8.48-3.1,13.2-3.69c-3.58,3.13-7.66,5.24-11.91,6.97
			C2807.91,802.63,2803.39,803.89,2798.65,803.82z"/>
	</g>
	<g class="st10">
		<path class="st6" d="M2809.83,790.97c4.33-3.01,8.83-5.14,13.4-7.26c4.6-2.03,9.18-3.99,14.27-5.32
			c-3.69,3.76-8.17,6.39-12.82,8.54C2820,788.97,2815.06,790.59,2809.83,790.97z"/>
	</g>
	<path class="st6" d="M2825.02,847.19c-0.7-0.55-1.61-1.02-2.69-1.37c-5.19-1.71-12.31-1.31-17.26,1.05
		c-5.03,2.52-14.25,10.34-4.47,12.02c6.62,1.14,18.25-1.28,23.66-5.19C2827.37,851.46,2827.24,848.92,2825.02,847.19z"/>
	<g class="st11">
		<path class="st7" d="M2841.41,814.45c-1.41,1.81-3.02,3.36-4.92,4.68c-1.83,1.3-3.8,2.37-5.8,3.33
			c-4.06,1.82-8.21,3.16-12.76,3.73c3.4-3.12,7.38-5.08,11.28-6.93C2833.22,817.46,2837,815.89,2841.41,814.45z"/>
	</g>
	<g class="st11">
		<path class="st7" d="M2850.08,806.06c-1.49,1.66-3.14,3.07-5.02,4.25c-1.83,1.18-3.79,2.12-5.77,2.97
			c-4.02,1.56-8.21,2.65-12.69,2.57c3.65-2.59,7.51-4.24,11.37-5.85C2841.91,808.46,2845.7,807.06,2850.08,806.06z"/>
	</g>
	<path class="st9" d="M2804.8,867.56c2.42-1.93,4.86-2.91,7.42-3.79c2.58-0.78,5.16-1.41,8.23-1.24c-1.95,2.4-4.51,3.71-7.16,4.61
		C2810.63,867.93,2807.76,868.35,2804.8,867.56z"/>
	<g class="st11">
		<path class="st7" d="M2807.87,836.53c8.44-3.11,16.75-5.95,24.91-9.24c8.18-3.26,16.12-6.85,24-11.16
			c-6.24,6.59-14.39,11.04-22.69,14.44C2825.71,833.83,2816.89,836.14,2807.87,836.53z"/>
	</g>
</g>
<g>
	<g>
		<path class="st12" d="M253.77,915.4c14.69-1.76,29.38-1.76,42.31-8.82c7.92-3.96,15.17-5.95,20.82-10.4
			c-1.65-2.34-3.43-4.59-5.33-6.74C299.23,906.93,272.72,910.28,253.77,915.4z"/>
		<path class="st13" d="M241.43,891.89c14.57-6.69,26.77-15.23,39.23-23.67c-8.38-3.11-17.44-4.82-26.91-4.82
			c-30.39,0-56.67,17.56-69.27,43.08C204.47,907.52,221.63,900.85,241.43,891.89z"/>
		<path class="st12" d="M246.14,904.82c14.1-4.7,20.57-10.58,29.97-20.57c4.38-4.38,9.45-7.97,14.59-11.46
			c-3.21-1.75-6.56-3.28-10.03-4.57c-12.47,8.44-24.67,16.97-39.23,23.67c-19.8,8.96-36.97,15.63-56.94,14.58
			c-1.84,3.71-3.38,7.58-4.61,11.6C200.81,921.64,228.59,909.83,246.14,904.82z"/>
		<path class="st12" d="M313.13,973.58c-9.4,7.64-18.81,5.29-29.38,11.17c-5.88,3.53-7.06,5.87-14.1,7.05
			c-6.46,1.18-12.93,1.18-19.4,2.35c-8.23,1.76-15.28,5.88-22.92,7.64c-8.47,1.34-16.26-0.71-24.15-2.81
			c6.84,5.94,14.72,10.69,23.35,13.95c22.48-2.32,44.18-18.19,64.86-25.84c8.23-2.94,16.45-2.94,24.1-6.46
			c2.01-0.84,4.01-1.8,5.99-2.82c3.08-5.6,5.5-11.63,7.12-17.96C323.38,964.52,318.26,969.36,313.13,973.58z"/>
		<path class="st13" d="M291.39,987.09c-20.68,7.64-42.38,23.51-64.86,25.84c8.47,3.19,17.65,4.96,27.23,4.96
			c29.18,0,54.58-16.19,67.71-40.07c-1.97,1.02-3.97,1.97-5.99,2.82C307.84,984.16,299.62,984.16,291.39,987.09z"/>
		<path class="st14" d="M227.33,1001.79c7.63-1.76,14.69-5.88,22.92-7.64c6.46-1.17,12.93-1.17,19.4-2.35
			c7.05-1.18,8.23-3.53,14.1-7.05c10.58-5.88,19.98-3.53,29.38-11.17c5.13-4.22,10.25-9.05,15.46-13.72
			c1.57-6.14,2.41-12.58,2.41-19.21c0-16.55-5.23-31.88-14.1-44.45c-5.65,4.45-12.89,6.44-20.82,10.4
			c-12.93,7.06-27.62,7.06-42.31,8.82c18.94-5.13,45.46-8.47,57.81-25.95c-5.93-6.69-12.98-12.34-20.88-16.66
			c-5.14,3.49-10.21,7.08-14.59,11.46c-9.4,9.99-15.87,15.87-29.97,20.57c-17.55,5.01-45.33,16.81-66.26,13.26
			c-2.18,7.13-3.36,14.71-3.36,22.56c0,23.31,10.33,44.19,26.66,58.35C211.07,1001.08,218.86,1003.13,227.33,1001.79z
			 M186.19,955.36l2.94-2.34c13.52-6.47,26.45-7.64,42.31-7.64c15.28,0,24.68-9.41,38.79-13.52
			c-12.34,12.92-27.04,20.57-45.25,19.39C212.64,950.07,197.36,949.48,186.19,955.36z"/>
		<path class="st12" d="M270.23,931.86c-14.11,4.11-23.5,13.52-38.79,13.52c-15.87,0-28.79,1.17-42.31,7.64l-2.94,2.34
			c11.16-5.87,26.45-5.29,38.79-4.11C243.19,952.43,257.89,944.78,270.23,931.86z"/>
	</g>
	<path class="st12" d="M226.86,955.99c5.88-1.34,12.02-0.98,17.77-1.56c2.88-0.36,5.7-0.81,8.35-1.8c2.57-0.92,5.37-2.28,7.91-3.58
		c5.26-2.61,10.32-5.61,15.37-8.7c5.03-3.1,9.9-6.48,14.86-9.85c-4.06,4.41-8.62,8.34-13.43,11.94c-4.79,3.64-9.94,6.79-15.31,9.55
		c-2.79,1.34-5.36,2.6-8.42,3.6c-3,0.9-6.11,1.35-9.17,1.36C238.64,957.01,232.85,956.01,226.86,955.99z"/>
	<path class="st15" d="M287.87,992.87c1.49-1.81,3.79-2.92,6.02-3.5c2.25-0.63,4.52-0.83,6.69-1.08c2.18-0.19,4.27-0.38,6.25-0.83
		c1.94-0.49,3.83-1.29,5.45-2.99c-0.42,2.3-2.31,4.39-4.55,5.39c-2.22,1.1-4.58,1.45-6.82,1.7c-2.26,0.19-4.44,0.25-6.59,0.33
		C292.17,992.05,290.07,992.14,287.87,992.87z"/>
	<path class="st15" d="M201.64,897.7c10.2-0.11,19.86-2.36,28.92-6.37c9.11-3.9,17.61-9.29,26.66-13.97
		c-7.54,6.8-15.89,12.83-25.36,16.99c-4.74,2.01-9.75,3.55-14.9,4.16C211.83,899.18,206.59,898.9,201.64,897.7z"/>
	<path class="st12" d="M262.38,900.96c2.94-2.95,5.71-5.53,8.59-8.21c2.91-2.61,5.78-5.25,9.31-7.53c-1.52,3.93-4.11,7.16-7.09,9.95
		C270.15,897.87,266.57,900.28,262.38,900.96z"/>
	<path class="st12" d="M278.38,893.09c0.49-2.03,1.21-3.2,2.23-4.42c1.06-1.12,2.26-2.16,4.27-2.63c0.05,2.06-0.74,3.54-1.81,4.82
		C281.96,892.03,280.42,893.14,278.38,893.09z"/>
	<path class="st12" d="M206.25,994.23c4.13,0.69,8.21,0.84,12.28,0.89c4.07-0.01,8.14-0.17,12.15-0.62
		c3.97-0.32,7.65-1.52,11.33-3.21c3.64-1.72,7.29-3.79,11.14-5.46c-3.16,2.74-6.27,5.5-9.92,7.72c-3.58,2.26-7.89,3.83-12.2,4.22
		C222.67,998.52,213.86,997.98,206.25,994.23z"/>
	<path class="st16" d="M226.45,949.67c4.35-0.26,8.31-1.18,12.28-2.53c3.98-1.26,7.92-2.94,12.2-3.82
		c-3.59,2.45-7.37,4.49-11.52,5.9C235.31,950.57,230.61,951.14,226.45,949.67z"/>
	<path class="st16" d="M307.5,899.47c0.66-1.13,1.24-1.66,2-2.18c0.78-0.45,1.56-0.8,2.84-0.86c-0.02,0.66-0.27,1.16-0.56,1.61
		c-0.28,0.47-0.69,0.8-1.11,1.1c-0.45,0.25-0.93,0.47-1.48,0.53C308.62,899.76,308.1,899.74,307.5,899.47z"/>
</g>
<g>
	<g>
		<path class="st6" d="M100.54,363.21c-2.31-0.77-4.78-1.21-7.35-1.21c-8.04,0-15.12,4.09-19.28,10.3c3.26-0.72,6.52-1.82,9.5-2.58
			C89.27,368.1,95.13,366.05,100.54,363.21z"/>
		<path class="st7" d="M81.81,384.45c2.47-0.99,5.2-1.24,7.8-1.73c3.59-0.62,6.81-1.86,10.27-2.85c4.21-1.11,8.29-2.85,12.13-4.95
			c0.46-0.25,0.98-0.58,1.51-0.91c-0.42-0.77-0.9-1.5-1.4-2.2c-4.98,3.11-10.25,5.71-15.95,7.69
			C91.46,381.11,86.51,382.72,81.81,384.45z"/>
		<path class="st6" d="M79.78,404.09c3.79,2.7,8.41,4.3,13.42,4.3c8.87,0,16.57-4.99,20.48-12.3c-5.98,3.02-12.8,4.47-19.24,6.18
			C89.78,403.54,84.78,404.03,79.78,404.09z"/>
		<path class="st7" d="M83.17,389.28c3.84-1.12,8.17-2.35,11.63-4.45c-3.71,0-6.44,1.98-10.02,2.85c-4.53,1.19-9.81,1.15-14.53,0.71
			c0.11,0.77,0.25,1.52,0.43,2.26C74.87,390.74,79.06,390.6,83.17,389.28z"/>
		<path class="st8" d="M113.51,374.01c-0.53,0.34-1.05,0.66-1.51,0.91c-3.84,2.1-7.92,3.84-12.13,4.95
			c-3.47,0.99-6.68,2.23-10.27,2.85c-2.6,0.49-5.32,0.74-7.8,1.73c4.7-1.73,9.65-3.34,14.36-4.95c5.7-1.99,10.97-4.59,15.95-7.69
			c-0.52-0.74-1.1-1.43-1.71-2.1c-11.4,8.55-26.5,11.53-40.34,13.73c-0.04,0.58-0.07,1.17-0.07,1.77c0,1.08,0.1,2.14,0.24,3.18
			c4.72,0.44,10,0.47,14.53-0.71c3.59-0.86,6.31-2.85,10.02-2.85c-3.46,2.1-7.8,3.34-11.63,4.45c-4.11,1.32-8.3,1.47-12.5,1.37
			c1.33,5.52,4.62,10.26,9.11,13.45c5-0.06,10.01-0.56,14.65-1.82c6.44-1.72,13.26-3.16,19.24-6.18c0.75-1.4,1.35-2.9,1.8-4.45
			c-1.2,0.61-2.64,1.45-3.96,2.52c-2.97,2.41-8.79,3.54-8.79,3.54c2.6-0.87,5.32-2.1,7.18-3.96c1.27-1.26,3.97-3.18,6.12-4.42
			c0.24-1.34,0.37-2.71,0.37-4.12C116.39,381.14,115.34,377.33,113.51,374.01z"/>
		<path class="st9" d="M100.54,363.21c-5.41,2.84-11.27,4.89-17.13,6.51c-2.98,0.76-6.25,1.86-9.5,2.58
			c-2.16,3.23-3.54,7.03-3.85,11.13c13.84-2.2,28.94-5.18,40.34-13.73C107.76,366.76,104.38,364.49,100.54,363.21z"/>
		<path class="st7" d="M102.72,397.69c0,0,5.82-1.13,8.79-3.54c1.32-1.07,2.76-1.91,3.96-2.52c0.22-0.76,0.41-1.53,0.55-2.32
			c-2.15,1.24-4.85,3.15-6.12,4.42C108.04,395.59,105.32,396.83,102.72,397.69z"/>
	</g>
	<g class="st10">
		<path class="st6" d="M107.55,367.03c-0.39,0.44-0.83,0.88-1.14,1.33c-0.03,0.07-0.19,0.33-0.35,0.4l-0.38,0.25l-0.75,0.48
			c-1,0.63-2.06,1.23-3.12,1.76c-2.13,1.09-4.35,1.99-6.61,2.77c-4.53,1.5-9.24,2.51-14.01,2.76c4.54-1.46,9.06-2.72,13.5-4.24
			c2.23-0.73,4.42-1.55,6.61-2.4c1.09-0.43,2.17-0.86,3.27-1.33c0.5-0.25,1.24-0.37,1.5-0.71
			C106.53,367.65,107.04,367.35,107.55,367.03z"/>
	</g>
	<g class="st10">
		<path class="st6" d="M88.61,377.15c1.77-1.15,3.56-1.94,5.42-2.7c1.87-0.71,3.75-1.37,5.84-1.63c-1.58,1.39-3.39,2.32-5.27,3.08
			C92.71,376.62,90.71,377.18,88.61,377.15z"/>
	</g>
	<g class="st10">
		<path class="st6" d="M93.56,371.46c1.92-1.33,3.91-2.28,5.93-3.21c2.04-0.9,4.07-1.77,6.32-2.36c-1.63,1.66-3.62,2.83-5.68,3.78
			C98.07,370.57,95.88,371.29,93.56,371.46z"/>
	</g>
	<path class="st6" d="M100.29,396.35c-0.31-0.24-0.71-0.45-1.19-0.61c-2.3-0.76-5.45-0.58-7.64,0.47c-2.23,1.12-6.31,4.58-1.98,5.32
		c2.93,0.5,8.08-0.57,10.48-2.3C101.33,398.24,101.27,397.12,100.29,396.35z"/>
	<g class="st11">
		<path class="st7" d="M107.55,381.85c-0.62,0.8-1.33,1.49-2.18,2.07c-0.81,0.58-1.68,1.05-2.57,1.48c-1.8,0.8-3.63,1.4-5.65,1.65
			c1.51-1.38,3.27-2.25,4.99-3.07C103.92,383.18,105.59,382.49,107.55,381.85z"/>
	</g>
	<g class="st11">
		<path class="st7" d="M111.38,378.14c-0.66,0.73-1.39,1.36-2.22,1.88c-0.81,0.52-1.68,0.94-2.56,1.31
			c-1.78,0.69-3.64,1.17-5.62,1.14c1.61-1.15,3.32-1.88,5.03-2.59C107.77,379.2,109.44,378.58,111.38,378.14z"/>
	</g>
	<path class="st9" d="M91.34,405.37c1.07-0.85,2.15-1.29,3.28-1.68c1.14-0.34,2.29-0.62,3.65-0.55c-0.86,1.06-1.99,1.64-3.17,2.04
		C93.92,405.53,92.64,405.72,91.34,405.37z"/>
	<g class="st11">
		<path class="st7" d="M92.7,391.63c3.74-1.38,7.42-2.63,11.03-4.09c3.62-1.44,7.14-3.03,10.63-4.94
			c-2.76,2.92-6.37,4.89-10.05,6.39C100.59,390.43,96.69,391.46,92.7,391.63z"/>
	</g>
</g>
</svg>
