<?xml version="1.0" encoding="utf-8"?>
<!-- Generator: Adobe Illustrator 23.0.1, SVG Export Plug-In . SVG Version: 6.00 Build 0)  -->
<svg version="1.1" id="Layer_1" xmlns="http://www.w3.org/2000/svg" xmlns:xlink="http://www.w3.org/1999/xlink" x="0px" y="0px"
	 viewBox="0 0 80 80" style="enable-background:new 0 0 80 80;" xml:space="preserve">
<style type="text/css">
	.st0{fill:#FFFFFF;}
	.st1{fill:#082D4B;}
</style>
<path class="st0" d="M71.71,56.51V54v-8V14.72c0-1.17-0.88-2.05-2.05-2.05H10.48c-1.17,0-2.19,0.88-2.19,2.05v41.64
	c0,1.17,1.02,2.19,2.19,2.19h23.01v6.71h-4.38v2.05h21.92v-2.05h-4.52v-6.71h0.78l8,0l11,0l2.9,0c0,0,0.17,0,0.17,0
	C70.83,58.55,71.72,57.44,71.71,56.51L71.71,56.51z M10.34,14.72c0-0.04,0.1,0,0.14,0h59.18V46v3.93h-9.37H10.34V14.72z
	 M55.29,56.51h-8H10.48c-0.04,0-0.14-0.1-0.14-0.14v-4.38h49.94h9.37V54v2.51h-3.37H55.29z"/>
<rect x="32.26" y="58.56" class="st0" width="8.9" height="6.71"/>
<g>
	<path class="st1" d="M40,21.09c-7.44,0-14.19,4.07-19.17,10.68c-0.41,0.54-0.41,1.3,0,1.84C25.81,40.23,32.56,44.31,40,44.31
		s14.19-4.07,19.17-10.68c0.41-0.54,0.41-1.3,0-1.84C54.19,25.16,47.44,21.09,40,21.09z M40.53,40.87
		c-4.94,0.31-9.02-3.76-8.71-8.71c0.25-4.08,3.56-7.39,7.64-7.64c4.94-0.31,9.02,3.76,8.71,8.71C47.91,37.3,44.61,40.61,40.53,40.87
		z M40.29,37.09c-2.66,0.17-4.86-2.02-4.68-4.68c0.14-2.2,1.92-3.98,4.12-4.12c2.66-0.17,4.86,2.02,4.68,4.68
		C44.26,35.18,42.48,36.96,40.29,37.09z"/>
</g>
</svg>
