<?xml version="1.0" encoding="utf-8"?>
<!-- Generator: Adobe Illustrator 17.0.0, SVG Export Plug-In . SVG Version: 6.00 Build 0)  -->
<!DOCTYPE svg PUBLIC "-//W3C//DTD SVG 1.1//EN" "http://www.w3.org/Graphics/SVG/1.1/DTD/svg11.dtd">
<svg version="1.1" id="Layer_1" xmlns="http://www.w3.org/2000/svg" xmlns:xlink="http://www.w3.org/1999/xlink" x="0px" y="0px"
	 width="536px" height="169px" viewBox="0 0 536 169" enable-background="new 0 0 536 169" xml:space="preserve">
<g>
	<path fill="#414042" d="M23.808,112.567V70.633c0-21.716,11.831-33.547,31.45-33.547c20.069,0,31.45,11.831,32.349,33.247H69.186
		c-0.599-10.783-5.092-15.425-14.078-15.425c-7.638,0-12.28,4.942-12.28,15.725v41.933c0,10.484,4.642,15.425,12.43,15.425
		c9.135,0,13.628-4.642,14.377-15.126h18.421c-0.749,21.267-12.58,32.948-32.798,32.948
		C35.789,145.814,23.808,134.133,23.808,112.567z"/>
	<path fill="#414042" d="M150.958,92.648v51.369H136.73l-1.048-7.488c-3.145,5.541-8.687,9.585-17.523,9.585
		c-14.527,0-23.812-10.184-23.812-24.711c0-16.474,11.981-24.561,29.503-24.561h9.285v-4.194c0-8.087-2.397-12.729-8.986-12.729
		c-4.942,0-9.135,2.546-9.884,8.686H96.594c0.749-16.024,11.082-25.759,27.856-25.759C142.422,62.846,150.958,73.329,150.958,92.648
		z M133.136,111.219h-8.986c-7.488,0-11.831,3.445-11.831,10.184c0,5.392,3.295,9.285,10.034,9.285
		c6.589,0,10.783-4.193,10.783-11.382V111.219z"/>
	<path fill="#414042" d="M209.218,64.493v17.072c-2.846-1.198-5.991-1.946-9.735-1.946c-9.135,0-14.827,5.841-14.827,17.373v47.025
		h-17.672V64.793h11.981l1.647,9.435c4.194-7.338,10.932-11.232,20.069-11.232C204.126,62.996,206.972,63.445,209.218,64.493z"/>
	<path fill="#414042" d="M270.919,92.648v51.369h-14.227l-1.048-7.488c-3.145,5.541-8.687,9.585-17.523,9.585
		c-14.527,0-23.812-10.184-23.812-24.711c0-16.474,11.981-24.561,29.503-24.561h9.285v-4.194c0-8.087-2.397-12.729-8.986-12.729
		c-4.942,0-9.135,2.546-9.884,8.686h-17.672c0.749-16.024,11.083-25.759,27.856-25.759
		C262.383,62.846,270.919,73.329,270.919,92.648z M253.098,111.219h-8.986c-7.488,0-11.831,3.445-11.831,10.184
		c0,5.392,3.295,9.285,10.034,9.285c6.589,0,10.783-4.193,10.783-11.382V111.219z M248.006,52.811h-12.73l0.431-29.925h32.821
		L248.006,52.811z"/>
	<path fill="#414042" d="M285.149,116.311V92.2c0-18.421,10.334-29.354,27.556-29.354c18.121,0,27.856,10.933,28.455,29.354h-17.822
		c-0.299-8.237-3.893-12.431-10.334-12.431c-6.439,0-10.034,4.194-10.034,12.431v24.111c0,8.387,3.594,12.58,10.034,12.58
		c6.589,0,10.034-4.194,10.484-12.58h17.822c-0.449,18.571-11.233,29.503-28.605,29.503
		C295.483,145.814,285.149,134.882,285.149,116.311z"/>
	<path fill="#414042" d="M389.385,128.442v16.624h-5.991c-16.474,0-26.508-10.633-26.508-27.706V80.817h-10.633V64.793h10.633
		v-18.87h17.523v18.87h13.778v16.024h-13.778v36.692c0,7.488,3.145,10.932,10.034,10.932H389.385z"/>
	<path fill="#414042" d="M456.628,119.007c-1.498,16.923-11.981,26.807-29.054,26.807c-17.223,0-27.706-11.382-27.706-30.551V92.948
		c0-19.02,10.484-30.103,28.006-30.103c17.822,0,28.455,11.082,28.455,30.103v17.672H417.54v4.642
		c0,9.435,3.744,13.628,10.334,13.628c7.039,0,9.585-2.995,10.932-9.884H456.628z M417.54,92.798v5.242h21.266v-5.242
		c0-9.285-3.744-13.478-10.782-13.478C421.285,79.32,417.54,83.513,417.54,92.798z"/>
	<path fill="#414042" d="M512.192,64.493v17.072c-2.845-1.198-5.989-1.946-9.733-1.946c-9.136,0-14.827,5.841-14.827,17.373v47.025
		H469.96V64.793h11.981l1.647,9.435c4.194-7.338,10.932-11.232,20.068-11.232C507.101,62.996,509.947,63.445,512.192,64.493z"/>
</g>
</svg>
