<?xml version="1.0" encoding="utf-8"?>
<!-- Generator: Adobe Illustrator 17.0.0, SVG Export Plug-In . SVG Version: 6.00 Build 0)  -->
<!DOCTYPE svg PUBLIC "-//W3C//DTD SVG 1.1//EN" "http://www.w3.org/Graphics/SVG/1.1/DTD/svg11.dtd">
<svg version="1.1" id="Layer_1" xmlns="http://www.w3.org/2000/svg" xmlns:xlink="http://www.w3.org/1999/xlink" x="0px" y="0px"
	 width="210px" height="110px" viewBox="0 0 210 110" enable-background="new 0 0 210 110" xml:space="preserve">
<g>
	<g>
		<path fill="#148CB9" d="M121.597,5.339c-5.222-1.747-10.793-2.731-16.599-2.731c-18.157,0-34.149,9.244-43.55,23.273
			c7.355-1.637,14.724-4.105,21.462-5.829C96.144,16.394,109.378,11.761,121.597,5.339z"/>
		<path fill="#8AD6EF" d="M79.275,53.315c5.59-2.234,11.74-2.795,17.61-3.912c8.108-1.397,15.376-4.192,23.204-6.431
			c9.501-2.515,18.722-6.426,27.392-11.179c1.044-0.57,2.216-1.301,3.406-2.059c-0.951-1.733-2.023-3.378-3.158-4.978
			c-11.253,7.019-23.158,12.889-36.029,17.38C101.077,45.768,89.897,49.403,79.275,53.315z"/>
		<path fill="#148CB9" d="M74.691,97.683c8.564,6.09,18.999,9.708,30.306,9.708c20.042,0,37.436-11.262,46.248-27.792
			c-13.501,6.826-28.9,10.09-43.457,13.97C97.294,96.428,85.99,97.54,74.691,97.683z"/>
		<path fill="#8AD6EF" d="M82.35,64.219c8.665-2.519,18.451-5.314,26.275-10.062c-8.384,0-14.535,4.473-22.643,6.426
			c-10.228,2.68-22.157,2.597-32.821,1.609c0.239,1.733,0.556,3.434,0.961,5.112C63.609,67.528,73.078,67.197,82.35,64.219z"/>
		<path fill="#20A4DD" d="M150.887,29.734c-1.19,0.759-2.362,1.489-3.406,2.059c-8.669,4.753-17.891,8.665-27.392,11.179
			c-7.828,2.239-15.096,5.034-23.204,6.431c-5.87,1.117-12.02,1.678-17.61,3.912c10.623-3.912,21.802-7.548,32.425-11.179
			c12.871-4.491,24.776-10.361,36.029-17.38c-1.181-1.669-2.491-3.241-3.856-4.753c-25.756,19.306-59.85,26.041-91.112,31.01
			c-0.101,1.315-0.152,2.648-0.152,3.99c0,2.445,0.225,4.831,0.552,7.189c10.664,0.988,22.593,1.071,32.821-1.609
			c8.108-1.953,14.259-6.426,22.643-6.426c-7.824,4.748-17.61,7.543-26.275,10.062c-9.272,2.979-18.741,3.31-28.229,3.085
			c3.006,12.457,10.439,23.172,20.57,30.38c11.299-0.143,22.602-1.255,33.097-4.114c14.557-3.88,29.957-7.143,43.457-13.97
			c1.687-3.172,3.048-6.541,4.064-10.053c-2.703,1.37-5.962,3.278-8.945,5.696c-6.711,5.433-19.849,7.985-19.849,7.985
			c5.87-1.954,12.02-4.748,16.212-8.945c2.859-2.855,8.977-7.185,13.822-9.975c0.543-3.025,0.842-6.128,0.842-9.304
			C157.391,45.836,155.024,37.227,150.887,29.734z"/>
		<path fill="#42B9E0" d="M121.597,5.339c-12.218,6.422-25.452,11.055-38.686,14.714c-6.739,1.724-14.107,4.192-21.462,5.829
			c-4.882,7.29-7.989,15.877-8.688,25.13c31.262-4.969,65.356-11.703,91.112-31.01C137.892,13.361,130.266,8.235,121.597,5.339z"/>
		<path fill="#8AD6EF" d="M126.515,83.226c0,0,13.137-2.551,19.849-7.985c2.983-2.418,6.243-4.325,8.945-5.696
			c0.496-1.714,0.919-3.461,1.241-5.24c-4.845,2.79-10.963,7.12-13.822,9.975C138.535,78.478,132.385,81.272,126.515,83.226z"/>
	</g>
	<g opacity="0.7">
		<path fill="#148CB9" d="M137.414,13.963c-0.891,0.993-1.866,1.986-2.579,3.006c-0.06,0.156-0.432,0.74-0.782,0.906l-0.868,0.561
			l-1.687,1.085c-2.257,1.421-4.652,2.772-7.056,3.981c-4.808,2.468-9.828,4.505-14.93,6.261
			c-10.242,3.397-20.86,5.677-31.635,6.224c10.264-3.296,20.474-6.137,30.503-9.566c5.034-1.659,9.989-3.507,14.94-5.424
			c2.473-0.979,4.905-1.936,7.387-3.002c1.122-0.565,2.809-0.841,3.397-1.604C135.129,15.37,136.265,14.689,137.414,13.963z"/>
	</g>
	<g opacity="0.7">
		<path fill="#148CB9" d="M94.646,36.822c3.994-2.606,8.044-4.39,12.241-6.095c4.215-1.605,8.481-3.103,13.202-3.687
			c-3.576,3.13-7.663,5.245-11.91,6.968C103.913,35.627,99.385,36.891,94.646,36.822z"/>
	</g>
	<g opacity="0.7">
		<path fill="#148CB9" d="M105.83,23.965c4.335-3.006,8.835-5.139,13.404-7.258c4.601-2.027,9.184-3.99,14.268-5.323
			c-3.691,3.76-8.173,6.389-12.821,8.536C116.002,21.97,111.061,23.589,105.83,23.965z"/>
	</g>
	<path fill="#148CB9" d="M121.022,80.193c-0.699-0.552-1.609-1.02-2.689-1.374c-5.19-1.71-12.306-1.31-17.256,1.052
		c-5.033,2.519-14.254,10.343-4.473,12.02c6.624,1.135,18.253-1.283,23.664-5.19C123.366,84.463,123.237,81.925,121.022,80.193z"/>
	<g opacity="0.8">
		<path fill="#8AD6EF" d="M137.414,47.445c-1.406,1.811-3.015,3.36-4.918,4.68c-1.834,1.305-3.801,2.367-5.801,3.333
			c-4.064,1.816-8.21,3.158-12.761,3.728c3.402-3.117,7.383-5.079,11.28-6.932C129.222,50.456,133.005,48.893,137.414,47.445z"/>
	</g>
	<g opacity="0.8">
		<path fill="#8AD6EF" d="M146.083,39.056c-1.485,1.659-3.14,3.07-5.02,4.247c-1.83,1.181-3.788,2.119-5.774,2.965
			c-4.022,1.563-8.214,2.648-12.687,2.574c3.645-2.593,7.507-4.243,11.372-5.847C137.91,41.46,141.698,40.058,146.083,39.056z"/>
	</g>
	<path fill="#42B9E0" d="M100.801,100.56c2.418-1.931,4.859-2.91,7.419-3.788c2.579-0.777,5.162-1.411,8.233-1.245
		c-1.949,2.395-4.505,3.705-7.157,4.606C106.625,100.933,103.756,101.355,100.801,100.56z"/>
	<g opacity="0.8">
		<path fill="#8AD6EF" d="M103.871,69.528c8.444-3.107,16.751-5.948,24.914-9.244c8.182-3.259,16.121-6.849,24.004-11.161
			c-6.238,6.587-14.392,11.041-22.694,14.438C121.707,66.83,112.89,69.142,103.871,69.528z"/>
	</g>
</g>
</svg>
