<?xml version="1.0" encoding="utf-8"?>
<!-- Generator: Adobe Illustrator 17.0.0, SVG Export Plug-In . SVG Version: 6.00 Build 0)  -->
<!DOCTYPE svg PUBLIC "-//W3C//DTD SVG 1.1//EN" "http://www.w3.org/Graphics/SVG/1.1/DTD/svg11.dtd">
<svg version="1.1" id="Layer_1" xmlns="http://www.w3.org/2000/svg" xmlns:xlink="http://www.w3.org/1999/xlink" x="0px" y="0px"
	 width="210px" height="110px" viewBox="0 0 210 110" enable-background="new 0 0 210 110" xml:space="preserve">
<g>
	<g id="venus">
		<g>
			<path fill="#DF9C61" d="M83.463,72.023c10.057-1.027,18.885-7.596,28.328-10.882c4.723-1.439,10.062-0.205,14.78-1.847
				c3.698-1.232,7.186-4.105,10.674-5.747c5.132-2.464,10.062-5.544,15.602-6.774c1.22-0.272,2.503-0.389,3.813-0.456
				c-1.31-7.838-4.356-15.084-8.736-21.335c-3.9,0.417-7.753,1.124-11.501,2.494c-3.9,1.232-6.774,2.873-10.674,3.693
				c-4.313,0.617-8.826,1.234-13.14,2.261c-11.289,2.464-21.966,6.159-33.255,8.621c-8.616,1.725-17.95,6.617-26.557,8.634
				c-0.117,1.425-0.191,2.862-0.191,4.317c0,0.32,0.021,0.633,0.025,0.953c5.609-0.497,11.692-3.514,16.458-5.489
				c4.105-1.847,8.416-3.076,12.728-3.283c3.283-0.41,6.569,0.412,9.648-0.615c6.159-2.054,11.704-5.544,18.273-6.364
				c5.747-0.615,11.291-1.232,16.629-3.283c-4.927,3.695-12.318,3.9-18.065,5.954c-7.389,2.669-15.397,3.283-22.788,6.364
				c-3.283,1.439-5.337,3.695-8.006,5.749c-3.076,2.259-6.772,3.078-10.265,4.515c-4.593,1.969-8.957,4.515-13.361,6.967
				c1.032,4.623,2.671,9.014,4.835,13.09c3.55-1.787,6.385-4.628,10.168-5.89C73.816,72.023,78.329,72.432,83.463,72.023z"/>
			<path fill="#945829" d="M77.509,54.982c2.671-2.054,4.723-4.31,8.006-5.749c7.393-3.078,15.399-3.693,22.788-6.364
				c5.749-2.054,13.138-2.259,18.065-5.954c-5.337,2.054-10.882,2.669-16.629,3.283c-6.571,0.82-12.113,4.31-18.273,6.364
				c-3.078,1.027-6.364,0.205-9.648,0.615c-4.313,0.207-8.623,1.439-12.728,3.283c-4.766,1.973-10.849,4.992-16.458,5.489
				c0.065,3.606,0.493,7.119,1.248,10.511c4.405-2.452,8.768-4.996,13.361-6.967C70.735,58.062,74.431,57.243,77.509,54.982z"/>
			<path fill="#FFD8A9" d="M112.613,33.428c4.313-1.027,8.828-1.642,13.14-2.261c3.9-0.82,6.774-2.461,10.674-3.693
				c3.748-1.372,7.601-2.077,11.501-2.494c-3.744-5.342-8.45-9.958-13.88-13.58c-4.939,0.585-9.875,1.202-14.66,2.526
				c-6.569,1.644-12.728,2.873-19.092,5.544c-7.801,3.078-16.424,2.871-24.637,4.515c-6.663,1.248-11.922,3.917-17.167,6.903
				c-3.124,6.01-5.111,12.703-5.692,19.795c8.604-2.017,17.941-6.91,26.557-8.634C90.647,39.587,101.324,35.892,112.613,33.428z"/>
			<path fill="#DF9C61" d="M100.297,19.468c6.364-2.669,12.523-3.9,19.092-5.544c4.785-1.324,9.721-1.941,14.66-2.526
				c-8.314-5.549-18.3-8.789-29.044-8.789c-20.237,0-37.784,11.48-46.511,28.279c5.245-2.986,10.502-5.655,17.167-6.903
				C83.873,22.341,92.496,22.546,100.297,19.468z"/>
			<path fill="#DF9C61" d="M122.263,91.115c-5.749,2.876-11.906,5.544-18.065,7.596c-3.488,1.232-8.211,0.617-11.087,3.081
				c10.469,4.72,25.252-2.056,34.079-7.391c5.475-3.203,11.729-4.326,17.847-5.62c3.313-3.921,6.06-8.33,8.114-13.113
				c-3.983,3.189-7.957,5.947-12.825,8.057C134.169,86.187,128.01,88.241,122.263,91.115z"/>
			<path fill="#FFD8A9" d="M132.733,71.818c-3.078,2.669-4.925,4.723-8.828,6.159c-4.105,1.437-7.594,3.283-11.496,5.132
				c-7.186,3.488-13.96,10.267-22.376,9.033c-6.484-1.082-16.445-4.37-22.811-0.863c9.535,9.926,22.931,16.113,37.782,16.113
				c16.062,0,30.425-7.232,40.034-18.613c-6.118,1.294-12.374,2.415-17.847,5.62c-8.828,5.337-23.61,12.113-34.079,7.391
				c2.876-2.464,7.596-1.849,11.087-3.081c6.159-2.052,12.318-4.72,18.065-7.596c5.747-2.873,11.906-4.927,18.065-7.391
				c4.868-2.109,8.842-4.868,12.825-8.057c1.761-4.101,3.016-8.469,3.682-13.025C149.449,66.478,139.062,66.508,132.733,71.818z"/>
			<path fill="#945829" d="M76.072,79.411c2.669-1.642,5.749-2.873,8.826-3.9c4.313-1.847,8.418-4.515,13.14-5.954
				c5.542-1.847,10.882-3.9,16.629-4.72c3.081-0.617,5.749-2.259,8.828-3.078c2.671-0.617,5.542-0.617,8.213-1.849
				c6.157-2.464,10.879-6.981,17.656-9.033c2.59-0.725,5.185-0.928,7.778-1.004c-0.115-1.2-0.281-2.383-0.477-3.56
				c-1.31,0.067-2.595,0.184-3.813,0.456c-5.542,1.232-10.469,4.31-15.602,6.774c-3.491,1.642-6.979,4.515-10.674,5.747
				c-4.72,1.642-10.06,0.41-14.78,1.847c-9.443,3.283-18.273,9.855-28.328,10.882c-5.135,0.41-9.65,0-14.577,1.644
				c-3.783,1.259-6.62,4.101-10.168,5.89c1.766,3.32,3.88,6.429,6.293,9.279C69.391,86.818,72.091,81.764,76.072,79.411z"/>
		</g>
		<g>
			<path fill="#B26736" d="M103.171,73.869c-6.157-0.203-11.906,0.824-16.219,5.749c-2.353,2.687-4.43,7.025-6.456,10.656
				c3.442,0.564,6.799,1.411,9.535,1.867c8.416,1.234,15.192-5.544,22.376-9.033c3.9-1.849,7.389-3.695,11.496-5.132
				c2.968-1.094,4.75-2.544,6.79-4.354C119.39,77.997,111.623,74.039,103.171,73.869z"/>
			<path fill="#DFA165" d="M156.835,62.642c0.361-2.494,0.559-5.042,0.559-7.64c0-1.732-0.09-3.44-0.253-5.128
				c-2.593,0.074-5.188,0.276-7.778,1.004c-6.776,2.052-11.499,6.569-17.656,9.033c-2.671,1.232-5.544,1.232-8.213,1.849
				c-3.078,0.82-5.747,2.461-8.828,3.078c-5.747,0.82-11.084,2.873-16.629,4.72c-4.723,1.439-8.828,4.108-13.14,5.954
				c-3.076,1.027-6.157,2.256-8.826,3.9c-3.981,2.351-6.682,7.405-11.059,9.422c0.709,0.838,1.448,1.651,2.21,2.445
				c3.679-2.028,8.558-1.78,13.276-1.004c2.024-3.631,4.101-7.967,6.456-10.656c4.31-4.927,10.06-5.952,16.219-5.749
				c8.453,0.173,16.219,4.131,27.524-0.246c0.638-0.566,1.303-1.167,2.038-1.805C139.062,66.508,149.449,66.478,156.835,62.642z"/>
		</g>
		<path fill="#C28152" d="M91.879,17.844c-1.2,0.016-2.319,1.651-1.121,2.482c0.536,0.373,1.483,0.456,2.033,0.083
			c0.428-0.292,0.951-0.981,0.944-1.522c-0.012-0.79-0.827-0.905-1.485-1.013C92.126,17.851,91.999,17.842,91.879,17.844z"/>
		<path fill="#C28152" d="M103.394,15.206c-1.478,0.467-0.315,2.139,0.926,1.497c0.437-0.226,1.402-0.799,1.011-1.359
			C105.008,14.881,103.822,15.07,103.394,15.206z"/>
		<path fill="#C28152" d="M84.488,17.826c0.903,1.653,3.507,0.371,3.281-1.306C87.477,14.359,83.491,15.989,84.488,17.826z"/>
		<path fill="#F0B488" d="M64.166,30.759c-0.617,1.439,0.412,3.078,2.261,2.259C70.033,31.812,65.693,27.193,64.166,30.759z"/>
		<path fill="#C28152" d="M130.695,73.623c-3.539,2.487-7.502,4.382-11.681,5.657c-1.055,0.295-2.123,0.55-3.235,0.693
			c-0.557,0.069-1.119,0.115-1.732,0.06l-1.635-0.203l-6.429-0.594c-2.146-0.228-4.405-0.695-6.403-1.128
			c-1.013-0.177-1.879-0.2-2.823,0.115c-0.995,0.283-1.994,0.617-2.915,1.045c-0.923,0.435-1.755,0.944-2.399,1.669
			c-0.64,0.728-1.149,1.681-1.734,2.613c-1.296,1.789-2.482,3.569-4.018,5.141c1.17-1.798,2.111-3.799,3.171-5.62
			c0.481-0.939,0.893-1.959,1.593-2.931c0.707-0.969,1.697-1.715,2.708-2.224c1.013-0.527,2.049-0.939,3.12-1.28
			c1.105-0.403,2.471-0.41,3.574-0.21c2.229,0.44,4.188,0.916,6.332,1.195c2.116,0.322,4.262,0.569,6.417,1.022l1.561,0.325
			c0.463,0.062,0.983,0.046,1.499,0c1.036-0.09,2.081-0.297,3.118-0.541C122.942,77.447,126.946,75.762,130.695,73.623z"/>
		<g opacity="0.4">
			<path fill="#DF9C61" d="M99.687,82.183c-2.996-0.454-6.247,0.065-8.202,2.735c-1.953,2.669,0.716,4.423,3.385,3.967
				c2.148-0.325,8.459-3.06,5.595-6.244L99.687,82.183z"/>
		</g>
		<path fill="#C28152" d="M102.809,84.396c0.154,0.916-0.364,1.83-0.981,2.496c-0.624,0.691-1.365,1.253-2.139,1.75
			c-1.589,0.905-3.254,1.766-5.261,1.872c-0.955,0.048-1.93-0.014-2.899-0.327c-0.944-0.302-2.008-0.939-2.487-2.077
			c-0.47-1.112-0.267-2.286,0.131-3.244c0.412-0.965,1.036-1.761,1.725-2.448c1.411-1.345,3.076-2.316,4.953-2.873
			c2.015-0.606,4.096-0.009,5.708,0.85c1.646,0.852,3.095,1.886,4.681,2.563c1.547,0.73,3.339,0.939,4.999,0.212l-0.007,0.002
			c3.603-1.529,7.214-2.929,10.801-4.444l-10.727,4.557h-0.002l-0.005,0.002c-1.517,1.038-3.622,1.121-5.376,0.518
			c-1.771-0.583-3.346-1.513-4.941-2.162c-1.575-0.665-3.217-1.045-4.672-0.509c-1.547,0.474-3.042,1.388-4.209,2.514
			c-1.172,1.096-1.989,2.646-1.561,3.85c0.389,1.163,2.261,1.655,3.868,1.708c1.598,0.088,3.318-0.587,4.881-1.292
			c0.79-0.364,1.559-0.79,2.222-1.345C102.158,86.017,102.77,85.315,102.809,84.396z"/>
		<path fill="#B26736" d="M93.829,85.893c-0.686-0.131-0.624,0.29-0.38,0.571c0.044,0.051,0.14,0.147,0.138,0.117
			c0.11,0.074,0.233,0.157,0.283,0.145c0.138,0.03,0.336,0.092,0.534,0.09c0.81,0.025,1.766-0.193,2.685-0.463
			c0.937-0.249,1.874-0.578,2.83-0.886c0.939-0.355,1.934-0.587,2.885-1.068c-0.511,0.992-1.407,1.704-2.3,2.282
			c-0.905,0.589-1.9,1.022-2.952,1.338c-1.061,0.258-2.199,0.486-3.435,0.113c-0.308-0.101-0.603-0.23-0.898-0.479
			c-0.175-0.143-0.235-0.244-0.313-0.348c-0.17-0.226-0.205-0.355-0.253-0.546c-0.046-0.348-0.035-0.737,0.288-1.036
			C93.341,85.425,93.684,85.718,93.829,85.893z"/>
		<path fill="#C28152" d="M106.714,99.234c-0.714,0-1.69-0.198-1.626,0.781c0.065,0.845,1.108,1.172,1.821,1.172
			c1.759-0.067,2.408-1.695,0.325-2.019L106.714,99.234z"/>
		<path fill="#C28152" d="M126.951,89.862c-1.038,0-2.342,0-3.06,1.038c-0.649,0.976-0.322,2.475,1.043,2.604
			c1.301,0.129,4.165-2.929,2.213-3.254"/>
		<path fill="#F0B488" d="M94.414,94.677c-0.778,0.193-2.404,0.912-2.342,1.953c0.129,1.108,2.342,1.757,3.254,1.69
			c2.8-0.129,2.408-3.382-0.131-3.642L94.414,94.677L94.414,94.677z"/>
		<path fill="#F0B488" d="M149.205,72.098c0.071,0.67-0.09,1.37-0.375,1.939c-0.269,0.594-0.67,1.101-1.098,1.559
			c-0.905,0.875-1.978,1.545-3.343,1.708c0.553-1.262,1.335-2.102,2.116-2.922c0.41-0.389,0.806-0.781,1.248-1.144
			C148.18,72.847,148.652,72.524,149.205,72.098z"/>
		<path fill="#F0B488" d="M149.4,74.636c0.055,0.553-0.133,1.128-0.417,1.545c-0.274,0.449-0.654,0.79-1.052,1.082
			c-0.831,0.534-1.771,0.845-2.892,0.624c0.534-1.013,1.23-1.554,1.918-2.052c0.361-0.226,0.709-0.449,1.103-0.631
			C148.447,74.995,148.866,74.868,149.4,74.636z"/>
		<path fill="#C28152" d="M120.184,70.797c1.365-0.025,2.59-0.53,3.744-1.174l3.53-1.925c2.342-1.303,4.561-2.669,6.79-4.202
			c2.339-1.49,4.996-2.636,7.785-2.961c2.696-0.35,5.346-0.382,7.757-1.711c-2.019,1.911-4.966,2.496-7.52,3.037
			c-2.54,0.564-4.895,1.665-7.078,3.081c-2.226,1.492-4.644,2.892-7.14,3.96c-1.266,0.555-2.491,1.015-3.79,1.494
			C122.963,70.805,121.519,71.168,120.184,70.797z"/>
		<path fill="#C28152" d="M67.348,67.348c4.821-1.695,9.286-4.566,14.646-5.367c2.639-0.38,5.238-0.207,7.681-0.629
			c2.471-0.47,4.957-1.117,7.324-1.989c4.727-1.893,9.862-3.447,14.847-4.626c2.494-0.688,5.176-0.99,7.683-1.349
			c2.537-0.332,5.07-0.877,7.29-2.243c-2.001,1.697-4.626,2.466-7.135,3.074c-2.574,0.548-5.031,0.955-7.488,1.798
			c-2.464,0.783-4.955,1.441-7.386,2.254c-2.459,0.767-4.745,1.752-7.232,2.715c-2.503,0.863-5.047,1.471-7.663,1.913
			c-2.678,0.368-5.277,0.228-7.782,0.391c-2.491,0.154-4.921,0.995-7.359,1.824l-3.682,1.204
			C69.904,66.773,68.654,67.312,67.348,67.348z"/>
		<path fill="#C28152" d="M122.852,55.962c3.477-1.55,7.053-2.62,10.244-4.301c3.205-1.646,6.403-3.949,10.189-4.743
			c-3.196,2.031-5.957,4.442-9.39,6.274C130.405,54.954,126.635,55.728,122.852,55.962z"/>
		<path fill="#F0B488" d="M65.591,39.173c2.438-0.12,4.723-0.9,6.951-1.819c2.222-0.914,4.589-1.738,6.956-2.307
			c2.337-0.654,4.663-1.147,6.767-2.21c2.123-1.002,4.191-2.266,6.327-3.452c2.187-1.177,4.598-1.978,6.871-2.745
			c2.344-0.684,4.402-1.748,6.838-2.489c4.946-1.147,9.719-0.861,14.34-2.611c-2.144,1.163-4.534,1.837-6.912,2.376
			c-2.367,0.546-4.877,0.698-7.011,1.497c-2.141,0.854-4.444,1.959-6.739,2.712c-2.296,0.831-4.495,1.616-6.564,2.777
			c-2.128,1.119-4.227,2.351-6.514,3.369c-2.275,1.055-4.732,1.616-7.103,2.065c-2.39,0.41-4.651,1.048-6.979,1.812
			C70.489,38.809,68.032,39.447,65.591,39.173z"/>
		<path fill="#C28152" d="M110.099,11.584c0.852-0.806,2.109-1.147,3.21-1.278c1.135-0.163,2.088-0.226,3.062-0.555
			c0.997-0.272,2.072-0.654,3.244-0.794c1.156-0.175,2.45-0.014,3.433,0.61c-2.309,0.097-3.944,1.17-6.21,1.844
			c-1.14,0.35-2.424,0.355-3.491,0.235C112.254,11.566,111.246,11.4,110.099,11.584z"/>
		<path fill="#C28152" d="M120.833,11.455c0.624-0.721,1.002-1.002,1.621-1.213c0.583-0.157,1.273-0.244,2.088,0.237
			c-0.421,0.827-0.933,1.186-1.575,1.409c-0.327,0.083-0.67,0.14-1.038,0.085C121.524,11.943,121.176,11.764,120.833,11.455z"/>
		<path fill="#C28152" d="M76.524,20.239c-0.108-0.728,0.028-1.011,0.219-1.179c0.251-0.147,0.645-0.203,1.211,0.267
			c0.069,0.741-0.021,0.979-0.235,1.156C77.449,20.637,77.116,20.674,76.524,20.239z"/>
		<path fill="#C28152" d="M81.47,20.759c0.239-0.712,0.53-0.907,0.815-0.981c0.311-0.023,0.675,0.081,1.073,0.721
			c-0.235,0.716-0.495,0.912-0.813,0.988C82.199,21.51,81.861,21.397,81.47,20.759z"/>
		<path fill="#C28152" d="M98.582,15.747c0.571-0.44,0.838-0.479,0.979-0.444c0.175,0.101,0.283,0.306,0.322,1.032
			c-0.419,0.589-0.76,0.633-1.022,0.546C98.563,16.712,98.414,16.447,98.582,15.747z"/>
		<path fill="#C28152" d="M109.576,13.601c0.313-0.64,0.555-0.762,0.781-0.757c0.214,0.058,0.401,0.242,0.523,0.951
			c-0.313,0.645-0.562,0.764-0.781,0.757C109.892,14.492,109.698,14.306,109.576,13.601z"/>
		<path fill="#C28152" d="M135.346,33.642c0.776-0.774,1.83-0.87,2.643-0.863c0.87,0.053,1.566,0.226,2.563,0.668
			c-0.338,0.428-0.785,0.728-1.253,0.868c-0.461,0.154-0.928,0.191-1.375,0.189C136.994,34.443,136.304,34.222,135.346,33.642z"/>
		<path fill="#C28152" d="M142.046,31.038c0.539-0.649,1.038-0.785,1.51-0.806c0.49,0.03,0.983,0.189,1.485,0.87
			c-0.497,0.684-1.004,0.836-1.513,0.854C143.002,31.922,142.504,31.747,142.046,31.038z"/>
		<path fill="#945829" d="M81.317,89.676c1.133-3.263,2.238-6.571,4.326-9.544c2.058-3.019,5.57-5.04,9.079-5.766
			c0.868-0.207,1.789-0.355,2.618-0.486c0.813-0.145,1.547-0.306,2.351-0.543c1.568-0.456,3.101-1.158,4.736-1.777
			c0.815-0.313,1.651-0.615,2.507-0.877c0.843-0.258,1.72-0.514,2.765-0.536c1.939-0.035,3.527,0.481,5.054,0.193l-0.097,0.032
			c2.134-0.771,4.168-2.178,6.309-3.27c-0.91,0.792-1.81,1.589-2.756,2.344c-0.951,0.751-1.897,1.524-3.051,2.1l-0.009,0.005
			l-0.088,0.028c-1.863,0.592-3.751,0.198-5.243,0.382c-1.384,0.193-3.072,0.93-4.573,1.584c-1.545,0.7-3.159,1.416-4.888,1.973
			c-0.845,0.276-1.791,0.5-2.678,0.624c-0.875,0.122-1.658,0.235-2.471,0.412c-3.224,0.647-6.152,2.075-8.291,4.598
			C84.751,83.629,83.134,86.738,81.317,89.676z"/>
		<path fill="#945829" d="M139.412,58.841c1.409-0.375,2.349-1.345,3.417-2.224c1.066-0.912,2.109-1.877,3.67-2.521
			c1.52-0.527,3.037-0.477,4.384-0.486c1.354-0.021,2.652-0.127,3.949-0.827c-0.82,1.223-2.369,1.939-3.806,2.167
			c-1.446,0.283-2.802,0.329-3.956,0.774c-1.075,0.396-2.233,1.273-3.461,1.985C142.417,58.426,140.883,59.161,139.412,58.841z"/>
		<path fill="#945829" d="M109.678,74.808c4.052-0.361,8.123-0.555,11.991-1.492c3.919-0.896,7.361-2.694,10.985-4.656
			c3.714-1.817,7.315-3.408,10.93-5.36c3.721-1.787,7.598-2.924,11.245-4.736c-3.295,2.438-7.168,3.942-10.64,5.917
			c-3.378,2.181-7.193,3.93-10.75,5.713c-1.805,0.877-3.573,1.916-5.521,2.699c-1.93,0.769-3.93,1.407-5.984,1.718
			C117.833,75.31,113.728,75.156,109.678,74.808z"/>
	</g>
</g>
</svg>
