<?xml version="1.0" encoding="utf-8"?>
<!-- Generator: Adobe Illustrator 17.0.0, SVG Export Plug-In . SVG Version: 6.00 Build 0)  -->
<!DOCTYPE svg PUBLIC "-//W3C//DTD SVG 1.1//EN" "http://www.w3.org/Graphics/SVG/1.1/DTD/svg11.dtd">
<svg version="1.1" id="Layer_1" xmlns="http://www.w3.org/2000/svg" xmlns:xlink="http://www.w3.org/1999/xlink" x="0px" y="0px"
	 width="210px" height="110px" viewBox="0 0 210 110" enable-background="new 0 0 210 110" xml:space="preserve">
<g>
	<g>
		<path fill="#40BDAF" d="M105.008,37.88c9.965-1.194,19.931-1.194,28.701-5.982c5.375-2.684,10.289-4.035,14.119-7.051
			c-1.117-1.586-2.324-3.114-3.612-4.57C135.842,32.134,117.856,34.403,105.008,37.88z"/>
		<path fill="#12998C" d="M96.638,21.934c9.88-4.541,18.156-10.328,26.611-16.054c-5.682-2.112-11.83-3.271-18.25-3.271
			c-20.612,0-38.435,11.911-46.983,29.217C71.564,32.535,83.205,28.011,96.638,21.934z"/>
		<path fill="#40BDAF" d="M99.83,30.704c9.564-3.19,13.949-7.176,20.326-13.953c2.973-2.969,6.412-5.407,9.898-7.774
			c-2.18-1.185-4.449-2.222-6.804-3.097c-8.455,5.726-16.731,11.513-26.611,16.054c-13.433,6.078-25.074,10.601-38.622,9.892
			c-1.246,2.516-2.295,5.139-3.127,7.87C69.082,42.107,87.927,34.103,99.83,30.704z"/>
		<path fill="#40BDAF" d="M145.269,77.337c-6.377,5.183-12.755,3.588-19.929,7.574c-3.985,2.391-4.786,3.983-9.565,4.785
			c-4.385,0.799-8.77,0.799-13.156,1.592c-5.579,1.194-10.366,3.989-15.544,5.185c-5.747,0.906-11.032-0.482-16.381-1.903
			c4.637,4.029,9.982,7.254,15.835,9.459c15.246-1.575,29.968-12.341,43.994-17.524c5.579-1.993,11.158-1.993,16.343-4.381
			c1.364-0.572,2.721-1.22,4.06-1.912c2.09-3.8,3.729-7.885,4.83-12.184C152.222,71.196,148.746,74.476,145.269,77.337z"/>
		<path fill="#12998C" d="M130.522,86.506c-14.026,5.183-28.748,15.949-43.994,17.524c5.746,2.161,11.969,3.361,18.471,3.361
			c19.794,0,37.019-10.984,45.926-27.178c-1.339,0.691-2.696,1.339-4.06,1.912C141.681,84.513,136.102,84.513,130.522,86.506z"/>
		<path fill="#66C6BF" d="M87.075,96.474c5.178-1.197,9.965-3.991,15.544-5.185c4.385-0.793,8.77-0.793,13.156-1.592
			c4.779-0.802,5.581-2.394,9.565-4.785c7.174-3.986,13.552-2.391,19.929-7.574c3.477-2.862,6.953-6.141,10.486-9.308
			c1.066-4.166,1.634-8.532,1.634-13.032c0-11.226-3.546-21.623-9.561-30.15c-3.83,3.016-8.744,4.366-14.119,7.051
			c-8.77,4.788-18.737,4.788-28.701,5.982c12.848-3.478,30.834-5.747,39.208-17.602c-4.019-4.535-8.801-8.373-14.163-11.301
			c-3.486,2.368-6.924,4.805-9.898,7.774c-6.377,6.778-10.762,10.764-20.326,13.953c-11.902,3.399-30.748,11.403-44.941,8.992
			c-1.48,4.837-2.278,9.979-2.278,15.301c0,15.81,7.009,29.972,18.083,39.574C76.042,95.991,81.328,97.38,87.075,96.474z
			 M59.171,64.979l1.993-1.589c9.171-4.387,17.938-5.183,28.7-5.183c10.367,0,16.739-6.38,26.307-9.169
			c-8.368,8.765-18.339,13.954-30.692,13.152C77.109,61.391,66.743,60.996,59.171,64.979z"/>
		<path fill="#40BDAF" d="M116.171,49.039c-9.568,2.789-15.94,9.169-26.307,9.169c-10.762,0-19.528,0.796-28.7,5.183l-1.993,1.589
			c7.572-3.983,17.938-3.588,26.308-2.789C97.832,62.992,107.803,57.803,116.171,49.039z"/>
	</g>
	<path fill="#40BDAF" d="M86.751,65.412c3.986-0.906,8.15-0.665,12.056-1.057c1.951-0.247,3.864-0.552,5.666-1.22
		c1.742-0.627,3.642-1.545,5.367-2.429c3.565-1.769,7.003-3.806,10.422-5.9c3.412-2.106,6.718-4.393,10.076-6.679
		c-2.755,2.989-5.846,5.656-9.109,8.097c-3.248,2.466-6.74,4.607-10.387,6.475c-1.89,0.906-3.634,1.764-5.714,2.44
		c-2.034,0.61-4.147,0.918-6.221,0.921C94.747,66.101,90.815,65.423,86.751,65.412z"/>
	<path fill="#007B6D" d="M128.133,90.425c1.011-1.229,2.573-1.978,4.086-2.373c1.527-0.43,3.064-0.566,4.535-0.735
		c1.476-0.128,2.899-0.261,4.236-0.566c1.316-0.331,2.596-0.875,3.695-2.025c-0.288,1.563-1.569,2.975-3.087,3.655
		c-1.503,0.744-3.108,0.982-4.628,1.156c-1.532,0.128-3.014,0.169-4.468,0.227C131.053,89.865,129.625,89.931,128.133,90.425z"/>
	<path fill="#007B6D" d="M69.648,25.87c6.916-0.078,13.468-1.598,19.615-4.32c6.181-2.644,11.947-6.298,18.086-9.476
		c-5.116,4.613-10.775,8.701-17.201,11.525c-3.218,1.365-6.616,2.405-10.109,2.821C76.558,26.875,73.005,26.684,69.648,25.87z"/>
	<path fill="#40BDAF" d="M110.843,28.081c1.997-2.004,3.876-3.753,5.828-5.566c1.977-1.769,3.919-3.561,6.313-5.104
		c-1.03,2.664-2.786,4.857-4.808,6.751C116.117,25.989,113.687,27.622,110.843,28.081z"/>
	<path fill="#40BDAF" d="M121.697,22.744c0.33-1.377,0.819-2.173,1.513-2.998c0.716-0.758,1.531-1.464,2.897-1.784
		c0.033,1.398-0.503,2.4-1.229,3.266C124.127,22.024,123.081,22.779,121.697,22.744z"/>
	<path fill="#40BDAF" d="M72.775,91.343c2.802,0.465,5.571,0.569,8.33,0.605c2.762-0.006,5.518-0.113,8.243-0.421
		c2.692-0.215,5.189-1.028,7.686-2.179c2.472-1.168,4.943-2.574,7.555-3.704c-2.144,1.859-4.252,3.733-6.73,5.238
		c-2.43,1.534-5.353,2.6-8.274,2.862C83.914,94.257,77.937,93.891,72.775,91.343z"/>
	<path fill="#00A798" d="M86.478,61.124c2.95-0.177,5.639-0.802,8.332-1.717c2.697-0.857,5.371-1.993,8.278-2.591
		c-2.432,1.662-4.997,3.047-7.815,4.003C92.482,61.731,89.298,62.117,86.478,61.124z"/>
	<path fill="#00A798" d="M141.447,27.073c0.45-0.764,0.842-1.124,1.358-1.476c0.527-0.305,1.057-0.541,1.926-0.581
		c-0.015,0.447-0.18,0.787-0.378,1.095c-0.19,0.319-0.469,0.54-0.755,0.744c-0.308,0.168-0.628,0.322-1.001,0.357
		C142.21,27.268,141.857,27.253,141.447,27.073z"/>
</g>
</svg>
