<?xml version="1.0" encoding="utf-8"?>
<!-- Generator: Adobe Illustrator 17.0.0, SVG Export Plug-In . SVG Version: 6.00 Build 0)  -->
<!DOCTYPE svg PUBLIC "-//W3C//DTD SVG 1.1//EN" "http://www.w3.org/Graphics/SVG/1.1/DTD/svg11.dtd">
<svg version="1.1" id="Layer_1" xmlns="http://www.w3.org/2000/svg" xmlns:xlink="http://www.w3.org/1999/xlink" x="0px" y="0px"
	 width="210px" height="110px" viewBox="0 0 210 110" enable-background="new 0 0 210 110" xml:space="preserve">
<g id="luna">
	<path fill="#FFFFFF" d="M104.829,3.936c0.761-0.32,1.941,0.041,2.762,0.002c1.674-0.079,3.708-0.939,4.654,1.1
		c0.009,0.022,0.024,0.04,0.036,0.061c-2.02-0.246-4.059-0.379-6.108-0.379c-0.897,0-1.794,0.029-2.688,0.076
		C103.8,4.506,104.123,4.233,104.829,3.936z"/>
	<path fill="#FFFFFF" d="M60.755,29.722c0.987-1.392,1.701-2.636,3.227-3.511c0.441-0.252,0.886-0.498,1.33-0.748
		c-2.281,3.12-4.194,6.49-5.707,10.038c-0.079-0.147-0.163-0.296-0.253-0.454C58.209,33.054,59.637,31.297,60.755,29.722z"/>
	<path fill="#FFFFFF" d="M79.53,100.752c-1.503-0.868-2.508-1.52-3.37-3.092c-0.404-0.737-0.698-1.529-1.032-2.299
		c0.676,0.525,1.362,1.04,2.067,1.532c2.428,1.697,4.982,3.158,7.628,4.392C82.769,102.385,81.541,101.914,79.53,100.752z"/>
	<path fill="#FFFFFF" d="M155.679,71.635c-0.116,0.815-0.721,1.663-0.961,2.464c-0.588,1.966-0.308,4.494-2.862,4.76
		c-0.34,0.036-0.657,0.126-0.957,0.254c1.771-3.328,3.154-6.834,4.137-10.455C155.395,69.651,155.861,70.365,155.679,71.635z"/>
	<path fill="#FFFFFF" d="M127.696,99.63l0.003,0.006c-0.305,0.12-0.607,0.238-0.904,0.338c-0.783,0.264-2.116,0.07-2.381,1.083
		c-0.024,0.094,0.06,0.167,0.151,0.15c0.919-0.178,1.889-0.26,2.786-0.526c0.126-0.038,0.251-0.077,0.376-0.116
		c-0.392,0.621-0.725,1.273-1.103,1.904c-0.777,1.298-2.517,1.387-3.759,1.92c-1.681,0.719-3.557,2.571-5.205,0.962
		c-0.356-0.348-0.725-0.59-1.108-0.767c0.787-0.278,1.539-0.636,2.257-1.082c0.161-0.101,0.086-0.329-0.093-0.342
		c-1.142-0.084-2.355,0.373-3.457,0.64c-0.218,0.054-0.444,0.09-0.673,0.118l-0.011-0.061c-2.756,0.474-5.583,0.715-8.402,0.715
		c-19.019,0-36.484-11.217-44.533-28.249c0.079-0.85-0.49-1.633-0.844-2.399c-0.473-1.024-1.21-2.049-1.477-3.151
		c-0.046-0.19-0.309-0.17-0.364,0c-0.298,0.912,0.182,1.676,0.561,2.5c-0.44-0.221-0.929-0.369-1.478-0.518
		c-2.005-0.546-1.889-5.472-2.286-7.207c-0.577-2.526-2.687-4.148-0.471-6.671c0.228-0.26,0.409-0.505,0.564-0.747
		c0.086,0.568,0.209,1.13,0.331,1.668c0.261,1.151,0.344,2.403,0.995,3.42c0.154,0.242,0.481,0.032,0.374-0.219
		c-0.451-1.06-0.222-2.342-0.413-3.464c-0.132-0.772-0.143-1.565-0.198-2.349l0.058-0.002c-0.022-0.599-0.033-1.215-0.033-1.827
		c0-14.981,6.851-29.119,18.472-38.43c0.069,0.014,0.141,0.013,0.211-0.006c0.477-0.131,0.688-0.383,1.06-0.707
		c0.56-0.487,1.227-0.842,1.863-1.216c0.501-0.294,0.998-0.62,1.419-1.022c0.441-0.422,0.78-1.158,1.403-1.349
		c0.194-0.059,0.198-0.339,0-0.397c-1.169-0.338-2.199,1.041-3.139,1.535c-0.014,0.008-0.03,0.015-0.044,0.023
		c0.276-0.585,0.358-1.199,0.398-1.942c0.119-2.185,4.841-3.106,6.626-3.927c2.32-1.068,3.577-3.409,6.427-1.801
		c0.77,0.434,1.404,0.627,2.065,0.636l0.015,0.059c-0.458,0.138-0.873,0.276-1.181,0.365c-0.763,0.221-1.977,0.528-2.098,1.454
		c-0.015,0.114,0.121,0.149,0.201,0.115c0.85-0.36,1.801-0.662,2.711-0.819c0.732-0.126,1.459-0.279,2.188-0.417
		c0.709-0.134,1.197-0.032,1.734-0.487c0.031-0.026,0.049-0.057,0.06-0.089c2.9-0.525,5.854-0.794,8.824-0.794
		c11.351,0,22.428,3.957,31.188,11.142l0.019-0.023c0.177,0.161,0.356,0.318,0.528,0.488c0.93,0.924,1.607,1.993,2.69,2.762
		c0.127,0.089,0.281-0.083,0.206-0.206c-0.333-0.544-0.554-1.132-0.841-1.698c-0.3-0.591-0.825-1.1-1.269-1.587
		c0.828,0.136,1.59-0.057,2.546-0.184c1.752-0.233,4.031,4.731,5.303,5.812c1.628,1.385,3.671,2.645,3.095,5.098
		c-0.304,1.297-0.36,2.14,0.046,3.109c-0.598-0.907-1.216-1.756-1.965-2.565c-0.049-0.054-0.123,0.015-0.095,0.075
		c0.528,1.137,1,2.291,1.574,3.409c0.399,0.777,0.799,1.687,1.393,2.372c3.144,6.587,4.797,13.854,4.797,21.211
		C155.388,74.347,144.777,91.311,127.696,99.63z"/>
	<g>
		<path fill="none" d="M85.265,14.97c0.019,0.132,0.021,0.254,0.016,0.373c0.142-0.145,0.297-0.276,0.47-0.382
			c0.001,0,0.001,0,0.002-0.001c0.053-0.136,0.107-0.272,0.152-0.413c-0.274,0.029-0.553,0.1-0.817,0.205
			C85.177,14.786,85.249,14.853,85.265,14.97z"/>
		<path fill="none" d="M86.302,17.284c-0.054,0.14-0.103,0.281-0.14,0.428c0.117-0.064,0.233-0.128,0.347-0.196
			C86.417,17.468,86.343,17.384,86.302,17.284z"/>
		<path fill="none" d="M85.15,17.894c-0.056,0.131-0.107,0.265-0.155,0.398c0.071-0.033,0.142-0.066,0.213-0.1
			C85.169,18.099,85.153,17.998,85.15,17.894z"/>
		<path fill="none" d="M86.882,14.83c0.017-0.049,0.047-0.087,0.088-0.111c-0.171-0.096-0.369-0.156-0.585-0.177
			c-0.006,0.051-0.019,0.099-0.027,0.15C86.532,14.548,86.837,14.563,86.882,14.83z"/>
		<path fill="none" d="M73.911,58.512c0.004-0.018,0.013-0.033,0.019-0.05c-0.023,0.016-0.047,0.027-0.07,0.043
			c-0.036,0.026-0.067,0.053-0.101,0.079c0.009,0.006,0.019,0.012,0.028,0.018C73.827,58.571,73.866,58.538,73.911,58.512z"/>
		<path fill="none" d="M75.166,62.796c-0.121,0.03-0.246,0.047-0.375,0.053c0.036,0.078,0.078,0.153,0.121,0.227
			C74.97,62.96,75.061,62.863,75.166,62.796z"/>
		<path fill="none" d="M84.516,17.38c0.047-0.085,0.095-0.169,0.143-0.253c-0.011-0.007-0.024-0.009-0.033-0.017
			c-0.047,0.101-0.089,0.203-0.13,0.306C84.502,17.404,84.509,17.391,84.516,17.38z"/>
		<path fill="none" d="M87.484,16.724c-0.044-0.072-0.062-0.162-0.037-0.266c0.137-0.558,0.103-0.972-0.039-1.275
			c0.092,0.585,0.104,1.233-0.131,1.766C87.34,16.884,87.41,16.809,87.484,16.724z"/>
		<path fill="none" d="M71.688,41.645c-0.071-0.043-0.138-0.092-0.202-0.15c0.053,0.074,0.104,0.148,0.156,0.222
			C71.659,41.694,71.672,41.668,71.688,41.645z"/>
		<path fill="none" d="M77.141,63.168c-0.017,0.017-0.036,0.034-0.055,0.048c-0.095,0.066-0.194,0.106-0.296,0.129
			c0.224-0.005,0.449-0.07,0.657-0.181C77.344,63.173,77.242,63.173,77.141,63.168z"/>
		<path fill="none" d="M79.808,18.261c0.004-0.03,0.009-0.059,0.015-0.088c-0.169,0.166-0.323,0.346-0.421,0.544
			c0.013,0.071,0.031,0.134,0.048,0.198C79.545,18.679,79.65,18.449,79.808,18.261z"/>
		<path fill="none" d="M70.915,40.541c0,0.003,0,0.006,0,0.008c0.001,0.003,0.003,0.006,0.005,0.01
			C70.918,40.554,70.917,40.547,70.915,40.541z"/>
		<path fill="none" d="M80.427,19.88c-0.051-0.094-0.066-0.206-0.016-0.335c0.001-0.004,0.003-0.008,0.004-0.011
			c-0.071-0.039-0.129-0.097-0.166-0.171c-0.025,0.004-0.049,0.011-0.075,0.01c-0.014,0.04-0.029,0.079-0.043,0.118
			c0.006,0.014,0.013,0.026,0.019,0.04c0.041,0.1,0.018,0.201-0.036,0.295C80.21,19.861,80.313,19.881,80.427,19.88z"/>
		<path fill="none" d="M81.53,19.618c0,0.001,0,0.001-0.001,0.001c-0.019,0.04-0.049,0.069-0.079,0.095
			c0.038-0.009,0.076-0.018,0.114-0.027C81.55,19.665,81.54,19.642,81.53,19.618z"/>
		<path fill="none" d="M81.126,17.368c0.024-0.1,0.052-0.198,0.074-0.299c-0.088,0.058-0.173,0.118-0.258,0.178
			c-0.004,0.05-0.017,0.101-0.055,0.152c-0.113,0.157-0.174,0.352-0.211,0.551c0.064-0.096,0.129-0.19,0.193-0.276
			C80.947,17.568,81.034,17.465,81.126,17.368z"/>
		<path fill="none" d="M83.249,15.848c-0.313,0.175-0.625,0.35-0.932,0.533c-0.092,0.055-0.185,0.111-0.278,0.166
			c0.004,0.124,0.007,0.247,0.003,0.37c0.113,0.056,0.161,0.204,0.058,0.322c-0.031,0.036-0.058,0.075-0.087,0.112
			c-0.009,0.079-0.022,0.157-0.034,0.235c0.003,0.252-0.064,0.502-0.143,0.747c0.169-0.325,0.378-0.632,0.59-0.936
			C82.781,16.888,83.029,16.398,83.249,15.848z"/>
		<path fill="none" d="M82.486,19.405c0.224-0.081,0.447-0.169,0.667-0.263c-0.061-0.462,0.081-0.973,0.246-1.431
			C83.035,18.265,82.639,18.815,82.486,19.405z"/>
		<path fill="none" d="M84.039,16.433c0.288-0.441,0.574-0.891,0.561-1.373c-0.001-0.027,0.008-0.049,0.014-0.073
			c-0.059,0.036-0.118,0.071-0.173,0.11c-0.139,0.111-0.284,0.213-0.433,0.309c0.019,0.03,0.035,0.064,0.045,0.104
			C84.135,15.832,84.116,16.137,84.039,16.433z"/>
		<path fill="none" d="M107.4,62.206c0.005,0.011,0.009,0.022,0.014,0.033c-0.002-0.012-0.005-0.023-0.007-0.035
			C107.405,62.204,107.403,62.205,107.4,62.206z"/>
		<path fill="none" d="M115.181,47.969c0.038,0.009,0.079,0.017,0.118,0.026c-0.789-0.34-1.54-0.775-2.119-1.347
			C113.677,47.294,114.359,47.779,115.181,47.969z"/>
		<path fill="none" d="M111.497,75.59c0,0.001-0.001,0.001-0.001,0.002c0.001,0,0.004,0,0.005,0.001
			C111.5,75.592,111.498,75.59,111.497,75.59z"/>
		<path fill="none" d="M106.498,29.138c-0.013-0.043-0.025-0.088-0.042-0.128c-0.072-0.019-0.145-0.041-0.216-0.059
			c-0.002-0.001-0.005,0-0.007-0.001c-0.017,0.091-0.028,0.183-0.035,0.275c0.044-0.029,0.084-0.061,0.138-0.084
			C106.387,29.119,106.443,29.124,106.498,29.138z"/>
		<path fill="none" d="M105.287,32.116c-0.256-0.034-0.501-0.125-0.718-0.263c-0.082,0.042-0.167,0.074-0.255,0.099
			c0.061,0.054,0.118,0.114,0.169,0.179C104.748,32.131,105.02,32.117,105.287,32.116z"/>
		<path fill="none" d="M104.829,30.445c0.005-0.004,0.008-0.005,0.013-0.009c0.001-0.001,0.003-0.003,0.005-0.004
			c-0.006-0.019-0.012-0.036-0.016-0.055c-0.032,0.019-0.066,0.034-0.101,0.042c0.011,0.009,0.022,0.019,0.035,0.026
			C104.785,30.445,104.807,30.445,104.829,30.445z"/>
		<path fill="none" d="M75.129,95.361c0.333,0.77,0.628,1.562,1.032,2.299c0.862,1.572,1.866,2.224,3.37,3.092
			c2.011,1.162,3.239,1.633,5.294,0.532c-2.646-1.233-5.2-2.694-7.628-4.392C76.491,96.4,75.805,95.885,75.129,95.361z"/>
		<path fill="none" d="M79.111,60.173c0.048,0.03,0.096,0.062,0.144,0.093c-0.085-0.216-0.188-0.42-0.307-0.613
			c-0.001,0.027-0.004,0.054-0.005,0.08c0.031,0.09,0.052,0.181,0.059,0.273C79.042,60.06,79.074,60.118,79.111,60.173z"/>
		<path fill="none" d="M59.604,35.501c1.514-3.547,3.426-6.917,5.707-10.038c-0.443,0.25-0.889,0.496-1.33,0.748
			c-1.527,0.874-2.24,2.119-3.227,3.511c-1.117,1.575-2.545,3.331-1.404,5.325C59.441,35.206,59.526,35.355,59.604,35.501z"/>
		<path fill="none" d="M112.281,5.099c-0.011-0.021-0.026-0.039-0.036-0.061c-0.947-2.038-2.98-1.179-4.654-1.1
			c-0.821,0.039-2.002-0.322-2.762-0.002c-0.705,0.296-1.028,0.569-1.343,0.86c0.894-0.047,1.79-0.076,2.688-0.076
			C108.222,4.72,110.26,4.853,112.281,5.099z"/>
		<path fill="none" d="M106.794,61.206c0.098,0.133,0.196,0.274,0.289,0.421c0.057-0.005,0.114-0.01,0.169-0.011
			c-0.065-0.169-0.162-0.326-0.283-0.472C106.914,61.172,106.855,61.192,106.794,61.206z"/>
		<path fill="none" d="M70.602,42.574c-0.083-0.034-0.161-0.076-0.231-0.13c0.038,0.058,0.072,0.116,0.112,0.173
			C70.523,42.603,70.562,42.589,70.602,42.574z"/>
		<path fill="none" d="M110.838,75.136c-0.032,0.024-0.064,0.046-0.098,0.067c0.052-0.014,0.104-0.026,0.155-0.033
			C110.875,75.159,110.856,75.147,110.838,75.136z"/>
		<path fill="none" d="M106.491,64.511c-0.036,0.026-0.076,0.048-0.116,0.069c0.265,0.109,0.515,0.082,0.71-0.173
			c-0.009-0.024-0.02-0.049-0.03-0.075C106.901,64.466,106.696,64.524,106.491,64.511z"/>
		<path fill="none" d="M91.338,63.867c0.009,0.02,0.018,0.04,0.027,0.06c-0.007-0.034-0.015-0.068-0.022-0.102
			C91.34,63.839,91.34,63.853,91.338,63.867z"/>
		<path fill="none" d="M111.193,76.434c-0.364,0.001-0.783,0.006-1.14,0.123c-0.04,0.159-0.017,0.331,0.066,0.506
			c0.5-0.565,1.482-0.686,2.229-0.536c-0.138-0.212-0.296-0.41-0.475-0.594C111.958,76.304,111.468,76.433,111.193,76.434z"/>
		<path fill="none" d="M105.908,60.343c0.052,0.125,0.037,0.282-0.056,0.378c0.005,0.002,0.009,0.004,0.014,0.006
			c0.19-0.013,0.399-0.04,0.604-0.04C106.292,60.56,106.105,60.443,105.908,60.343z"/>
		<path fill="none" d="M106.738,62.945c-0.004-0.015-0.009-0.03-0.014-0.044c-0.003-0.001-0.007-0.001-0.01-0.003
			c-0.003,0.044-0.007,0.088-0.015,0.13c0.019-0.003,0.038-0.006,0.056-0.009C106.75,62.995,106.744,62.966,106.738,62.945z"/>
		<path fill="none" d="M112.62,77.296c-0.048,0.01-0.101,0.009-0.152,0.014c0.122,0.043,0.233,0.102,0.318,0.181
			c-0.021-0.079-0.046-0.156-0.072-0.233C112.686,77.273,112.656,77.288,112.62,77.296z"/>
		<path fill="none" d="M131.271,71.522c0.289-0.034,0.57-0.08,0.844-0.141c-0.289,0.039-0.58,0.061-0.868,0.063
			C131.258,71.469,131.266,71.495,131.271,71.522z"/>
		<path fill="none" d="M133.109,64.287c-0.097,1.144-0.476,2.251-1.553,2.824c-0.451,0.24-1.126,0.507-1.783,0.604
			c0.021,0.022,0.041,0.043,0.062,0.065c0.631-0.129,1.314-0.017,1.969-0.082c0.731-0.462,1.396-1.039,1.598-1.871
			c0.017-0.162,0.036-0.326,0.061-0.491c0.001-0.033,0.004-0.065,0.003-0.099c-0.001-0.042,0.014-0.075,0.034-0.104
			c0.009-0.044,0.018-0.089,0.029-0.133c0.029-0.111,0.106-0.176,0.196-0.2c-0.194-0.2-0.4-0.383-0.62-0.545
			C133.106,64.266,133.11,64.276,133.109,64.287z"/>
		<path fill="none" d="M69.637,40.822c-0.047-0.066-0.094-0.132-0.138-0.202c0.064,0.194,0.134,0.384,0.211,0.57
			C69.681,41.065,69.657,40.941,69.637,40.822z"/>
		<path fill="none" d="M135.264,67.015c-0.041-0.034-0.078-0.072-0.104-0.124c-0.275-0.542-0.594-1.074-0.965-1.553
			c0.226,0.841,0.348,1.751-0.034,2.458C134.541,67.577,134.907,67.315,135.264,67.015z"/>
		<path fill="none" d="M130.223,63.962c-0.113,0.079-0.221,0.159-0.325,0.238c0.329-0.024,0.635-0.083,0.93-0.208
			C130.626,63.976,130.424,63.963,130.223,63.962z"/>
		<path fill="none" d="M135.808,67.036c0.03,0.069,0.034,0.152-0.013,0.241c-0.203,0.382-0.441,0.729-0.707,1.04
			c0.121,0.079,0.188,0.232,0.098,0.398c-0.076,0.14-0.164,0.27-0.257,0.395c0.282-0.12,0.564-0.248,0.849-0.393
			c0.173-0.087,0.325,0.085,0.251,0.251c-0.143,0.323-0.35,0.615-0.598,0.877c-0.003,0.03-0.011,0.056-0.015,0.086
			c0.443-0.386,0.773-0.885,0.983-1.445c0.03-0.08,0.081-0.132,0.141-0.161c-0.149-0.482-0.361-0.949-0.62-1.391
			C135.889,66.975,135.851,67.009,135.808,67.036z"/>
		<path fill="none" d="M130.234,65.17c-0.031,0.008-0.061,0.019-0.093,0.024c-0.235,0.044-0.607,0.12-0.943,0.108
			c0.003,0.009,0.01,0.016,0.011,0.026c0.283-0.008,0.56-0.016,0.785-0.077C130.076,65.229,130.156,65.2,130.234,65.17z"/>
		<path fill="none" d="M130.268,66.346c0.175-0.026,0.347-0.059,0.505-0.114c0.954-0.336,1.603-1.026,1.857-2.009
			c0.022-0.086,0.084-0.136,0.156-0.157c-0.118-0.057-0.237-0.113-0.359-0.164c-0.032,0.026-0.067,0.048-0.111,0.059
			c-0.049,0.012-0.097,0.016-0.146,0.026c-0.002,0.018-0.001,0.034-0.008,0.053c-0.328,0.893-0.675,1.75-1.596,2.181
			C130.479,66.26,130.378,66.303,130.268,66.346z"/>
		<path fill="none" d="M126.676,66.335c-0.152,0.791-0.164,1.605-0.04,2.396c0.044-0.06,0.099-0.101,0.164-0.113
			c-0.029-1.192,0.184-2.392,0.699-3.467c0.059-0.122,0.127-0.253,0.203-0.389C127.196,65.122,126.813,65.624,126.676,66.335z"/>
		<path fill="none" d="M128.674,71.144c0.01,0.022,0.02,0.045,0.031,0.067c0.179,0.115,0.373,0.2,0.579,0.26
			c-0.171-0.103-0.339-0.208-0.508-0.315C128.744,71.161,128.71,71.158,128.674,71.144z"/>
		<path fill="none" d="M150.899,79.113c0.299-0.129,0.617-0.219,0.957-0.254c2.555-0.265,2.274-2.793,2.862-4.76
			c0.24-0.801,0.845-1.649,0.961-2.464c0.182-1.27-0.284-1.984-0.643-2.977C154.053,72.278,152.67,75.785,150.899,79.113z"/>
		<path fill="none" d="M67.615,41.458c-0.268-0.508-0.481-1.062-0.499-1.619c-0.044-0.176-0.079-0.35-0.107-0.52
			c-0.017,0.686,0.119,1.365,0.521,2.005C67.557,41.368,67.587,41.414,67.615,41.458z"/>
		<path fill="none" d="M70.733,85.615c-0.368-0.454-0.735-0.935-1.074-1.436c0.31,0.534,0.657,1.052,1.071,1.503
			c0.096,0.085,0.194,0.168,0.283,0.263c0.002,0.003,0.002,0.006,0.004,0.009c0.092,0.068,0.185,0.133,0.281,0.196
			C71.07,85.974,70.874,85.788,70.733,85.615z"/>
		<path fill="none" d="M150.591,34.148c-0.594-0.685-0.994-1.596-1.393-2.372c-0.574-1.118-1.046-2.271-1.574-3.409
			c-0.028-0.06,0.046-0.129,0.095-0.075c0.749,0.809,1.367,1.659,1.965,2.565c-0.406-0.969-0.351-1.812-0.046-3.109
			c0.576-2.452-1.467-3.713-3.095-5.098c-1.271-1.08-3.55-6.045-5.303-5.812c-0.957,0.127-1.719,0.32-2.546,0.184
			c0.443,0.487,0.968,0.996,1.269,1.587c0.287,0.566,0.508,1.154,0.841,1.698c0.076,0.123-0.079,0.295-0.206,0.206
			c-1.083-0.768-1.76-1.838-2.69-2.762c-0.171-0.17-0.351-0.327-0.528-0.488l-0.019,0.023c-8.761-7.185-19.837-11.142-31.188-11.142
			c-2.97,0-5.924,0.269-8.824,0.794c-0.011,0.032-0.029,0.063-0.06,0.089c-0.536,0.455-1.025,0.352-1.734,0.487
			c-0.729,0.138-1.457,0.291-2.188,0.417c-0.911,0.157-1.862,0.459-2.711,0.819c-0.079,0.034-0.216-0.002-0.201-0.115
			c0.121-0.926,1.335-1.233,2.098-1.454c0.308-0.089,0.723-0.227,1.181-0.365L93.72,6.757c-0.661-0.009-1.296-0.202-2.065-0.636
			c-2.85-1.607-4.107,0.733-6.427,1.801c-1.784,0.822-6.507,1.743-6.626,3.927c-0.04,0.743-0.123,1.357-0.398,1.942
			c0.014-0.008,0.03-0.015,0.044-0.023c0.94-0.494,1.97-1.874,3.139-1.535c0.199,0.057,0.194,0.338,0,0.397
			c-0.623,0.191-0.962,0.927-1.403,1.349c-0.421,0.402-0.918,0.728-1.419,1.022c-0.637,0.373-1.304,0.729-1.863,1.216
			c-0.372,0.323-0.583,0.576-1.06,0.707c-0.07,0.019-0.142,0.019-0.211,0.006c-11.62,9.311-18.472,23.449-18.472,38.43
			c0,0.613,0.011,1.228,0.033,1.827l-0.058,0.002c0.054,0.784,0.066,1.577,0.198,2.349c0.191,1.122-0.038,2.404,0.413,3.464
			c0.107,0.251-0.22,0.461-0.374,0.219c-0.65-1.017-0.733-2.269-0.995-3.42c-0.122-0.538-0.245-1.1-0.331-1.668
			c-0.155,0.242-0.336,0.487-0.564,0.747c-2.215,2.523-0.106,4.144,0.471,6.671c0.396,1.735,0.281,6.662,2.286,7.207
			c0.549,0.149,1.038,0.296,1.478,0.518c-0.379-0.823-0.859-1.588-0.561-2.5c0.056-0.17,0.318-0.19,0.364,0
			c0.266,1.102,1.003,2.127,1.477,3.151c0.354,0.766,0.923,1.549,0.844,2.399c8.05,17.032,25.515,28.249,44.533,28.249
			c2.82,0,5.646-0.241,8.402-0.715l0.011,0.061c0.229-0.029,0.455-0.064,0.673-0.118c1.103-0.267,2.316-0.725,3.457-0.64
			c0.179,0.012,0.254,0.241,0.093,0.342c-0.718,0.446-1.47,0.804-2.257,1.082c0.383,0.176,0.752,0.418,1.108,0.767
			c1.648,1.61,3.524-0.243,5.205-0.962c1.242-0.533,2.982-0.622,3.759-1.92c0.378-0.631,0.711-1.283,1.103-1.904
			c-0.126,0.039-0.251,0.079-0.376,0.116c-0.897,0.266-1.867,0.348-2.786,0.525c-0.091,0.017-0.175-0.056-0.151-0.15
			c0.265-1.013,1.597-0.819,2.38-1.083c0.297-0.101,0.599-0.218,0.904-0.338l-0.003-0.006c17.081-8.319,27.692-25.283,27.692-44.271
			C155.388,48.001,153.735,40.734,150.591,34.148z M141.506,26.642c1.038-0.344,1.92-0.063,2.807,0.531
			c1.049,0.702,1.456,1.964,2.443,2.722c0.241,0.186,0.029,0.594-0.248,0.423c-1.082-0.672-1.86-1.917-2.982-2.468
			c-0.936-0.46-2.108-0.512-2.623,0.616c-0.505,1.105,0.179,1.683,0.326,2.667c0.036,0.241-0.199,0.509-0.449,0.345
			C138.989,30.307,139.488,27.31,141.506,26.642z M135.9,45.836c1.614-1.508,3.262,0.33,3.493,1.939
			c0.026,0.185-0.19,0.368-0.344,0.2c-0.416-0.452-0.558-1.149-1.013-1.55c-0.845-0.745-1.811,0.34-1.99,1.071
			c-0.215,0.884-0.171,1.896,0.234,2.728c0.398,0.815,0.956,1.838,1.741,2.34c1.26,0.806,0.646-2.379,0.518-2.901
			c-0.067-0.275,0.25-0.585,0.516-0.396c1.385,0.99,1.746,4.369-0.329,4.838c-1.628,0.368-2.966-2.113-3.477-3.279
			C134.557,49.247,134.571,47.078,135.9,45.836z M132.1,21.568c-0.488,3.238-5.107,1.942-7.024,1.184
			c-2.262-0.894-6.622-3.403-7.432-6.007c-0.279-0.898-0.186-1.974,0.766-2.472c1.817-0.95,2.814-0.363,4.671,0.135
			c0.306,0.082,0.177,0.541-0.13,0.472c-0.732-0.157-1.47-0.269-2.215-0.335c-0.281,0.122-0.532,0.244-0.756,0.368
			c0.069-0.004,0.141,0.012,0.21,0.054c0.29,0.178,0.36,0.303,0.78,0.502c0.119,0.056,0.031,0.226-0.086,0.203
			c-1.323-0.273-0.457-0.076-0.453-0.048c0.027,0.269,0.081,0.533,0.162,0.791c0.071,0.188,0.16,0.362,0.256,0.531
			c-0.075-0.256-0.101-0.52-0.035-0.788c0.07-0.286,0.441-0.186,0.472,0.064c0.084,0.651,0.529,1.225,1.017,1.681
			c-0.504-0.598-0.913-1.282-1.038-2.027c-0.031-0.188,0.231-0.334,0.329-0.139c0.261,0.515,0.59,0.978,0.967,1.402
			c0.008-0.158,0.192-0.288,0.335-0.141c0.475,0.484,0.975,0.944,1.515,1.354c-0.168-0.175-0.339-0.348-0.502-0.528
			c-0.192-0.213,0.1-0.503,0.313-0.313c0.575,0.512,1.176,0.98,1.804,1.423c0.089,0.063,0.197,0.124,0.312,0.186
			c-0.118-0.107-0.23-0.209-0.336-0.29c-0.491-0.381-0.999-0.792-1.368-1.296c-0.123-0.167,0.05-0.383,0.229-0.382
			c-0.15-0.332,0.31-0.612,0.505-0.287c0.161,0.269,0.369,0.48,0.599,0.666c1.137,0.609,2.445,1.644,2.398,2.896
			c-0.008,0.214-0.143,0.418-0.36,0.472c-2.073,0.515-4.409-0.567-6.134-1.686c-1.39-0.902-2.366-2.187-2.266-3.91
			c0.005-0.079,0.033-0.151,0.076-0.213c-1.214,0.769-1.35,1.584-0.407,2.444c0.545,0.575,1.117,1.078,1.754,1.55
			c1.532,1.135,3.174,2.346,5.021,2.916c0.957,0.295,2.115,0.7,3.132,0.617c1.826-0.15,1.851-2.255,0.78-3.393
			c-1.185-1.26-2.544-2.034-3.993-2.921c-0.391-0.239-0.132-0.827,0.306-0.726C128.363,16.055,132.488,18.996,132.1,21.568z
			 M120.588,49.495c-2.916,0.612-6.952,0.309-9.207-1.968c-1.247-1.259-2.276-4.658-0.124-5.547
			c0.256-0.106,0.428,0.187,0.397,0.397c-0.148,1.012-0.523,2.27-0.049,3.28c-0.129-0.508-0.12-1.028,0.126-1.519
			c0.83-1.657,2.502-1.646,4.095-1.243c0.179,0.046,0.193,0.338,0,0.376c-0.173,0.033-0.373,0.062-0.588,0.093
			c0.097,0.377-0.735,0.689-0.791,0.984c-0.156,0.84,1.184,1.428,1.79,1.683c0.734,0.308,1.557,0.174,2.288,0.471
			c0.159,0.065,0.256,0.326,0.054,0.417c-0.243,0.11-0.486,0.18-0.729,0.235c0.801,0.018,1.647-0.079,2.067-0.403
			c0.164-0.126,0.382,0.026,0.289,0.223c-0.511,1.069-1.789,1.392-3.074,1.312c0.001,0.016-0.001,0.033-0.005,0.049
			c0.991,0.125,2.008,0.129,2.894-0.19c0.897-0.323,1.114-1.007,1.784-1.564c0.142-0.119,0.318-0.035,0.341,0.142
			c0.159,1.232-0.45,1.98-1.419,2.383C120.812,49.237,120.764,49.458,120.588,49.495z M114.41,50.101
			c-0.892,0.333-1.841,0.073-2.616-0.445c-0.596-0.399-1.637-1.227-1.347-2.058c0.046-0.133,0.188-0.241,0.335-0.19
			c0.344,0.12,0.471,0.364,0.717,0.62c0.3,0.313,0.613,0.624,0.996,0.836c0.619,0.343,1.317,0.551,1.967,0.831
			C114.658,49.779,114.566,50.043,114.41,50.101z M117.893,12.611c0.252,0.008,0.248,0.372,0,0.388
			c-1.887,0.126-2.21,2.24-1.357,3.591c0.476,0.756,1.053,1.419,1.745,1.987c1.034,0.849,2.36,1.472,3.181,2.548
			c0.099,0.131-0.064,0.291-0.199,0.258c-2.247-0.556-4.621-2.757-5.639-4.791C114.723,14.795,115.761,12.546,117.893,12.611z
			 M116.723,11.726c0.031,0,0.031,0.047,0,0.047C116.693,11.773,116.693,11.726,116.723,11.726z M101.355,9.231
			c1.773-1.259,3.862-1.283,5.953-1.157c2.008,0.122,4.142-0.023,6.041,0.743c0.481,0.194,0.97,0.431,1.463,0.665
			c0.225-0.001,0.453,0.007,0.692,0.042c0.139,0.02,0.163,0.228,0.055,0.301c0.545,0.241,1.095,0.454,1.648,0.575
			c1.334,0.292,2.675,0.355,4.026,0.516c2.058,0.245,4.228,0.932,6.199,1.564c0.481,0.154,0.283,0.849-0.207,0.751
			c-2.554-0.51-5.09-1.242-7.689-1.443c-1.556-0.121-2.895-0.378-4.339-1.005c-0.41-0.178-0.81-0.327-1.205-0.462
			c-0.544,0.059-1.096-0.001-1.811-0.14c-1.748-0.341-4.241-0.997-5.747,0.297c-0.21,0.181-0.503-0.103-0.306-0.307
			c0.428-0.447,0.916-0.739,1.441-0.923c-0.088-0.007-0.171-0.013-0.26-0.019c-2.053-0.152-3.792,0.436-5.776,0.656
			C101.151,9.927,101.104,9.41,101.355,9.231z M101.459,25.745c0.136-0.129,0.383-0.003,0.325,0.189
			c-0.572,1.855-1.816,4.134-0.697,6.055c0.165,0.282,0.363,0.535,0.588,0.759c-0.798-1.68-0.457-4.188,0.663-5.6
			c0.616-0.778,2.843-3.127,4.057-1.921c0.057,0.056,0.057,0.152,0,0.209c-0.466,0.462-0.783,0.413-1.381,0.737
			c-0.645,0.35-1.351,1.077-1.731,1.704c-0.021,0.036-0.038,0.07-0.059,0.106c0.003-0.003,0.007-0.005,0.01-0.007
			c0.041-0.056,0.076-0.116,0.119-0.172c0.582-0.755,1.344-1.364,2.291-1.57c0.945-0.205,1.407,0.305,2.013,0.907
			c0.139,0.137-0.044,0.386-0.211,0.274c-0.336-0.225-0.689-0.294-1.038-0.259c0.395,0.167,0.747,0.519,1.013,1.117
			c0.084,0.185-0.093,0.336-0.256,0.252c0.123,0.226,0.208,0.484,0.248,0.779c0.119,0.879-0.144,2.099-0.977,2.583
			c-0.269,0.156-0.558,0.228-0.845,0.238c0.211,0.013,0.414,0.043,0.602,0.109c0.096,0.033,0.144,0.158,0.062,0.236
			c-0.905,0.869-2.673,1.031-3.681,0.242c-0.022-0.017-0.038-0.037-0.058-0.055c-0.009,0.088-0.017,0.176-0.028,0.265
			c-0.018,0.144-0.111,0.252-0.223,0.301c0.749,0.51,1.669,0.792,2.613,0.863c0.325-0.308,0.613-0.305,1.12-0.487
			c0.99-0.358,1.744-1.164,2.153-2.125c0.544-1.276,0.273-2.338,0.035-3.607c-0.109-0.581-0.113-0.488,0.011-1.064
			c0.034-0.164,0.307-0.171,0.336,0c0.316,1.854,1.254,4.103,0.022,5.876c-0.215,0.311-0.475,0.638-0.766,0.942
			c0.06-0.026,0.122-0.049,0.18-0.077c0.23-0.111,0.503,0.184,0.289,0.374c-2.067,1.816-6.135,1.641-7.758-0.748
			C98.998,30.969,99.549,27.548,101.459,25.745z M112.887,78.02c-0.021,0.02-0.047,0.035-0.074,0.043
			c-0.318,0.092-0.57-0.132-0.88-0.145c-0.304-0.012-0.647-0.008-0.838,0.269c-0.194,0.279-0.591,0.042-0.451-0.264
			c0.165-0.364,0.54-0.617,0.936-0.695c-0.445-0.068-0.88-0.103-1.182,0.197c-0.086,0.085-0.205,0.073-0.291,0.017
			c-0.111,0.105-0.307,0.125-0.417-0.043c-0.149-0.225-0.221-0.476-0.226-0.725c-0.104-0.006-0.214-0.082-0.224-0.201
			c-0.042-0.484,0.169-1.027,0.501-1.379c0.097-0.103,0.221-0.212,0.356-0.303c-0.326,0.065-0.655,0.124-0.877,0.389
			c-0.483,0.579-0.557,1.884-0.267,2.542c0.123,0.279-0.157,0.698-0.472,0.472c-0.53-0.38-0.644-0.988-0.59-1.617
			c0.043-0.482,0.075-1.057,0.264-1.53c-0.04-0.001-0.082-0.002-0.124-0.004c-0.162,0.217-0.28,0.466-0.327,0.744
			c-0.11,0.644-0.425,2.129,0.151,2.594c0.164,0.132-0.012,0.423-0.206,0.353c-0.523-0.188-0.816-0.603-0.856-1.163
			c-0.041-0.543-0.074-1.221,0.013-1.811c-0.113,0.146-0.216,0.304-0.301,0.494c-0.444,1.005-0.527,2.155,0.416,2.902
			c0.212,0.167-0.06,0.5-0.283,0.367c-1.3-0.776-1.456-2.269-0.92-3.601c0.086-0.213,0.215-0.463,0.374-0.714
			c-0.221,0.049-0.438,0.108-0.647,0.181c-0.348,1.162-0.78,2.162-0.188,3.382c0.307,0.633,0.63,1.472,1.265,1.835
			c0.119,0.068,0.097,0.261-0.039,0.294c-1.076,0.267-1.784-0.962-2.131-1.862c-0.01,0.187-0.039,0.368-0.105,0.534
			c-0.076,0.192-0.238,0.266-0.385,0.243c0.504,0.893,1.293,1.548,1.889,2.518c0.122,0.199-0.037,0.448-0.26,0.452
			c-0.291,0.006-0.567-0.042-0.826-0.135c-0.008,0.159-0.193,0.291-0.354,0.255c-2.002-0.438-3.968-3.045-3.371-5.162
			c0.644-2.287,2.822-3.983,5.14-4.386c0.926-0.161,2.031-0.228,3.109-0.101c0.18-0.011,0.358,0.015,0.532,0.081
			c1.16,0.214,2.245,0.679,2.977,1.535c1.582,1.849,2.028,4.175,0.099,5.898c-0.225,0.201-0.545-0.049-0.41-0.317
			C112.829,79.568,112.97,78.751,112.887,78.02z M107.451,65.461c-1.692,0.814-3.953-1.281-3.578-3.011
			c0.084-0.386,0.577-0.301,0.697,0c0.101,0.252,0.447,0.834,0.866,1.336c0.007-0.009,0.015-0.018,0.022-0.028
			c-0.151-0.09-0.219-0.273-0.124-0.409c-0.171-0.228-0.283-0.498-0.323-0.803c-0.047-0.366,0.523-0.412,0.623-0.084
			c0.041,0.134,0.113,0.238,0.196,0.324c0.012-0.184,0.02-0.37,0.033-0.557c0.007-0.094,0.049-0.158,0.106-0.198
			c0.001-0.01,0.001-0.02,0.001-0.03c-0.294-0.318-0.645-0.495-1.117-0.557c-0.315-0.042-0.392-0.38-0.218-0.549
			c-0.034-0.004-0.068-0.008-0.101-0.011c-0.194-0.019-0.419-0.055-0.613-0.032c-0.119,0.014-0.205,0.079-0.335,0.07
			c-0.195-0.014-0.249-0.316-0.165-0.453c0.13-0.211,0.374-0.416,0.623-0.469c0.228-0.049,0.53-0.084,0.828-0.074
			c-0.026-0.008-0.054-0.019-0.079-0.026c-0.525-0.16-1.174-0.353-1.712-0.135c-0.73,0.296-0.406,1.278,0.049,1.655
			c0.23,0.191-0.063,0.513-0.304,0.393c-0.763-0.378-1.217-1.253-1.064-2.087c0.149-0.819,1.306-1.145,2.002-1.083
			c1.509,0.134,3.955,1,4.458,2.616C108.582,62.404,108.817,64.803,107.451,65.461z M95.691,65.18
			c-0.283,0.566-0.693,0.932-1.174,1.137c-0.106,0.348-0.432,0.602-0.797,0.71c-0.411,0.636-1.541,0.648-2.132,0.255
			c-0.798-0.531-1.216-1.411-1.362-2.338c-0.024-0.152-0.037-0.318-0.044-0.49c-0.159-0.49-0.146-0.986,0.196-1.393
			c0.108-0.288,0.26-0.549,0.48-0.743c0.476-0.418,1.05-0.797,1.717-0.752c0.65,0.043,1.137,0.398,1.736,0.609
			c0.269,0.094,0.163,0.492-0.119,0.429c-0.348-0.078-0.803-0.117-1.247-0.077c0.004,0.124-0.045,0.248-0.168,0.313
			c-0.114,0.061-0.279,0.093-0.348,0.143c0.085-0.062-0.042,0.089-0.049,0.119c-0.061,0.242-0.014,0.558,0.075,0.83
			c0.094,0.289,0.185,0.599,0.416,0.813c0.157,0.147,0.506,0.235,0.652,0.169c0.155-0.07,0.378,0.086,0.259,0.259
			c-0.079,0.114-0.144,0.233-0.225,0.332c0.66,0.03,1.391-0.122,1.819-0.569C95.541,64.766,95.79,64.982,95.691,65.18z
			 M70.211,63.813c-0.01,0.349-0.423,0.418-0.612,0.165c-0.284-0.38-0.508-0.849-0.673-1.366c-0.081-0.033-0.156-0.084-0.214-0.16
			c-1.403-1.824-0.628-5.675,1.085-7.112c2.097-1.76,4.595-2.852,7.255-1.984c0.151,0.049,0.188,0.317,0,0.343
			c-1.424,0.202-2.815,0.476-4.085,1.072c0.784-0.184,1.616-0.24,2.455-0.184c0.272,0.018,0.258,0.377,0,0.411
			c-2.256,0.301-5.01,1.472-5.503,3.943C69.579,60.646,70.257,62.146,70.211,63.813z M71.094,61.604
			c0.057-0.92,0.258-1.718,0.626-2.356c0.302-0.925,0.959-1.715,2.07-2.183c2.876-1.21,6.682,0.339,6.965,3.743
			c0.097,1.168-0.43,2.568-1.301,3.59c0.633-0.347,1.17-0.852,1.488-1.532c0.822-1.758,0.287-3.684,0.228-5.54
			c-0.004-0.127,0.167-0.134,0.208-0.028c0.551,1.431,1.033,3.21,0.908,4.817c0.42-1.042,0.426-2.147,0.461-3.365
			c0.012-0.407,0.594-0.609,0.798-0.216c2.544,4.894-3.958,9.341-8.356,7.994C72.936,65.836,70.935,64.185,71.094,61.604z
			 M81.637,46.753c-0.105-1.756,1.165-4.005,3.137-3.793c0.272,0.029,0.273,0.394,0,0.423c-1.319,0.137-2.432,1.842-2.321,3.118
			c0.056,0.648,0.308,1.41,0.83,1.838c0.518,0.424,1.01,0.297,1.61,0.33c0.137,0.008,0.269,0.17,0.173,0.301
			C83.752,50.773,81.719,48.134,81.637,46.753z M84.573,30.681c-0.511,1.207-1.193,2.527-2.686,2.195
			c-0.098-0.022-0.066-0.155,0.022-0.164c1.344-0.133,1.758-1.975,2.184-3c0.368-0.887,1.041-1.753,1.727-2.421
			c1.374-1.337,3.516-2.671,5.496-2.032c0.249,0.08,0.261,0.44,0,0.515c-1.66,0.479-3.147,0.516-4.492,1.779
			C85.848,28.471,85.094,29.449,84.573,30.681z M94.699,15.974c0.243,0.93-0.446,1.783-1.096,2.375
			c-0.434,0.396-0.913,0.749-1.418,1.048c-0.307,0.181-0.691,0.453-1.06,0.337c-0.137-0.043-0.177-0.179-0.123-0.301
			c0.143-0.323,0.552-0.454,0.841-0.621c0.407-0.235,0.805-0.488,1.172-0.783c0.67-0.539,1.267-1.179,1.427-2.054
			C94.466,15.84,94.667,15.852,94.699,15.974z M82.821,15.053c1.299-0.726,2.795-2.259,4.379-1.331
			c0.652,0.382,1.092,1.03,1.182,1.713c0.462-0.883,0.567-1.776-0.73-1.829c-0.042-0.002-0.053-0.064-0.01-0.075
			c1.137-0.301,1.513,0.737,1.525,1.715c0.017,1.339-1.522,2.555-2.549,3.152c-1.933,1.123-5.946,3.78-7.985,1.747
			C76.717,18.232,81.768,15.642,82.821,15.053z M73.887,22.573c1.045,0.46,1.947,1.053,2.972,1.394
			c-0.429-0.329-0.077-0.943,0.424-0.725c0.031,0.013,0.061,0.022,0.092,0.034c-0.035-0.109-0.005-0.232,0.106-0.306
			c0.048-0.031,0.101-0.052,0.152-0.077c-1.444-0.131-2.375-0.838-1.701-2.732c0.062-0.174,0.326-0.199,0.377,0
			c1.002,3.919,7.211,0.72,9.307-0.433c2.079-1.145,5.763-2.567,6.351-5.083c0.006-0.022,0.042-0.024,0.046,0
			c0.169,0.944-0.065,1.661-0.585,2.288c1.424-0.951,3.198-2.176,1.359-3.003c-0.998-0.45-2.123-0.634-3.199-0.785
			c-1.403-0.197-3.214-0.544-4.634-0.329c-0.068,0.01-0.126-0.088-0.052-0.122c1.605-0.744,3.868-0.44,5.558-0.151
			c1.274,0.218,2.695,0.369,3.632,1.357c1.795,1.895-2.707,3.804-3.79,4.273c-0.088,0.038-0.187-0.009-0.218-0.085
			c-1.943,1.421-4.085,2.714-6.307,3.608c-0.618,0.248-2.066,0.728-3.568,1.007c1.15-0.078,2.469-0.206,3.45-0.822
			c0.123-0.076,0.221,0.107,0.11,0.19c-0.413,0.31-0.813,0.561-1.225,0.768c0.222-0.031,0.444-0.074,0.665-0.136
			c1.508-0.423,2.698-1.368,4.134-1.936c0.121-0.048,0.216,0.132,0.125,0.215c-1.239,1.129-2.568,1.881-3.992,2.323
			c0.015,0.003,0.027,0.011,0.04,0.018c0.068-0.024,0.137-0.043,0.204-0.067c1.523-0.541,3.225-1.065,4.539-2.043
			c0.985-0.732,1.767-1.652,2.712-2.425c0.093-0.076,0.223,0.046,0.134,0.135c-1.062,1.079-1.754,2.357-3.045,3.224
			c-1.472,0.989-3.123,1.83-4.809,2.395c-2.99,1.002-6.131,1.684-8.842-0.298c-0.076-0.055-0.122-0.126-0.153-0.201
			c-0.308-0.237-0.601-0.508-0.871-0.83C73.083,22.848,73.459,22.384,73.887,22.573z M66.52,36.758
			c0.152-0.373,0.345-0.732,0.584-1.065c1.04-1.448,2.791-2.7,4.524-1.625c0.049,0.031,0.027,0.103-0.029,0.106
			c-0.728,0.032-1.403,0.182-1.996,0.457c0.055,0.144-0.028,0.341-0.235,0.368c-0.211,0.028-0.445,0.352-0.66,0.753
			c0.088-0.021,0.182-0.032,0.288-0.019c0.303,0.039,0.324,0.481,0,0.488c-0.109,0.003-0.188,0.147-0.247,0.366
			c0.213-0.006,0.338,0.315,0.127,0.475c-0.094,0.072-0.175,0.149-0.245,0.231c-0.015,0.137-0.027,0.279-0.039,0.422
			c0.07-0.173,0.168-0.317,0.3-0.416c0.031-0.077,0.065-0.152,0.099-0.226c0.042-0.496,0.153-1.122,0.625-1.177
			c0.011-0.001,0.02,0.006,0.031,0.007c0.009-0.012,0.016-0.026,0.025-0.039c0.164-0.229,0.533-0.027,0.384,0.224
			c-0.216,0.367-0.385,0.73-0.52,1.09c0.012,0.002,0.022,0.001,0.034,0.004c0.337,0.071,0.238,0.557-0.077,0.574
			c-0.035,0.002-0.064,0.013-0.093,0.023c0.005,0.438,0.054,0.893,0.078,1.335c0.027,0.027,0.049,0.063,0.066,0.104
			c0.023-0.581,0.117-1.157,0.324-1.697c0.069-0.178,0.263-0.205,0.39-0.134c0.004-0.005,0.006-0.01,0.01-0.015
			c0.223-0.263,0.678,0.086,0.479,0.37c-0.398,0.568-0.343,1.324-0.136,2.018c0.059,0,0.114,0.019,0.164,0.046
			c-0.045-0.446-0.038-0.9-0.026-1.35c0.007-0.298,0.454-0.298,0.462,0c0.003,0.097,0.006,0.196,0.01,0.294
			c0.075-0.021,0.158-0.012,0.235,0.023c-0.001-0.023-0.006-0.047-0.007-0.07c-0.001-0.057,0.016-0.102,0.038-0.14
			c-0.049-0.198-0.083-0.4-0.082-0.603c0.001-0.387,0.53-0.401,0.618-0.068c0.083-0.017,0.169-0.006,0.243,0.034
			c0.075-0.093,0.205-0.115,0.311-0.066c0.047-0.129,0.173-0.183,0.294-0.167c0.005-0.036,0.008-0.069,0.012-0.105
			c0.042-0.334,0.565-0.481,0.642-0.087c0.26,1.327-0.147,2.959-0.913,4.257c-0.013,0.056-0.02,0.109-0.038,0.166
			c-0.144,0.46-0.33,0.879-0.629,1.26c-0.113,0.144-0.277,0.302-0.47,0.451c-0.544,0.641-1.605,0.844-2.417,0.705
			c-1.289-0.221-2.038-1.247-2.537-2.408C65.989,40.689,65.58,38.113,66.52,36.758z M64.007,39.789
			c0.154-0.323,0.62-0.143,0.633,0.171c0.044,1.171-0.161,2.311,0.487,3.379c0.454,0.747,1.045,1.402,1.793,1.866
			c1.543,0.957,3.329,1.173,4.818-0.073c0.113-0.095,0.311,0.029,0.217,0.168C69.104,49.556,62.018,43.957,64.007,39.789z
			 M60.247,61.996c-0.131-0.773,0.358-1.697,0.258-2.442c-0.166-1.243-0.827-2.257-1.184-3.42c-0.358-1.166,0.411-2.705,0.78-3.751
			c0.057-0.161,0.297-0.099,0.258,0.071c-0.381,1.654-0.803,3.166,0.049,4.798c0.397,0.76,0.583,1.352,0.702,2.22
			c0.234,1.726-0.446,3.069,0.533,4.714c0.257,0.432,2.018,2.529,2.021,0.924c0.001-0.553-0.031-1.103-0.064-1.656
			c-0.03-0.512,0.02-1.039-0.04-1.548c-0.695-0.945-1.003-0.989-0.927-0.132c0.072,0.368,0.143,0.735,0.215,1.102
			c0.136,0.282-0.207,0.581-0.446,0.344c-0.914-0.911-0.251-2.401,0.102-3.437c0.048-0.139,0.18-0.222,0.327-0.186
			c2.231,0.555,2.559,7.91,0.452,7.33C61.372,66.404,60.533,63.678,60.247,61.996z M68.494,85.087
			c-0.506-0.628-1.149-1.422-1.784-2.299c-0.389-0.471-0.765-0.939-1.13-1.346c-0.998-1.113-2.229-2.482-2.466-4.025
			c-0.266-1.734,0.583-5.477,3.04-3.913c0.124,0.079,0.064,0.244-0.07,0.26c-1.869,0.2-2.166,1.662-1.879,3.067
			c0.061-0.837,0.366-1.683,1.275-1.933c1.14-0.313,1.314,0.66,1.988,1.298c0.139,0.131-0.04,0.358-0.203,0.262
			c-1.257-0.74-2.234,0.064-1.921,1.376c-0.009-0.239-0.004-0.481,0.02-0.728c0.025-0.254,0.432-0.358,0.481-0.065
			c0.148,0.885,0.381,1.689,0.677,2.467c-0.083-0.481-0.108-0.966-0.045-1.453c0.033-0.248,0.399-0.347,0.47-0.063
			c0.386,1.548,0.959,2.909,1.663,4.275c-0.05-0.124-0.101-0.247-0.145-0.373c-0.029-0.084,0.03-0.154,0.102-0.181
			c-0.348-0.991-0.551-2.032-0.674-3.183c-0.01-0.09,0.124-0.117,0.166-0.044c0.341,0.596,0.598,1.225,0.844,1.859
			c0.551,0.789,0.774,1.766,1.422,2.523c0.092,0.107,0.186,0.213,0.281,0.318c-0.701-0.916-1.343-2.001-1.389-3.074
			c-0.008-0.193,0.258-0.252,0.352-0.095c0.297,0.496,0.585,0.987,0.895,1.463c-0.074-0.15,0.016-0.275,0.141-0.31
			c-0.275-0.347-0.508-0.727-0.574-1.169c-0.032-0.215,0.268-0.311,0.333-0.092c0.187,0.636,0.76,1.039,1.237,1.454
			c0.063-0.008,0.131,0.013,0.179,0.082c0.002,0.004,0.004,0.005,0.007,0.009c-0.753-1.077-1.571-2.09-2.382-3.146
			c-0.113-0.148,0.105-0.35,0.251-0.252c2.23,1.5,6.285,5.616,5.431,8.722C74.141,90.227,69.546,86.396,68.494,85.087z
			 M78.344,87.224c-0.179,1.73-2.523,4.575-4.365,2.876c-0.033-0.03-0.05-0.07-0.061-0.113c-1.112-0.194-2.149-0.733-2.53-1.509
			c-0.113-0.23,0.127-0.53,0.373-0.373c1.208,0.769,2.672,1.472,4.148,0.874c1.864-0.754,0.121-3.577-0.375-4.53
			c-1.295-2.494-2.861-4.766-4.604-6.969c-0.054-0.067,0.019-0.192,0.101-0.13c1.894,1.432,3.246,3.293,4.392,5.367
			c0.705,1.277,1.59,2.666,1.921,4.137c0.036-0.327,0.041-0.658,0.02-0.98c-0.119-1.779-1.039-4.071-1.973-5.588
			c-0.019-0.032,0.028-0.071,0.052-0.041C76.917,82.107,78.605,84.687,78.344,87.224z M78.452,73.819
			c-0.031-0.149,0.174-0.25,0.254-0.107c0.444,0.798,0.757,1.695,1.252,2.46c0.814,1.255,1.928,1.555,3.28,1.995
			c1.597,0.519,2.903,1.347,3.967,2.663c0.26,0.321-0.166,0.777-0.465,0.464c-1.076-1.127-2.165-2.002-3.684-2.464
			c-0.802-0.244-1.733-0.455-2.427-0.957C79.319,76.923,78.769,75.346,78.452,73.819z M82.667,79.918
			c-0.129-0.052-0.12-0.248,0.034-0.251c0.98-0.021,1.474,0.392,2.213,0.984c1.666,1.333,3.779,1.368,5.703,2.042
			c0.687,0.241,1.567,0.665,2.302,0.635c2.143-0.088-0.171-2.655-0.464-2.899c-0.566-0.472-1.377-1.135-2.15-1.257
			c-1.406-0.223,0.198,1.26,0.723,1.378c0.464,0.104,0.265,0.801-0.196,0.708c-0.75-0.15-2.931-1.858-1.551-2.665
			c1.549-0.906,4.36,1.361,4.996,2.694c0.783,1.644,0.105,3.271-1.951,2.778c-1.688-0.404-3.561-0.864-5.178-1.471
			C85.44,81.954,84.292,80.583,82.667,79.918z M87.841,90.859c0.14-1.274,1.133-2.905,2.567-2.903
			c0.189,0.001,0.343,0.147,0.381,0.319c0.57-0.351,1.186-0.503,1.893-0.186c0.038,0.017,0.016,0.071-0.02,0.073
			c-1.818,0.046-2.758,2.025-2.618,3.621c0.237,0.638,0.366,1.36,0.981,1.696c0.503,0.275,1.107,0.268,1.699,0.108
			c0.159-0.065,0.318-0.121,0.481-0.163c0.618-0.251,1.188-0.637,1.572-1.005c0.074-0.071,0.174-0.061,0.244-0.009
			c0.52-0.695,0.911-1.462,1.098-2.113c0.022-0.077,0.148-0.064,0.142,0.02c-0.137,1.891-0.932,3.786-2.74,4.664
			c-1.378,0.669-2.845,0.766-4.114-0.196C88.211,93.875,87.679,92.326,87.841,90.859z M105.646,102.961
			c-1.457,0.096-2.758-0.311-4.191-0.553c-1.849-0.313-3.686-0.365-5.541-0.583c-1.521-0.178-4.194-0.504-5.224-1.93
			c-0.873-1.207,0.532-1.715,1.595-1.859c1.778-0.242,2.971,0.052,3.898,1.654c0.154,0.266-0.041,0.608-0.348,0.608
			c-0.788,0.001-1.604,0.174-2.14-0.48c-0.066-0.079-0.024-0.192,0.083-0.2c0.437-0.029,0.874-0.055,1.312-0.081
			c-0.812-0.94-2.039-1.29-3.29-0.783c-1.323,0.537,0.735,1.586,0.927,1.669c1.779,0.78,3.899,0.64,5.799,0.83
			c2.545,0.254,4.762,0.743,7.137,1.588C105.728,102.864,105.716,102.956,105.646,102.961z M100.108,101.293
			c0.031,0,0.031,0.047,0,0.047C100.077,101.341,100.077,101.293,100.108,101.293z M113.297,102.623
			c-1.056,0.231-2.117,0.168-3.059-0.437c-1.596-1.027-3.473-1.154-5.325-1.275c-2.348-0.153-4.99,0.177-6.838-1.517
			c-0.166-0.153,0.045-0.387,0.229-0.297c2.517,1.231,5.738,0.802,8.464,1.101c2.364,0.258,4.263,1.423,6.529,2.029
			C113.488,102.277,113.5,102.579,113.297,102.623z M117.625,95.377c-0.526,1.884-3.776,2.202-5.334,1.777
			c-1.53-0.416-3.262-1.296-3.557-3.011c-0.045-0.258-0.041-0.506-0.003-0.748c-0.026-0.282-0.022-0.548,0.014-0.772
			c0.085-0.522,0.528-1.36,1.104-1.942c0.103-0.114,0.215-0.221,0.342-0.312c1.572-1.127,3.776-0.302,5.368,0.375
			c0.149,0.065,0.269,0.258,0.296,0.432c0.429,0.241,0.84,0.541,1.233,0.916c0.238,0.227-0.069,0.623-0.351,0.455
			c-0.878-0.531-2.115-0.855-3.241-0.856c0.059,0.173,0.156,0.314,0.333,0.414c0.251,0.14,0.027,0.521-0.224,0.384
			c-0.123-0.066-0.221-0.155-0.308-0.254c-0.376,0.148-0.812,0.101-1.135-0.166c-0.053-0.043-0.098-0.092-0.137-0.146
			c-0.026,0.009-0.053,0.017-0.08,0.028c0.068,0.069,0.145,0.137,0.242,0.206c0.256,0.181,0.503,0.4,0.766,0.567
			c0.176,0.113,0.437,0.384,0.634,0.422c0.087,0.016,0.107,0.156,0.025,0.193c-0.143,0.066-0.273,0.198-0.432,0.221
			c-0.224,0.03-0.422,0.012-0.645-0.001c-0.479-0.029-0.951-0.346-1.299-0.66c0.075,0.293,0.24,0.548,0.543,0.686
			c0.46,0.211,1.044,0.578,1.538,0.661c0.13,0.023,0.19,0.111,0.198,0.211c0.829-0.103,1.664-0.246,2.429,0.086
			c0.231,0.101,0.205,0.468,0,0.576c-0.85,0.451-2.099,0.77-3.272,0.762c0.598,0.138,1.212,0.168,1.774,0.033
			c1.019-0.242,1.935-1.021,2.985-0.877C117.58,95.056,117.661,95.246,117.625,95.377z M109.148,51.329
			c-1.539-1.74-2.642-6.01-0.41-7.581c0.132-0.093,0.25,0.081,0.198,0.198c-1.366,3.102,0.084,7.201,3.453,8.3
			c1.247,0.406,2.559,0.406,3.855,0.436c-0.887-0.441-1.722-0.981-2.469-1.514c-0.208-0.149-0.031-0.465,0.201-0.346
			c1.431,0.733,3.108,1.496,4.744,1.551c0.422,0.015,0.848-0.01,1.272-0.026c-0.09-0.015-0.175-0.03-0.252-0.047
			c-0.805-0.172-1.442-0.618-2.174-0.964c-0.184-0.088-0.101-0.418,0.107-0.394c0.836,0.098,1.642,0.438,2.493,0.414
			c0.673-0.019,1.472-0.298,1.997,0.214c0.121,0.119,0.113,0.312,0,0.433c-0.204,0.216-0.517,0.329-0.862,0.38
			c0.324,0.042,0.643,0.118,0.952,0.257c0.197,0.089,0.188,0.418,0,0.509c-0.801,0.389-1.621,0.536-2.438,0.521
			c-0.037,0.123-0.13,0.228-0.287,0.271C116.198,54.854,111.471,53.956,109.148,51.329z M138.081,70.275
			c-0.038,0.313-0.104,0.624-0.216,0.933c-0.989,2.701-3.486,4.034-6.087,4.865c-0.074,0.024-0.133-0.078-0.076-0.13
			c1.462-1.342,3.78-2.405,4.672-4.226c0.368-0.75,0.47-1.56,0.381-2.366c-0.197,0.694-0.499,1.321-1.095,1.811
			c-0.327,0.269-0.918,0.588-1.503,0.73c-0.059,0.041-0.118,0.081-0.18,0.119c-0.044,0.103-0.093,0.202-0.153,0.298
			c0.709-0.313,1.387-0.74,2.005-1.26c0.232-0.196,0.635,0.059,0.446,0.344c-1.551,2.346-4.311,3.272-6.826,2.646
			c-0.04,0.01-0.084,0.011-0.134-0.011c-0.061-0.025-0.117-0.057-0.176-0.084c-1.013-0.308-1.976-0.863-2.789-1.695
			c-0.551-0.565-1.137-1.938-1.422-3.377c0.029,2.411,1.964,4.605,3.972,6.342c0.163,0.14-0.009,0.413-0.205,0.353
			c-0.971-0.296-1.812-0.776-2.513-1.382c0.054,0.11-0.022,0.253-0.161,0.215c-0.014-0.004-0.026-0.011-0.04-0.016
			c0.59,0.413,1.22,0.73,1.826,1.175c0.198,0.146,0.229,0.537-0.077,0.59c-3.29,0.566-5.359-3.909-5.167-6.637
			c0.14-1.976,1.163-5.474,3.337-6.195c0.173-0.116,0.349-0.224,0.529-0.326c1.66-1.347,3.759-2.122,5.844-1.56
			c3.372,0.909,6.026,4.018,6.776,7.408c0.379,1.713,0.464,3.424-0.404,5.001c-0.643,1.169-2.352,1.627-3.496,2.087
			c-0.271,0.109-0.452-0.336-0.198-0.468c1.33-0.693,2.818-1.404,3.099-3.069C138.167,71.695,138.17,70.98,138.081,70.275z
			 M131.387,79.793c3.094,0.236,9.058-0.918,9.69-4.75c0.004-0.018,0.034-0.014,0.033,0.005c-0.035,1.017-0.345,1.881-0.844,2.607
			c0.016,0.049,0.02,0.102-0.002,0.16c-0.842,2.219-2.959,3.564-5.139,4.332c-3.34,1.177-6.238,0.521-9.413-0.815
			c-0.139-0.058-0.089-0.248,0.062-0.225c3.731,0.563,7.137,0.685,10.178-0.717c-1.305,0.36-2.679,0.495-3.885,0.446
			c-3.564-0.146-9.921-2.004-10.289-6.421c-0.012-0.15,0.188-0.214,0.285-0.117C124.771,76.974,127.343,79.486,131.387,79.793z
			 M135.072,86.167c-0.256,0.785-0.742,1.167-1.522,1.416c-0.421,0.134-0.852,0.23-1.273,0.362c-0.32,0.1-0.568,0.248-0.897,0.136
			c-0.105-0.036-0.201-0.156-0.155-0.274c0.223-0.578,1.045-0.665,1.583-0.819c0.705-0.2,1.429-0.502,2.003-0.973
			C134.923,85.925,135.125,86.005,135.072,86.167z M141.152,83.562c-1.327,2.573-2.209,5.085-4.932,6.466
			c-1.032,0.524-1.887,1.243-2.996,1.607c-1.389,0.456-2.283-0.221-3.825,0.476c-1.871,0.846-3.126,2.611-5.086,3.136
			c-0.882,0.237-1.532-0.191-1.507-1.05c0.002-0.073,0.098-0.124,0.152-0.063c1.266,1.431,3.019-1.127,3.965-1.779
			c1.127-0.777,2.757-1.816,4.201-1.794c2.048,0.03,5.003-1.055,6.423-2.759c1.201-1.442,1.937-3.145,3.212-4.543
			C140.958,83.039,141.277,83.317,141.152,83.562z M141.671,74.127c-0.045,0.106-0.203,0.098-0.208-0.029
			c-0.138-3.233,0.754-7.753-1.959-10.309c-2.907-2.738-6.581-3.717-10.545-3.439c-3.744,0.263-7.479,2.186-8.773,5.963
			c-0.907,2.652-1.092,6.823,0.495,9.275c0.117,0.179-0.141,0.364-0.288,0.223c-2.51-2.411-2.168-7.387-1.039-10.39
			c1.271-3.383,4.569-5.784,8.11-6.223c4.011-0.496,9.571-0.073,12.144,3.6C141.622,65.677,143.101,70.727,141.671,74.127z
			 M146.273,40.336c-3.206,0.927-6.823-4.21-7.032-6.907c-0.009-0.112,0.156-0.15,0.208-0.056c0.755,1.374,1.538,2.849,2.628,3.995
			c1.245,1.309,2.491,1.739,4.196,2.131C146.703,39.597,146.672,40.22,146.273,40.336z M146.365,37.136
			c-1.283,0.281-2.845-1.207-3.48-2.147c-0.98-1.447-1.552-3.364-1.252-5.111c0.043-0.254,0.455-0.247,0.504,0
			c0.148,0.743,0.221,1.502,0.38,2.233c0.012-0.047,0.02-0.094,0.036-0.14c0.039-0.113,0.217-0.131,0.246,0
			c0.064,0.272,0.153,0.533,0.268,0.781c-0.01-0.094-0.015-0.186-0.015-0.272c0.002-0.301,0.408-0.333,0.503-0.068
			c0.179,0.498,0.458,0.985,0.79,1.422c-0.094-0.276-0.176-0.556-0.248-0.836c-0.046-0.177,0.226-0.306,0.305-0.128
			c0.222,0.5,0.515,0.997,0.852,1.461c-0.191-0.423-0.329-0.872-0.414-1.319c-0.037-0.198,0.148-0.305,0.288-0.253
			c0.086-0.036,0.193-0.016,0.267,0.086c0.107,0.149,0.214,0.296,0.32,0.445c0.095-0.076,0.268-0.055,0.308,0.089
			c0.039,0.139,0.104,0.294,0.169,0.455c0.024-0.012,0.052-0.019,0.081-0.024c-0.198-0.798-0.457-1.582-0.469-1.963
			c-0.005-0.143,0.17-0.249,0.293-0.168C147.376,32.529,148.542,36.66,146.365,37.136z M151.224,63.594
			c-0.633-0.37-0.64-1.038-0.721-1.68c-0.151-1.2-0.832-2.957-0.462-4.184c0.492-1.626,1.405-2.869,1.275-4.665
			c-0.131-1.806-0.504-3.587-0.819-5.369c-0.017-0.098,0.124-0.176,0.173-0.073c1.482,3.169,2.153,6.219,0.779,9.438
			c-0.604,1.414-0.107,2.669,0.077,4.096c0.218,1.69,1.543,0.748,1.727-0.447c0.111-0.726,0.374-2.6-0.167-3.294
			c-0.06,0.147-0.135,0.288-0.281,0.568c-0.198,0.374-0.779,0.114-0.671-0.283c0.062-0.337,0.124-0.673,0.186-1.01
			c0.017-0.199,0.134-0.431,0.355-0.467c0.258-0.042,0.502-0.074,0.763-0.1c0.181-0.018,0.411,0.118,0.489,0.281
			c0.819,1.701,0.769,3.782,0.142,5.537C153.715,62.93,152.391,64.278,151.224,63.594z"/>
		<path fill="none" d="M72.312,82.759c0.007,0.006,0.013,0.013,0.021,0.019c-0.005-0.005-0.01-0.011-0.016-0.016
			C72.315,82.76,72.314,82.76,72.312,82.759z"/>
		<path fill="#ACBCC1" d="M86.619,18.398c1.026-0.596,2.565-1.812,2.549-3.152c-0.013-0.978-0.388-2.016-1.525-1.715
			c-0.043,0.011-0.032,0.073,0.01,0.075c1.297,0.053,1.192,0.946,0.73,1.829c-0.09-0.683-0.53-1.331-1.182-1.713
			c-1.584-0.928-3.081,0.605-4.379,1.331c-1.053,0.589-6.105,3.179-4.188,5.092C80.672,22.178,84.686,19.521,86.619,18.398z
			 M87.408,15.184c0.142,0.302,0.176,0.717,0.039,1.275c-0.026,0.104-0.007,0.194,0.037,0.266c-0.074,0.084-0.144,0.16-0.207,0.225
			C87.513,16.417,87.5,15.769,87.408,15.184z M86.385,14.542c0.216,0.021,0.414,0.08,0.585,0.177
			c-0.04,0.024-0.071,0.062-0.088,0.111c-0.045-0.267-0.351-0.282-0.524-0.139C86.365,14.641,86.379,14.593,86.385,14.542z
			 M86.302,17.284c0.04,0.1,0.114,0.183,0.207,0.232c-0.113,0.068-0.229,0.133-0.347,0.196
			C86.199,17.565,86.248,17.424,86.302,17.284z M85.906,14.548c-0.045,0.141-0.099,0.277-0.152,0.413c-0.001,0-0.001,0-0.002,0.001
			c-0.173,0.105-0.328,0.237-0.47,0.382c0.005-0.119,0.003-0.241-0.016-0.373c-0.016-0.117-0.088-0.184-0.177-0.217
			C85.353,14.648,85.632,14.577,85.906,14.548z M85.15,17.894c0.002,0.104,0.019,0.204,0.058,0.298
			c-0.071,0.033-0.142,0.067-0.213,0.1C85.044,18.159,85.095,18.026,85.15,17.894z M84.659,17.127
			c-0.048,0.084-0.096,0.168-0.143,0.253c-0.006,0.011-0.014,0.024-0.021,0.036c0.041-0.103,0.084-0.205,0.13-0.306
			C84.635,17.118,84.647,17.12,84.659,17.127z M84.442,15.097c0.055-0.039,0.114-0.075,0.173-0.11
			c-0.006,0.024-0.015,0.046-0.014,0.073c0.012,0.482-0.274,0.931-0.561,1.373c0.077-0.296,0.096-0.601,0.015-0.923
			c-0.01-0.04-0.026-0.074-0.045-0.104C84.157,15.31,84.303,15.208,84.442,15.097z M83.153,19.142
			c-0.22,0.094-0.443,0.181-0.667,0.263c0.153-0.59,0.549-1.14,0.913-1.694C83.234,18.169,83.092,18.68,83.153,19.142z
			 M81.978,17.586c0.012-0.078,0.026-0.156,0.034-0.235c0.029-0.037,0.056-0.076,0.087-0.112c0.104-0.118,0.055-0.266-0.058-0.322
			c0.004-0.123,0.001-0.246-0.003-0.37c0.093-0.055,0.186-0.111,0.278-0.166c0.307-0.183,0.619-0.358,0.932-0.533
			c-0.221,0.549-0.469,1.04-0.823,1.549c-0.212,0.304-0.421,0.611-0.59,0.936C81.914,18.088,81.982,17.838,81.978,17.586z
			 M81.529,19.619c0.001-0.001,0.001-0.001,0.001-0.001c0.01,0.024,0.02,0.048,0.034,0.069c-0.038,0.009-0.076,0.019-0.114,0.027
			C81.481,19.688,81.51,19.66,81.529,19.619z M80.887,17.399c0.038-0.052,0.051-0.102,0.055-0.152
			c0.085-0.06,0.171-0.12,0.258-0.178c-0.022,0.1-0.05,0.199-0.074,0.299c-0.092,0.098-0.179,0.2-0.257,0.306
			c-0.064,0.086-0.129,0.18-0.193,0.276C80.713,17.751,80.774,17.556,80.887,17.399z M80.149,19.531
			c-0.006-0.014-0.013-0.026-0.019-0.04c0.014-0.039,0.029-0.078,0.043-0.118c0.026,0.001,0.049-0.005,0.075-0.01
			c0.038,0.074,0.095,0.132,0.166,0.171c-0.001,0.004-0.003,0.008-0.004,0.011c-0.05,0.129-0.034,0.241,0.016,0.335
			c-0.114,0.001-0.217-0.019-0.313-0.054C80.166,19.732,80.19,19.631,80.149,19.531z M79.822,18.173
			c-0.005,0.029-0.01,0.058-0.015,0.088c-0.158,0.188-0.263,0.418-0.359,0.655c-0.017-0.064-0.034-0.127-0.048-0.198
			C79.499,18.519,79.653,18.339,79.822,18.173z"/>
		<path fill="#ACBCC1" d="M94.441,15.974c-0.159,0.875-0.757,1.515-1.427,2.054c-0.367,0.295-0.765,0.549-1.172,0.783
			c-0.289,0.167-0.698,0.298-0.841,0.621c-0.054,0.123-0.014,0.258,0.123,0.301c0.369,0.116,0.753-0.156,1.06-0.337
			c0.506-0.299,0.984-0.652,1.418-1.048c0.65-0.592,1.339-1.445,1.096-2.375C94.667,15.852,94.466,15.84,94.441,15.974z"/>
		<path fill="#ACBCC1" d="M74.261,24.047c0.031,0.075,0.077,0.145,0.153,0.201c2.711,1.981,5.852,1.3,8.842,0.298
			c1.686-0.565,3.337-1.407,4.809-2.395c1.291-0.867,1.982-2.145,3.045-3.224c0.088-0.089-0.041-0.211-0.134-0.135
			c-0.945,0.773-1.727,1.692-2.712,2.425c-1.314,0.978-3.016,1.502-4.539,2.043c-0.068,0.024-0.136,0.044-0.204,0.067
			c-0.013-0.007-0.026-0.015-0.04-0.018c1.424-0.442,2.753-1.195,3.992-2.323c0.091-0.084-0.004-0.263-0.125-0.215
			c-1.435,0.568-2.626,1.513-4.134,1.936c-0.221,0.062-0.443,0.104-0.665,0.136c0.413-0.206,0.813-0.458,1.225-0.768
			c0.111-0.083,0.012-0.266-0.11-0.19c-0.98,0.616-2.3,0.744-3.45,0.822c1.502-0.278,2.95-0.758,3.568-1.007
			c2.222-0.894,4.364-2.187,6.307-3.608c0.031,0.077,0.131,0.124,0.218,0.085c1.083-0.469,5.585-2.378,3.79-4.273
			c-0.937-0.988-2.358-1.139-3.632-1.357c-1.69-0.289-3.954-0.593-5.558,0.151c-0.074,0.034-0.016,0.132,0.052,0.122
			c1.42-0.215,3.232,0.132,4.634,0.329c1.076,0.151,2.201,0.335,3.199,0.785c1.839,0.827,0.064,2.052-1.359,3.003
			c0.52-0.626,0.753-1.344,0.585-2.288c-0.005-0.024-0.041-0.022-0.046,0c-0.588,2.516-4.272,3.938-6.351,5.083
			c-2.096,1.153-8.305,4.353-9.307,0.433c-0.051-0.199-0.315-0.174-0.377,0c-0.675,1.895,0.257,2.602,1.701,2.732
			c-0.051,0.025-0.104,0.046-0.152,0.077c-0.111,0.073-0.142,0.197-0.106,0.306c-0.031-0.012-0.061-0.021-0.092-0.034
			c-0.501-0.218-0.853,0.395-0.424,0.725c-1.025-0.341-1.927-0.934-2.972-1.394c-0.428-0.189-0.805,0.275-0.497,0.644
			C73.659,23.539,73.953,23.81,74.261,24.047z"/>
		<path fill="#ACBCC1" d="M93.522,94.981c1.808-0.877,2.603-2.772,2.74-4.664c0.006-0.084-0.12-0.097-0.142-0.02
			c-0.187,0.651-0.578,1.417-1.098,2.113c-0.07-0.051-0.17-0.061-0.244,0.009c-0.383,0.368-0.954,0.753-1.572,1.005
			c-0.163,0.041-0.323,0.098-0.481,0.163c-0.593,0.16-1.197,0.167-1.699-0.108c-0.615-0.336-0.743-1.058-0.981-1.696
			c-0.141-1.597,0.8-3.576,2.618-3.621c0.036-0.001,0.057-0.056,0.02-0.073c-0.707-0.318-1.323-0.165-1.893,0.186
			c-0.038-0.172-0.192-0.318-0.381-0.319c-1.434-0.002-2.426,1.629-2.567,2.903c-0.162,1.467,0.369,3.017,1.567,3.926
			C90.677,95.747,92.144,95.651,93.522,94.981z"/>
		<path fill="#ACBCC1" d="M75.189,66.526c4.398,1.347,10.901-3.1,8.356-7.994c-0.204-0.393-0.786-0.191-0.798,0.216
			c-0.035,1.218-0.041,2.323-0.461,3.365c0.125-1.607-0.357-3.387-0.908-4.817c-0.041-0.105-0.212-0.099-0.208,0.028
			c0.059,1.856,0.594,3.783-0.228,5.54c-0.318,0.681-0.855,1.186-1.488,1.532c0.871-1.022,1.399-2.422,1.301-3.59
			c-0.283-3.404-4.089-4.953-6.965-3.743c-1.112,0.468-1.769,1.259-2.07,2.183c-0.368,0.639-0.569,1.437-0.626,2.356
			C70.935,64.185,72.936,65.836,75.189,66.526z M78.947,59.654c0.119,0.192,0.222,0.397,0.307,0.613
			c-0.048-0.031-0.096-0.063-0.144-0.093c-0.036-0.055-0.069-0.113-0.109-0.166c-0.008-0.092-0.028-0.184-0.059-0.273
			C78.944,59.707,78.947,59.681,78.947,59.654z M77.086,63.215c0.019-0.014,0.038-0.031,0.055-0.048
			c0.101,0.006,0.203,0.005,0.305-0.005c-0.208,0.111-0.432,0.176-0.657,0.181C76.891,63.321,76.99,63.281,77.086,63.215z
			 M75.166,62.796c-0.105,0.067-0.196,0.164-0.254,0.28c-0.043-0.074-0.084-0.149-0.121-0.227
			C74.92,62.843,75.046,62.826,75.166,62.796z M73.86,58.505c0.023-0.016,0.047-0.027,0.07-0.043
			c-0.006,0.017-0.014,0.032-0.019,0.05c-0.045,0.026-0.084,0.059-0.124,0.091c-0.009-0.006-0.019-0.012-0.028-0.018
			C73.793,58.559,73.824,58.531,73.86,58.505z"/>
		<path fill="#ACBCC1" d="M75.422,54.998c0.258-0.034,0.272-0.393,0-0.411c-0.839-0.056-1.671,0.001-2.455,0.184
			c1.27-0.596,2.661-0.87,4.085-1.072c0.188-0.027,0.151-0.295,0-0.343c-2.66-0.867-5.157,0.225-7.255,1.984
			c-1.713,1.437-2.488,5.289-1.085,7.112c0.058,0.076,0.134,0.127,0.214,0.16c0.165,0.517,0.389,0.987,0.673,1.366
			c0.189,0.253,0.602,0.185,0.612-0.165c0.046-1.666-0.632-3.167-0.292-4.872C70.412,56.47,73.166,55.299,75.422,54.998z"/>
		<path fill="#ACBCC1" d="M134.95,75.46c-0.254,0.132-0.074,0.578,0.198,0.468c1.144-0.46,2.853-0.918,3.496-2.087
			c0.869-1.578,0.783-3.289,0.404-5.001c-0.75-3.389-3.404-6.498-6.776-7.408c-2.085-0.562-4.184,0.213-5.844,1.56
			c-0.18,0.102-0.356,0.21-0.529,0.326c-2.174,0.721-3.198,4.22-3.337,6.195c-0.192,2.728,1.876,7.203,5.167,6.637
			c0.306-0.053,0.275-0.444,0.077-0.59c-0.606-0.444-1.236-0.761-1.826-1.175c0.014,0.004,0.026,0.012,0.04,0.016
			c0.139,0.038,0.215-0.105,0.161-0.215c0.7,0.606,1.542,1.086,2.513,1.382c0.196,0.059,0.368-0.214,0.205-0.353
			c-2.008-1.737-3.943-3.931-3.972-6.342c0.285,1.44,0.87,2.813,1.422,3.377c0.813,0.831,1.776,1.387,2.789,1.695
			c0.059,0.027,0.115,0.059,0.176,0.084c0.051,0.021,0.094,0.021,0.134,0.011c2.515,0.626,5.276-0.3,6.826-2.646
			c0.189-0.286-0.214-0.54-0.446-0.344c-0.618,0.521-1.296,0.947-2.005,1.26c0.06-0.096,0.109-0.196,0.153-0.298
			c0.061-0.038,0.121-0.078,0.18-0.119c0.585-0.143,1.177-0.461,1.503-0.73c0.596-0.49,0.898-1.117,1.095-1.811
			c0.089,0.805-0.014,1.615-0.381,2.366c-0.892,1.821-3.21,2.884-4.672,4.226c-0.057,0.052,0.002,0.154,0.076,0.13
			c2.6-0.83,5.098-2.164,6.087-4.865c0.112-0.308,0.178-0.62,0.216-0.933c0.09,0.705,0.086,1.42-0.031,2.115
			C137.768,74.055,136.281,74.767,134.95,75.46z M132.162,64.039c0.007-0.019,0.006-0.036,0.008-0.053
			c0.049-0.009,0.097-0.014,0.146-0.026c0.043-0.011,0.079-0.033,0.111-0.059c0.121,0.051,0.241,0.107,0.359,0.164
			c-0.072,0.022-0.134,0.072-0.156,0.157c-0.254,0.983-0.903,1.673-1.857,2.009c-0.158,0.056-0.329,0.088-0.505,0.114
			c0.11-0.043,0.211-0.086,0.298-0.126C131.486,65.789,131.833,64.932,132.162,64.039z M130.223,63.962
			c0.201,0.001,0.403,0.014,0.604,0.03c-0.294,0.125-0.6,0.184-0.93,0.208C130.002,64.121,130.111,64.041,130.223,63.962z
			 M127.499,65.15c-0.515,1.075-0.728,2.275-0.699,3.467c-0.065,0.012-0.119,0.053-0.164,0.113c-0.125-0.79-0.113-1.604,0.04-2.396
			c0.136-0.71,0.52-1.213,1.026-1.574C127.626,64.897,127.558,65.028,127.499,65.15z M128.705,71.211
			c-0.011-0.022-0.021-0.045-0.031-0.067c0.036,0.014,0.07,0.017,0.103,0.012c0.169,0.107,0.337,0.212,0.508,0.315
			C129.078,71.411,128.884,71.326,128.705,71.211z M129.208,65.328c-0.001-0.01-0.009-0.017-0.011-0.026
			c0.337,0.013,0.708-0.064,0.943-0.108c0.032-0.006,0.062-0.017,0.093-0.024c-0.078,0.031-0.157,0.059-0.24,0.081
			C129.768,65.312,129.492,65.32,129.208,65.328z M131.271,71.522c-0.005-0.027-0.014-0.053-0.024-0.078
			c0.288-0.001,0.578-0.024,0.868-0.063C131.841,71.441,131.56,71.488,131.271,71.522z M133.53,65
			c-0.011,0.044-0.02,0.089-0.029,0.133c-0.02,0.029-0.035,0.062-0.034,0.104c0.001,0.034-0.003,0.066-0.003,0.099
			c-0.026,0.165-0.044,0.329-0.061,0.491c-0.202,0.832-0.867,1.408-1.598,1.871c-0.654,0.065-1.338-0.046-1.969,0.082
			c-0.021-0.021-0.041-0.043-0.062-0.065c0.657-0.096,1.332-0.363,1.783-0.604c1.077-0.572,1.456-1.68,1.553-2.824
			c0.001-0.011-0.003-0.021-0.004-0.032c0.221,0.162,0.426,0.345,0.62,0.545C133.637,64.824,133.559,64.889,133.53,65z
			 M134.195,65.339c0.371,0.478,0.691,1.011,0.965,1.553c0.026,0.051,0.063,0.09,0.104,0.124c-0.357,0.299-0.723,0.561-1.103,0.782
			C134.543,67.09,134.421,66.181,134.195,65.339z M136.4,68.488c-0.21,0.56-0.54,1.059-0.983,1.445
			c0.003-0.03,0.012-0.056,0.015-0.086c0.248-0.263,0.455-0.554,0.598-0.877c0.074-0.166-0.078-0.338-0.251-0.251
			c-0.285,0.144-0.567,0.272-0.849,0.393c0.093-0.125,0.181-0.256,0.257-0.395c0.09-0.166,0.023-0.32-0.098-0.398
			c0.266-0.311,0.504-0.658,0.707-1.04c0.047-0.089,0.043-0.171,0.013-0.241c0.043-0.027,0.081-0.061,0.113-0.101
			c0.26,0.441,0.471,0.909,0.62,1.391C136.481,68.355,136.43,68.408,136.4,68.488z"/>
		<path fill="#ACBCC1" d="M127.463,59.198c-3.54,0.439-6.839,2.84-8.11,6.223c-1.129,3.002-1.472,7.978,1.039,10.389
			c0.148,0.141,0.405-0.043,0.288-0.223c-1.587-2.452-1.402-6.622-0.495-9.275c1.294-3.777,5.029-5.7,8.773-5.963
			c3.964-0.278,7.638,0.7,10.545,3.439c2.714,2.557,1.822,7.077,1.959,10.309c0.005,0.127,0.163,0.134,0.208,0.029
			c1.43-3.4-0.049-8.45-2.064-11.329C137.034,59.126,131.474,58.702,127.463,59.198z"/>
		<path fill="#ACBCC1" d="M121.779,74.415c0.368,4.418,6.725,6.276,10.289,6.421c1.206,0.049,2.58-0.086,3.885-0.446
			c-3.04,1.402-6.447,1.28-10.178,0.717c-0.151-0.023-0.201,0.167-0.062,0.225c3.175,1.336,6.074,1.991,9.413,0.815
			c2.179-0.768,4.297-2.113,5.139-4.332c0.022-0.058,0.018-0.111,0.002-0.16c0.499-0.727,0.809-1.59,0.844-2.607
			c0.001-0.018-0.03-0.023-0.033-0.005c-0.632,3.832-6.596,4.985-9.69,4.75c-4.044-0.307-6.616-2.819-9.323-5.496
			C121.967,74.201,121.766,74.265,121.779,74.415z"/>
		<path fill="#ACBCC1" d="M138.726,54.105c2.075-0.469,1.714-3.848,0.329-4.838c-0.265-0.189-0.583,0.121-0.516,0.396
			c0.128,0.521,0.742,3.707-0.518,2.901c-0.785-0.503-1.343-1.525-1.741-2.34c-0.405-0.832-0.449-1.844-0.234-2.728
			c0.178-0.731,1.144-1.816,1.99-1.071c0.455,0.401,0.596,1.099,1.013,1.55c0.154,0.168,0.371-0.015,0.344-0.2
			c-0.231-1.609-1.879-3.447-3.493-1.939c-1.329,1.242-1.343,3.411-0.65,4.99C135.761,51.993,137.098,54.474,138.726,54.105z"/>
		<path fill="#ACBCC1" d="M71.955,45.3c0.094-0.139-0.104-0.262-0.217-0.168c-1.489,1.247-3.275,1.031-4.818,0.073
			c-0.748-0.464-1.339-1.119-1.793-1.866c-0.648-1.067-0.443-2.208-0.487-3.379c-0.012-0.314-0.479-0.494-0.633-0.171
			C62.018,43.957,69.104,49.556,71.955,45.3z"/>
		<path fill="#ACBCC1" d="M119.815,53.668c0.817,0.016,1.637-0.132,2.438-0.521c0.188-0.091,0.197-0.421,0-0.509
			c-0.309-0.139-0.628-0.214-0.952-0.257c0.345-0.051,0.658-0.164,0.862-0.38c0.113-0.121,0.121-0.314,0-0.433
			c-0.525-0.512-1.323-0.233-1.997-0.214c-0.851,0.024-1.657-0.316-2.493-0.414c-0.207-0.024-0.291,0.306-0.107,0.394
			c0.732,0.346,1.368,0.792,2.174,0.964c0.078,0.016,0.163,0.032,0.252,0.047c-0.424,0.016-0.85,0.041-1.272,0.026
			c-1.636-0.055-3.313-0.818-4.744-1.551c-0.232-0.119-0.41,0.197-0.201,0.346c0.746,0.534,1.582,1.073,2.469,1.514
			c-1.295-0.03-2.608-0.03-3.855-0.436c-3.369-1.099-4.819-5.198-3.453-8.3c0.053-0.117-0.065-0.291-0.198-0.198
			c-2.233,1.571-1.13,5.841,0.41,7.581c2.324,2.627,7.051,3.525,10.38,2.61C119.685,53.897,119.778,53.791,119.815,53.668z"/>
		<path fill="#ACBCC1" d="M112.794,80.771c1.929-1.723,1.482-4.049-0.099-5.898c-0.732-0.856-1.818-1.321-2.977-1.535
			c-0.174-0.066-0.352-0.092-0.532-0.081c-1.077-0.128-2.183-0.06-3.109,0.101c-2.318,0.403-4.496,2.1-5.14,4.386
			c-0.597,2.117,1.369,4.724,3.371,5.162c0.161,0.036,0.346-0.097,0.354-0.255c0.259,0.093,0.535,0.141,0.826,0.135
			c0.223-0.004,0.382-0.253,0.26-0.452c-0.595-0.971-1.384-1.625-1.889-2.518c0.147,0.022,0.308-0.051,0.385-0.243
			c0.067-0.167,0.095-0.347,0.105-0.534c0.347,0.9,1.055,2.129,2.131,1.862c0.136-0.033,0.159-0.226,0.039-0.294
			c-0.634-0.363-0.957-1.202-1.265-1.835c-0.592-1.221-0.16-2.22,0.188-3.382c0.209-0.073,0.425-0.132,0.647-0.181
			c-0.159,0.251-0.288,0.501-0.374,0.714c-0.536,1.332-0.38,2.825,0.92,3.601c0.223,0.133,0.495-0.2,0.283-0.367
			c-0.943-0.748-0.86-1.897-0.416-2.902c0.085-0.19,0.188-0.348,0.301-0.494c-0.087,0.59-0.053,1.268-0.013,1.811
			c0.041,0.561,0.333,0.976,0.856,1.163c0.194,0.069,0.37-0.221,0.206-0.353c-0.576-0.465-0.261-1.95-0.151-2.594
			c0.047-0.278,0.165-0.527,0.327-0.744c0.041,0.002,0.084,0.003,0.124,0.004c-0.189,0.473-0.221,1.048-0.264,1.53
			c-0.055,0.63,0.059,1.237,0.59,1.617c0.314,0.226,0.594-0.193,0.472-0.472c-0.289-0.658-0.215-1.964,0.267-2.542
			c0.223-0.266,0.551-0.325,0.877-0.389c-0.134,0.091-0.258,0.2-0.356,0.303c-0.332,0.351-0.543,0.895-0.501,1.379
			c0.01,0.118,0.12,0.194,0.224,0.201c0.005,0.249,0.078,0.501,0.226,0.725c0.11,0.169,0.306,0.148,0.417,0.043
			c0.086,0.056,0.206,0.068,0.291-0.017c0.302-0.3,0.738-0.265,1.182-0.197c-0.397,0.078-0.771,0.331-0.936,0.695
			c-0.14,0.306,0.258,0.544,0.451,0.264c0.191-0.277,0.534-0.281,0.838-0.269c0.311,0.012,0.563,0.237,0.88,0.145
			c0.027-0.008,0.053-0.024,0.074-0.043c0.083,0.732-0.058,1.549-0.503,2.435C112.249,80.723,112.569,80.972,112.794,80.771z
			 M111.497,75.59c0.001,0.001,0.003,0.001,0.004,0.003c-0.001-0.001-0.004-0.001-0.005-0.001
			C111.496,75.591,111.497,75.59,111.497,75.59z M110.838,75.136c0.019,0.011,0.038,0.023,0.057,0.034
			c-0.051,0.007-0.103,0.019-0.155,0.033C110.774,75.182,110.805,75.159,110.838,75.136z M110.119,77.063
			c-0.083-0.175-0.106-0.348-0.066-0.506c0.357-0.117,0.775-0.121,1.14-0.123c0.275-0.001,0.765-0.131,0.681-0.501
			c0.179,0.184,0.337,0.382,0.475,0.594C111.601,76.378,110.619,76.498,110.119,77.063z M112.468,77.31
			c0.051-0.004,0.104-0.004,0.152-0.014c0.036-0.008,0.066-0.023,0.094-0.038c0.026,0.076,0.051,0.154,0.072,0.233
			C112.702,77.412,112.591,77.352,112.468,77.31z"/>
		<path fill="#ACBCC1" d="M117.43,95.035c-1.05-0.144-1.966,0.634-2.985,0.877c-0.562,0.134-1.177,0.104-1.774-0.033
			c1.173,0.009,2.422-0.311,3.272-0.762c0.205-0.109,0.231-0.476,0-0.576c-0.765-0.332-1.6-0.189-2.429-0.086
			c-0.008-0.1-0.068-0.188-0.198-0.211c-0.495-0.084-1.078-0.45-1.538-0.661c-0.303-0.138-0.468-0.393-0.543-0.686
			c0.348,0.314,0.82,0.631,1.299,0.66c0.223,0.014,0.422,0.032,0.645,0.001c0.159-0.022,0.289-0.154,0.432-0.221
			c0.082-0.037,0.062-0.177-0.025-0.193c-0.198-0.038-0.459-0.308-0.634-0.422c-0.262-0.167-0.509-0.386-0.766-0.567
			c-0.097-0.069-0.174-0.137-0.242-0.206c0.027-0.01,0.053-0.019,0.08-0.028c0.039,0.054,0.084,0.103,0.137,0.146
			c0.324,0.267,0.759,0.314,1.135,0.166c0.086,0.099,0.186,0.188,0.308,0.254c0.251,0.137,0.475-0.244,0.224-0.384
			c-0.177-0.1-0.275-0.241-0.333-0.414c1.125,0.001,2.363,0.326,3.241,0.856c0.281,0.169,0.589-0.227,0.351-0.455
			c-0.393-0.375-0.804-0.675-1.233-0.916c-0.027-0.174-0.147-0.367-0.296-0.432c-1.591-0.678-3.796-1.502-5.368-0.375
			c-0.127,0.091-0.239,0.198-0.342,0.312c-0.576,0.582-1.019,1.42-1.104,1.942c-0.036,0.223-0.04,0.49-0.014,0.772
			c-0.038,0.241-0.042,0.49,0.003,0.748c0.295,1.715,2.027,2.595,3.557,3.011c1.559,0.424,4.808,0.106,5.334-1.777
			C117.661,95.246,117.58,95.056,117.43,95.035z"/>
		<path fill="#ACBCC1" d="M108.251,33.918c0.215-0.189-0.059-0.484-0.289-0.374c-0.058,0.028-0.12,0.051-0.18,0.077
			c0.291-0.303,0.551-0.631,0.766-0.942c1.232-1.773,0.294-4.022-0.022-5.876c-0.029-0.171-0.302-0.164-0.336,0
			c-0.124,0.576-0.12,0.483-0.011,1.064c0.238,1.269,0.509,2.331-0.035,3.607c-0.409,0.961-1.163,1.767-2.153,2.125
			c-0.507,0.182-0.795,0.18-1.12,0.487c-0.945-0.071-1.864-0.353-2.613-0.863c0.113-0.049,0.206-0.158,0.223-0.301
			c0.011-0.09,0.019-0.178,0.028-0.265c0.02,0.017,0.036,0.038,0.058,0.055c1.009,0.789,2.776,0.627,3.681-0.242
			c0.081-0.078,0.034-0.202-0.062-0.236c-0.188-0.066-0.391-0.097-0.602-0.109c0.287-0.01,0.576-0.082,0.845-0.238
			c0.833-0.484,1.097-1.704,0.977-2.583c-0.04-0.295-0.125-0.553-0.248-0.779c0.163,0.083,0.339-0.067,0.256-0.252
			c-0.266-0.598-0.618-0.95-1.013-1.117c0.349-0.036,0.702,0.034,1.038,0.259c0.167,0.112,0.35-0.137,0.211-0.274
			c-0.605-0.602-1.067-1.112-2.013-0.907c-0.947,0.206-1.709,0.815-2.291,1.57c-0.043,0.055-0.078,0.115-0.119,0.172
			c-0.004,0.003-0.007,0.005-0.01,0.007c0.021-0.035,0.038-0.07,0.059-0.106c0.381-0.627,1.086-1.353,1.731-1.704
			c0.599-0.325,0.916-0.275,1.381-0.737c0.057-0.056,0.057-0.152,0-0.208c-1.214-1.207-3.44,1.143-4.057,1.921
			c-1.119,1.412-1.46,3.92-0.663,5.6c-0.224-0.224-0.423-0.477-0.588-0.759c-1.119-1.921,0.125-4.2,0.697-6.055
			c0.059-0.192-0.188-0.318-0.325-0.189c-1.91,1.803-2.46,5.224-0.966,7.424C102.116,35.559,106.184,35.733,108.251,33.918z
			 M106.233,28.95c0.002,0.001,0.005,0.001,0.007,0.001c0.071,0.018,0.144,0.04,0.216,0.059c0.017,0.041,0.029,0.085,0.042,0.128
			c-0.055-0.014-0.111-0.019-0.162,0.004c-0.054,0.022-0.094,0.055-0.138,0.084C106.205,29.133,106.216,29.042,106.233,28.95z
			 M104.83,30.377c0.004,0.019,0.01,0.036,0.016,0.055c-0.001,0.001-0.004,0.004-0.005,0.004c-0.005,0.004-0.008,0.005-0.013,0.009
			c-0.022,0.001-0.043,0-0.064,0.001c-0.013-0.008-0.024-0.017-0.035-0.026C104.764,30.411,104.798,30.396,104.83,30.377z
			 M104.569,31.853c0.216,0.139,0.462,0.229,0.718,0.263c-0.266,0-0.538,0.015-0.804,0.014c-0.051-0.066-0.109-0.125-0.169-0.179
			C104.402,31.927,104.487,31.895,104.569,31.853z"/>
		<path fill="#ACBCC1" d="M103.768,58.642c-0.696-0.062-1.853,0.265-2.002,1.083c-0.153,0.834,0.301,1.709,1.064,2.087
			c0.241,0.12,0.534-0.202,0.304-0.393c-0.455-0.377-0.779-1.359-0.049-1.655c0.538-0.218,1.187-0.024,1.712,0.135
			c0.025,0.008,0.053,0.018,0.079,0.026c-0.299-0.009-0.6,0.025-0.828,0.074c-0.249,0.053-0.493,0.258-0.623,0.469
			c-0.084,0.136-0.029,0.439,0.165,0.453c0.13,0.009,0.216-0.056,0.335-0.07c0.194-0.022,0.419,0.014,0.613,0.032
			c0.033,0.003,0.067,0.007,0.101,0.011c-0.174,0.169-0.097,0.508,0.218,0.549c0.471,0.062,0.823,0.238,1.117,0.557
			c-0.001,0.01-0.001,0.02-0.001,0.03c-0.056,0.04-0.099,0.104-0.106,0.198c-0.013,0.187-0.02,0.372-0.033,0.557
			c-0.084-0.086-0.155-0.19-0.196-0.324c-0.1-0.328-0.67-0.282-0.623,0.084c0.039,0.305,0.151,0.575,0.323,0.803
			c-0.096,0.136-0.028,0.319,0.124,0.409c-0.008,0.009-0.015,0.019-0.022,0.028c-0.419-0.502-0.765-1.084-0.866-1.336
			c-0.12-0.301-0.614-0.386-0.697,0c-0.375,1.729,1.886,3.825,3.578,3.011c1.366-0.658,1.131-3.058,0.775-4.203
			C107.724,59.642,105.277,58.776,103.768,58.642z M106.714,62.898c0.003,0.001,0.007,0.001,0.01,0.003
			c0.005,0.014,0.009,0.029,0.014,0.044c0.006,0.021,0.012,0.05,0.018,0.074c-0.019,0.003-0.037,0.006-0.056,0.009
			C106.708,62.986,106.711,62.942,106.714,62.898z M105.866,60.726c-0.005-0.002-0.009-0.004-0.014-0.006
			c0.093-0.096,0.107-0.252,0.056-0.378c0.196,0.101,0.384,0.217,0.561,0.344C106.265,60.686,106.055,60.713,105.866,60.726z
			 M106.375,64.581c0.04-0.021,0.08-0.043,0.116-0.069c0.205,0.013,0.41-0.046,0.564-0.178c0.01,0.026,0.02,0.051,0.03,0.075
			C106.89,64.663,106.64,64.69,106.375,64.581z M107.083,61.627c-0.093-0.148-0.191-0.288-0.289-0.421
			c0.061-0.015,0.119-0.034,0.175-0.062c0.121,0.145,0.218,0.302,0.283,0.472C107.197,61.617,107.14,61.622,107.083,61.627z
			 M107.4,62.206c0.003-0.001,0.005-0.001,0.007-0.001c0.002,0.012,0.005,0.023,0.007,0.035
			C107.409,62.228,107.405,62.217,107.4,62.206z"/>
		<path fill="#ACBCC1" d="M156.538,69.121c-0.458-1.233-0.733-2.225-0.786-3.444c0.699-3.372,1.06-6.827,1.06-10.317
			c0-8.598-2.194-17.076-6.34-24.546c-0.021-0.93-0.057-1.82,0.263-2.762c0.203-0.598,0.411-1.401,0.221-2.038
			c-0.508-1.694-1.795-2.783-3.127-3.873c-1.971-1.614-2.996-4.011-4.696-5.87c-1.23-1.345-3.413-0.143-4.889-0.568
			c-0.181-0.052-0.341,0.001-0.468,0.099c-6.882-5.502-15.102-9.094-23.758-10.456c-0.982-0.514-0.762-1.179-1.405-1.904
			c-0.88-0.991-2.056-0.873-3.299-0.757c-1.312,0.123-2.829-0.084-4.09,0.135c-1.546,0.269-2.608,1.336-3.875,2.129
			c-2.209,0.209-4.398,0.565-6.551,1.06c-0.89-0.193-1.723-0.296-2.58-0.848c-0.698-0.449-1.265-0.765-2.092-0.909
			c-1.818-0.316-3.724,1.337-5.059,2.306c-1.9,1.379-4.772,1.319-6.547,2.809c-1.474,1.236-0.801,2.987-1.724,4.518
			c-0.057,0.094-0.078,0.191-0.075,0.285c-3.917,2.806-7.367,6.12-10.284,9.82c-1.182,0.351-2.386,1.1-3.44,1.667
			c-1.465,0.788-2.226,2.231-3.127,3.548c-0.768,1.123-1.981,2.465-2.053,3.909c-0.071,1.452,0.78,2.517,1.203,3.823
			c-2.268,5.798-3.483,12.036-3.483,18.423c0,0.352,0.012,0.7,0.019,1.05c-0.258,0.589-0.538,1.155-1.058,1.683
			c-0.418,0.423-0.938,0.88-1.165,1.449c-0.744,1.866,0.08,3.679,0.845,5.411c1.095,2.478,0.606,5.417,1.794,7.813
			c0.583,1.173,2.264,1.257,3.373,1.873c3.273,7.951,8.473,14.88,15.183,20.249c0.416,1.029,0.789,2.618,1.021,3.132
			c0.647,1.439,1.557,2.455,2.909,3.241c1.463,0.851,2.714,1.742,4.414,2.02c1.369,0.225,2.184-1.022,3.374-1.361
			c6.249,2.68,12.997,4.078,19.931,4.078c2.675,0,5.354-0.22,7.979-0.635c0.224,0.09,0.439,0.088,0.993,0.109
			c1.214,0.047,1.965,1.26,2.969,1.754c1.146,0.564,2.797-0.456,3.783-0.957c1.454-0.74,3.602-1.023,4.801-2.119
			c1.275-1.165,1.905-2.673,3.005-3.942c0.353-0.186,0.702-0.38,1.05-0.572c0.06-0.018,0.118-0.036,0.178-0.052
			c0.11-0.03,0.187-0.095,0.235-0.176c7.172-4.076,13.26-9.846,17.725-16.843c0.169-0.264,0.328-0.534,0.492-0.801
			c0.375-0.064,0.51-0.173,0.925-0.594c1-1.014,2.274-0.974,3.486-1.479c1.088-0.454,1.397-2.142,1.637-3.131
			c0.423-1.751,1.259-3.479,1.504-5.239C157.042,70.556,156.799,69.824,156.538,69.121z M104.829,3.936
			c0.761-0.32,1.941,0.041,2.762,0.002c1.674-0.079,3.708-0.939,4.654,1.1c0.009,0.022,0.024,0.04,0.036,0.061
			c-2.02-0.246-4.059-0.379-6.108-0.379c-0.897,0-1.794,0.029-2.688,0.076C103.8,4.506,104.123,4.233,104.829,3.936z M60.755,29.722
			c0.987-1.392,1.701-2.636,3.227-3.511c0.441-0.252,0.886-0.498,1.33-0.748c-2.281,3.12-4.194,6.49-5.707,10.038
			c-0.079-0.147-0.163-0.296-0.253-0.454C58.209,33.054,59.637,31.297,60.755,29.722z M79.53,100.752
			c-1.503-0.868-2.508-1.52-3.37-3.092c-0.404-0.737-0.698-1.529-1.032-2.299c0.676,0.525,1.362,1.04,2.067,1.532
			c2.428,1.697,4.982,3.158,7.628,4.392C82.769,102.385,81.541,101.914,79.53,100.752z M127.696,99.63l0.003,0.006
			c-0.305,0.12-0.607,0.238-0.904,0.338c-0.783,0.264-2.116,0.07-2.381,1.083c-0.024,0.094,0.06,0.167,0.151,0.15
			c0.919-0.178,1.889-0.26,2.786-0.526c0.126-0.038,0.251-0.077,0.376-0.116c-0.392,0.621-0.725,1.273-1.103,1.904
			c-0.777,1.298-2.517,1.387-3.759,1.92c-1.681,0.719-3.557,2.571-5.205,0.962c-0.356-0.348-0.725-0.59-1.108-0.767
			c0.787-0.278,1.539-0.636,2.257-1.082c0.161-0.101,0.086-0.329-0.093-0.342c-1.142-0.084-2.355,0.373-3.457,0.64
			c-0.218,0.054-0.444,0.09-0.673,0.118l-0.011-0.061c-2.756,0.474-5.583,0.715-8.402,0.715c-19.019,0-36.484-11.217-44.533-28.249
			c0.079-0.85-0.49-1.633-0.844-2.399c-0.473-1.024-1.21-2.049-1.477-3.151c-0.046-0.19-0.309-0.17-0.364,0
			c-0.298,0.912,0.182,1.676,0.561,2.5c-0.44-0.221-0.929-0.369-1.478-0.518c-2.005-0.546-1.889-5.472-2.286-7.207
			c-0.577-2.526-2.687-4.148-0.471-6.671c0.228-0.26,0.409-0.505,0.564-0.747c0.086,0.568,0.209,1.13,0.331,1.668
			c0.261,1.151,0.344,2.403,0.995,3.42c0.154,0.242,0.481,0.032,0.374-0.219c-0.451-1.06-0.222-2.342-0.413-3.464
			c-0.132-0.772-0.143-1.565-0.198-2.349l0.058-0.002c-0.022-0.599-0.033-1.215-0.033-1.827c0-14.981,6.851-29.119,18.472-38.43
			c0.069,0.014,0.141,0.013,0.211-0.006c0.477-0.131,0.688-0.383,1.06-0.707c0.56-0.487,1.227-0.842,1.863-1.216
			c0.501-0.294,0.998-0.62,1.419-1.022c0.441-0.422,0.78-1.158,1.403-1.349c0.194-0.059,0.198-0.339,0-0.397
			c-1.169-0.338-2.199,1.041-3.139,1.535c-0.014,0.008-0.03,0.015-0.044,0.023c0.276-0.585,0.358-1.199,0.398-1.942
			c0.119-2.185,4.841-3.106,6.626-3.927c2.32-1.068,3.577-3.409,6.427-1.801c0.77,0.434,1.404,0.627,2.065,0.636l0.015,0.059
			c-0.458,0.138-0.873,0.276-1.181,0.365c-0.763,0.221-1.977,0.528-2.098,1.454c-0.015,0.114,0.121,0.149,0.201,0.115
			c0.85-0.36,1.801-0.662,2.711-0.819c0.732-0.126,1.459-0.279,2.188-0.417c0.709-0.134,1.197-0.032,1.734-0.487
			c0.031-0.026,0.049-0.057,0.06-0.089c2.9-0.525,5.854-0.794,8.824-0.794c11.351,0,22.428,3.957,31.188,11.142l0.019-0.023
			c0.177,0.161,0.356,0.318,0.528,0.488c0.93,0.924,1.607,1.993,2.69,2.762c0.127,0.089,0.281-0.083,0.206-0.206
			c-0.333-0.544-0.554-1.132-0.841-1.698c-0.3-0.591-0.825-1.1-1.269-1.587c0.828,0.136,1.59-0.057,2.546-0.184
			c1.752-0.233,4.031,4.731,5.303,5.812c1.628,1.385,3.671,2.645,3.095,5.098c-0.304,1.297-0.36,2.14,0.046,3.109
			c-0.598-0.907-1.216-1.756-1.965-2.565c-0.049-0.054-0.123,0.015-0.095,0.075c0.528,1.137,1,2.291,1.574,3.409
			c0.399,0.777,0.799,1.687,1.393,2.372c3.144,6.587,4.797,13.854,4.797,21.211C155.388,74.347,144.777,91.311,127.696,99.63z
			 M155.679,71.635c-0.116,0.815-0.721,1.663-0.961,2.464c-0.588,1.966-0.308,4.494-2.862,4.76c-0.34,0.036-0.657,0.126-0.957,0.254
			c1.771-3.328,3.154-6.834,4.137-10.455C155.395,69.651,155.861,70.365,155.679,71.635z"/>
		<path fill="#ACBCC1" d="M75.09,86.777c0.854-3.106-3.202-7.222-5.431-8.722c-0.147-0.099-0.364,0.104-0.251,0.252
			c0.81,1.055,1.628,2.069,2.382,3.146c-0.002-0.004-0.005-0.005-0.007-0.009c-0.048-0.069-0.116-0.09-0.179-0.082
			c-0.478-0.415-1.05-0.817-1.237-1.454c-0.065-0.218-0.365-0.123-0.333,0.092c0.066,0.442,0.299,0.823,0.574,1.169
			c-0.124,0.035-0.214,0.16-0.141,0.31c-0.31-0.475-0.598-0.967-0.895-1.463c-0.094-0.156-0.361-0.097-0.352,0.095
			c0.046,1.073,0.688,2.158,1.389,3.074c-0.095-0.105-0.189-0.211-0.281-0.318c-0.648-0.757-0.871-1.735-1.422-2.523
			c-0.246-0.634-0.503-1.263-0.844-1.859c-0.042-0.072-0.176-0.046-0.166,0.044c0.123,1.151,0.326,2.192,0.674,3.183
			c-0.072,0.028-0.132,0.098-0.102,0.181c0.044,0.126,0.094,0.249,0.145,0.373c-0.703-1.366-1.277-2.727-1.663-4.275
			c-0.071-0.284-0.438-0.186-0.47,0.063c-0.063,0.487-0.038,0.972,0.045,1.453c-0.296-0.778-0.53-1.582-0.677-2.467
			c-0.049-0.293-0.456-0.189-0.481,0.065c-0.025,0.247-0.029,0.489-0.02,0.728c-0.312-1.312,0.664-2.116,1.921-1.376
			c0.163,0.096,0.341-0.131,0.203-0.262c-0.675-0.638-0.848-1.612-1.988-1.298c-0.91,0.25-1.214,1.096-1.275,1.933
			c-0.287-1.405,0.01-2.868,1.879-3.067c0.134-0.015,0.194-0.18,0.07-0.26c-2.457-1.563-3.306,2.179-3.04,3.913
			c0.236,1.543,1.468,2.912,2.466,4.025c0.365,0.407,0.74,0.875,1.13,1.346c0.634,0.877,1.278,1.671,1.784,2.299
			C69.546,86.396,74.141,90.227,75.09,86.777z M71.017,85.954c-0.002-0.003-0.002-0.006-0.004-0.009
			c-0.089-0.095-0.187-0.178-0.283-0.263c-0.414-0.451-0.761-0.969-1.071-1.503c0.34,0.501,0.706,0.982,1.074,1.436
			c0.141,0.174,0.336,0.359,0.564,0.535C71.202,86.087,71.109,86.021,71.017,85.954z M72.312,82.759
			c0.002,0.001,0.003,0.001,0.005,0.003c0.005,0.005,0.011,0.011,0.016,0.016C72.325,82.772,72.319,82.765,72.312,82.759z"/>
		<path fill="#ACBCC1" d="M75.393,80.287c0.934,1.516,1.854,3.809,1.973,5.588c0.021,0.322,0.016,0.653-0.02,0.98
			c-0.331-1.472-1.216-2.86-1.921-4.137c-1.147-2.075-2.498-3.935-4.392-5.367c-0.082-0.062-0.155,0.063-0.101,0.13
			c1.743,2.202,3.309,4.475,4.604,6.969c0.496,0.953,2.238,3.776,0.375,4.53c-1.476,0.598-2.94-0.105-4.148-0.874
			c-0.246-0.157-0.486,0.142-0.373,0.373c0.381,0.776,1.417,1.316,2.53,1.509c0.011,0.043,0.028,0.083,0.061,0.113
			c1.843,1.699,4.187-1.146,4.365-2.876c0.261-2.538-1.427-5.118-2.898-6.978C75.421,80.216,75.373,80.255,75.393,80.287z"/>
		<path fill="#ACBCC1" d="M125.969,16.302c1.449,0.887,2.808,1.661,3.993,2.921c1.07,1.138,1.046,3.244-0.78,3.393
			c-1.017,0.084-2.175-0.322-3.132-0.617c-1.847-0.57-3.489-1.781-5.021-2.916c-0.636-0.472-1.209-0.975-1.754-1.55
			c-0.943-0.86-0.807-1.675,0.407-2.444c-0.043,0.061-0.07,0.134-0.076,0.213c-0.1,1.722,0.877,3.008,2.266,3.91
			c1.725,1.119,4.06,2.201,6.134,1.686c0.217-0.054,0.351-0.258,0.36-0.472c0.046-1.252-1.262-2.287-2.398-2.896
			c-0.23-0.186-0.438-0.398-0.599-0.666c-0.195-0.325-0.654-0.045-0.505,0.287c-0.179-0.001-0.351,0.214-0.229,0.382
			c0.37,0.505,0.877,0.915,1.368,1.296c0.105,0.081,0.217,0.183,0.336,0.29c-0.115-0.062-0.223-0.123-0.312-0.186
			c-0.629-0.443-1.23-0.911-1.804-1.423c-0.213-0.19-0.505,0.101-0.313,0.313c0.163,0.18,0.334,0.353,0.502,0.528
			c-0.54-0.41-1.04-0.87-1.515-1.354c-0.143-0.147-0.327-0.017-0.335,0.141c-0.376-0.423-0.706-0.887-0.967-1.402
			c-0.099-0.196-0.361-0.049-0.329,0.139c0.125,0.745,0.534,1.429,1.038,2.027c-0.488-0.456-0.934-1.03-1.017-1.681
			c-0.032-0.25-0.402-0.349-0.472-0.064c-0.066,0.268-0.04,0.533,0.035,0.788c-0.096-0.169-0.185-0.343-0.256-0.531
			c-0.081-0.258-0.134-0.522-0.162-0.791c-0.004-0.029-0.87-0.225,0.453,0.048c0.117,0.024,0.205-0.146,0.086-0.203
			c-0.42-0.198-0.49-0.324-0.78-0.502c-0.069-0.042-0.141-0.058-0.21-0.054c0.225-0.124,0.475-0.246,0.756-0.368
			c0.744,0.066,1.483,0.178,2.215,0.335c0.307,0.07,0.436-0.39,0.13-0.472c-1.857-0.498-2.854-1.085-4.671-0.135
			c-0.952,0.498-1.046,1.574-0.766,2.472c0.81,2.604,5.17,5.113,7.432,6.007c1.918,0.758,6.537,2.054,7.024-1.184
			c0.388-2.572-3.737-5.514-5.824-5.993C125.838,15.475,125.579,16.062,125.969,16.302z"/>
		<path fill="#231F20" d="M116.723,11.726c-0.03,0-0.03,0.047,0,0.047C116.754,11.773,116.754,11.726,116.723,11.726z"/>
		<path fill="#ACBCC1" d="M115.622,16.592c1.019,2.035,3.393,4.235,5.639,4.791c0.135,0.033,0.298-0.127,0.199-0.258
			c-0.821-1.076-2.146-1.699-3.181-2.548c-0.691-0.568-1.268-1.23-1.745-1.987c-0.853-1.352-0.53-3.466,1.357-3.591
			c0.248-0.016,0.252-0.381,0-0.388C115.761,12.546,114.723,14.795,115.622,16.592z"/>
		<path fill="#ACBCC1" d="M69.06,44.34c0.812,0.139,1.873-0.064,2.417-0.705c0.193-0.149,0.357-0.307,0.47-0.451
			c0.299-0.381,0.485-0.8,0.629-1.26c0.017-0.057,0.025-0.111,0.038-0.166c0.765-1.299,1.172-2.931,0.913-4.257
			c-0.077-0.394-0.6-0.247-0.642,0.087c-0.005,0.036-0.008,0.069-0.012,0.105c-0.121-0.015-0.246,0.039-0.294,0.167
			c-0.106-0.049-0.236-0.027-0.311,0.066c-0.074-0.04-0.16-0.051-0.243-0.034c-0.089-0.332-0.617-0.319-0.618,0.068
			c-0.001,0.204,0.033,0.406,0.082,0.603c-0.022,0.039-0.039,0.083-0.038,0.14c0.001,0.023,0.006,0.047,0.007,0.07
			c-0.077-0.035-0.16-0.044-0.235-0.023c-0.004-0.099-0.007-0.197-0.01-0.294c-0.008-0.298-0.455-0.298-0.462,0
			c-0.012,0.45-0.019,0.904,0.026,1.35c-0.05-0.027-0.105-0.046-0.164-0.046c-0.206-0.694-0.261-1.45,0.136-2.018
			c0.198-0.283-0.256-0.633-0.479-0.37c-0.004,0.004-0.006,0.01-0.01,0.015c-0.127-0.071-0.321-0.044-0.39,0.134
			c-0.207,0.541-0.301,1.117-0.324,1.697c-0.018-0.041-0.039-0.077-0.066-0.104c-0.024-0.442-0.073-0.897-0.078-1.335
			c0.029-0.01,0.059-0.021,0.093-0.023c0.315-0.017,0.414-0.503,0.077-0.574c-0.012-0.003-0.022-0.002-0.034-0.004
			c0.135-0.36,0.304-0.723,0.52-1.09c0.148-0.251-0.22-0.453-0.384-0.224c-0.009,0.012-0.017,0.026-0.025,0.039
			c-0.011-0.001-0.02-0.009-0.031-0.007c-0.472,0.055-0.583,0.681-0.625,1.177c-0.034,0.075-0.068,0.149-0.099,0.226
			c-0.132,0.099-0.23,0.243-0.3,0.416c0.012-0.142,0.024-0.285,0.039-0.422c0.07-0.082,0.151-0.159,0.245-0.231
			c0.212-0.161,0.086-0.482-0.127-0.475c0.059-0.22,0.138-0.364,0.247-0.366c0.324-0.007,0.303-0.449,0-0.488
			c-0.106-0.014-0.2-0.003-0.288,0.019c0.216-0.4,0.449-0.725,0.66-0.753c0.207-0.027,0.29-0.223,0.235-0.368
			c0.594-0.275,1.269-0.425,1.996-0.457c0.056-0.002,0.077-0.075,0.029-0.106c-1.734-1.074-3.484,0.178-4.524,1.625
			c-0.239,0.333-0.431,0.692-0.584,1.065c-0.94,1.354-0.531,3.931,0.003,5.174C67.022,43.093,67.771,44.119,69.06,44.34z
			 M71.688,41.645c-0.016,0.024-0.03,0.049-0.046,0.072c-0.052-0.075-0.103-0.149-0.156-0.222
			C71.55,41.553,71.617,41.602,71.688,41.645z M70.915,40.541c0.002,0.006,0.003,0.012,0.005,0.018
			c-0.002-0.004-0.004-0.007-0.005-0.01C70.915,40.547,70.915,40.544,70.915,40.541z M70.602,42.574
			c-0.04,0.015-0.079,0.029-0.119,0.043c-0.04-0.057-0.074-0.115-0.112-0.173C70.441,42.498,70.519,42.54,70.602,42.574z
			 M69.637,40.822c0.019,0.118,0.044,0.242,0.073,0.368c-0.077-0.187-0.147-0.377-0.211-0.57
			C69.543,40.69,69.59,40.756,69.637,40.822z M67.116,39.84c0.018,0.556,0.231,1.11,0.499,1.619
			c-0.028-0.045-0.059-0.091-0.085-0.134c-0.403-0.639-0.538-1.319-0.521-2.005C67.037,39.49,67.073,39.663,67.116,39.84z"/>
		<path fill="#ACBCC1" d="M140.781,31.478c0.25,0.164,0.485-0.104,0.449-0.345c-0.148-0.984-0.831-1.562-0.326-2.667
			c0.515-1.128,1.687-1.077,2.623-0.616c1.121,0.551,1.9,1.796,2.982,2.468c0.277,0.171,0.489-0.237,0.248-0.423
			c-0.987-0.758-1.393-2.02-2.443-2.722c-0.887-0.593-1.77-0.875-2.807-0.531C139.488,27.31,138.989,30.307,140.781,31.478z"/>
		<path fill="#ACBCC1" d="M146.097,31.678c-0.123-0.081-0.298,0.025-0.293,0.168c0.012,0.381,0.271,1.165,0.469,1.963
			c-0.03,0.005-0.058,0.011-0.081,0.024c-0.065-0.161-0.13-0.316-0.169-0.455c-0.04-0.144-0.213-0.165-0.308-0.089
			c-0.106-0.149-0.213-0.296-0.32-0.445c-0.074-0.101-0.181-0.121-0.267-0.086c-0.141-0.052-0.325,0.055-0.288,0.253
			c0.085,0.448,0.223,0.897,0.414,1.319c-0.337-0.464-0.63-0.961-0.852-1.461c-0.079-0.178-0.351-0.049-0.305,0.128
			c0.072,0.28,0.154,0.56,0.248,0.836c-0.333-0.437-0.611-0.925-0.79-1.422c-0.096-0.265-0.501-0.233-0.503,0.068
			c-0.001,0.087,0.005,0.179,0.015,0.272c-0.115-0.248-0.205-0.509-0.268-0.781c-0.03-0.131-0.208-0.113-0.246,0
			c-0.016,0.046-0.024,0.094-0.036,0.14c-0.159-0.732-0.231-1.49-0.38-2.233c-0.049-0.247-0.461-0.254-0.504,0
			c-0.299,1.747,0.273,3.664,1.252,5.111c0.635,0.94,2.196,2.428,3.48,2.147C148.542,36.66,147.376,32.529,146.097,31.678z"/>
		<path fill="#ACBCC1" d="M146.273,39.499c-1.705-0.393-2.951-0.822-4.196-2.131c-1.09-1.146-1.873-2.621-2.628-3.995
			c-0.052-0.094-0.216-0.056-0.208,0.056c0.209,2.696,3.826,7.834,7.032,6.907C146.672,40.22,146.703,39.597,146.273,39.499z"/>
		<path fill="#ACBCC1" d="M153.926,56.405c-0.079-0.163-0.308-0.298-0.489-0.281c-0.261,0.026-0.504,0.057-0.763,0.1
			c-0.221,0.036-0.338,0.268-0.355,0.467c-0.062,0.337-0.124,0.673-0.186,1.01c-0.108,0.396,0.474,0.657,0.671,0.283
			c0.146-0.28,0.221-0.421,0.281-0.568c0.542,0.694,0.279,2.568,0.167,3.294c-0.184,1.195-1.509,2.137-1.727,0.447
			c-0.183-1.427-0.681-2.681-0.077-4.096c1.374-3.219,0.703-6.269-0.779-9.438c-0.049-0.104-0.19-0.025-0.174,0.073
			c0.316,1.782,0.689,3.562,0.819,5.369c0.13,1.796-0.783,3.039-1.275,4.665c-0.37,1.227,0.311,2.985,0.462,4.184
			c0.081,0.642,0.088,1.31,0.721,1.68c1.167,0.684,2.491-0.663,2.844-1.651C154.696,60.188,154.746,58.107,153.926,56.405z"/>
		<path fill="#231F20" d="M100.108,101.293c-0.031,0-0.031,0.047,0,0.047C100.138,101.341,100.138,101.293,100.108,101.293z"/>
		<path fill="#ACBCC1" d="M93.558,65.506c0.081-0.099,0.146-0.218,0.225-0.332c0.119-0.173-0.104-0.329-0.259-0.259
			c-0.146,0.066-0.494-0.022-0.652-0.169c-0.231-0.214-0.322-0.524-0.416-0.813c-0.089-0.273-0.136-0.588-0.075-0.83
			c0.008-0.03,0.134-0.181,0.049-0.119c0.069-0.05,0.234-0.082,0.348-0.144c0.123-0.065,0.171-0.189,0.168-0.313
			c0.444-0.041,0.9-0.001,1.247,0.077c0.283,0.063,0.388-0.335,0.119-0.429c-0.599-0.211-1.086-0.565-1.736-0.609
			c-0.667-0.045-1.241,0.334-1.717,0.752c-0.22,0.194-0.372,0.455-0.48,0.743c-0.342,0.407-0.354,0.903-0.196,1.393
			c0.007,0.172,0.02,0.338,0.044,0.49c0.145,0.928,0.563,1.808,1.362,2.338c0.591,0.393,1.72,0.381,2.132-0.255
			c0.365-0.108,0.691-0.362,0.797-0.71c0.481-0.205,0.891-0.571,1.174-1.137c0.098-0.198-0.151-0.414-0.315-0.242
			C94.949,65.384,94.218,65.536,93.558,65.506z M91.338,63.867c0.002-0.014,0.003-0.028,0.005-0.042
			c0.006,0.034,0.015,0.068,0.022,0.102C91.356,63.907,91.346,63.887,91.338,63.867z"/>
		<path fill="#ACBCC1" d="M122.146,46.722c-0.022-0.177-0.199-0.261-0.341-0.142c-0.67,0.556-0.887,1.241-1.784,1.564
			c-0.886,0.319-1.903,0.315-2.894,0.19c0.003-0.016,0.005-0.033,0.005-0.049c1.284,0.08,2.563-0.243,3.074-1.312
			c0.093-0.196-0.125-0.349-0.289-0.223c-0.42,0.325-1.267,0.421-2.067,0.403c0.243-0.054,0.486-0.125,0.729-0.235
			c0.202-0.091,0.105-0.353-0.054-0.417c-0.731-0.297-1.554-0.164-2.288-0.471c-0.606-0.255-1.946-0.842-1.79-1.683
			c0.056-0.296,0.889-0.608,0.791-0.984c0.215-0.031,0.416-0.06,0.588-0.093c0.193-0.038,0.179-0.33,0-0.376
			c-1.593-0.404-3.265-0.414-4.095,1.243c-0.246,0.491-0.255,1.012-0.126,1.519c-0.475-1.01-0.1-2.267,0.049-3.28
			c0.031-0.209-0.141-0.503-0.397-0.397c-2.152,0.889-1.123,4.288,0.124,5.547c2.256,2.277,6.29,2.58,9.207,1.968
			c0.176-0.037,0.223-0.258,0.139-0.39C121.696,48.702,122.305,47.953,122.146,46.722z M115.181,47.969
			c-0.822-0.19-1.504-0.675-2.001-1.321c0.578,0.573,1.33,1.007,2.119,1.347C115.26,47.986,115.219,47.978,115.181,47.969z"/>
		<path fill="#ACBCC1" d="M112.496,48.864c-0.383-0.212-0.696-0.523-0.996-0.836c-0.246-0.256-0.373-0.5-0.717-0.62
			c-0.147-0.051-0.289,0.057-0.335,0.19c-0.29,0.83,0.751,1.659,1.347,2.058c0.775,0.518,1.724,0.778,2.616,0.445
			c0.156-0.059,0.248-0.322,0.053-0.407C113.812,49.415,113.114,49.207,112.496,48.864z"/>
		<path fill="#ACBCC1" d="M140.758,83.258c-1.275,1.397-2.011,3.1-3.212,4.543c-1.419,1.704-4.375,2.789-6.423,2.759
			c-1.444-0.022-3.074,1.017-4.201,1.794c-0.945,0.653-2.699,3.21-3.965,1.779c-0.054-0.061-0.15-0.01-0.152,0.063
			c-0.025,0.859,0.625,1.287,1.507,1.05c1.96-0.524,3.215-2.29,5.086-3.136c1.542-0.698,2.436-0.02,3.825-0.476
			c1.109-0.364,1.964-1.083,2.996-1.607c2.723-1.381,3.605-3.893,4.932-6.466C141.277,83.317,140.958,83.039,140.758,83.258z"/>
		<path fill="#ACBCC1" d="M134.812,86.015c-0.574,0.471-1.297,0.773-2.003,0.973c-0.538,0.153-1.36,0.241-1.583,0.819
			c-0.046,0.118,0.049,0.238,0.155,0.274c0.329,0.112,0.577-0.036,0.897-0.136c0.421-0.131,0.852-0.228,1.273-0.362
			c0.78-0.25,1.266-0.631,1.522-1.416C135.125,86.005,134.923,85.925,134.812,86.015z"/>
		<path fill="#ACBCC1" d="M62.832,59.6c-0.147-0.037-0.279,0.046-0.327,0.186c-0.353,1.035-1.016,2.526-0.102,3.437
			c0.239,0.237,0.582-0.062,0.446-0.344c-0.072-0.368-0.144-0.735-0.215-1.102c-0.077-0.857,0.232-0.813,0.927,0.132
			c0.06,0.509,0.01,1.035,0.04,1.548c0.033,0.553,0.066,1.102,0.064,1.656c-0.004,1.604-1.764-0.493-2.021-0.924
			c-0.979-1.645-0.299-2.988-0.533-4.714c-0.118-0.868-0.305-1.46-0.702-2.22c-0.853-1.632-0.431-3.145-0.049-4.798
			c0.039-0.17-0.201-0.232-0.258-0.071c-0.369,1.046-1.138,2.585-0.78,3.751c0.357,1.163,1.019,2.178,1.184,3.42
			c0.1,0.745-0.39,1.669-0.258,2.442c0.286,1.682,1.125,4.408,3.037,4.934C65.391,67.51,65.063,60.155,62.832,59.6z"/>
		<path fill="#ACBCC1" d="M91.317,25.774c0.261-0.075,0.249-0.435,0-0.515c-1.981-0.639-4.123,0.695-5.496,2.032
			c-0.687,0.669-1.36,1.535-1.727,2.421c-0.426,1.025-0.84,2.867-2.184,3c-0.088,0.008-0.12,0.142-0.022,0.164
			c1.493,0.332,2.175-0.988,2.686-2.195c0.521-1.232,1.275-2.21,2.252-3.127C88.17,26.291,89.657,26.253,91.317,25.774z"/>
		<path fill="#ACBCC1" d="M101.532,9.884c1.984-0.219,3.722-0.808,5.776-0.656c0.089,0.006,0.171,0.013,0.26,0.019
			c-0.525,0.184-1.013,0.476-1.441,0.923c-0.196,0.204,0.096,0.488,0.306,0.307c1.505-1.294,3.999-0.638,5.747-0.297
			c0.715,0.14,1.267,0.199,1.811,0.14c0.395,0.136,0.795,0.284,1.205,0.462c1.444,0.628,2.783,0.885,4.339,1.005
			c2.599,0.201,5.135,0.933,7.689,1.443c0.49,0.098,0.688-0.597,0.207-0.751c-1.97-0.632-4.14-1.319-6.199-1.564
			c-1.35-0.16-2.692-0.224-4.026-0.516c-0.553-0.12-1.102-0.333-1.648-0.575c0.108-0.073,0.084-0.281-0.055-0.301
			c-0.239-0.036-0.467-0.044-0.692-0.042c-0.494-0.235-0.982-0.471-1.463-0.665c-1.899-0.767-4.032-0.621-6.041-0.743
			c-2.09-0.127-4.179-0.102-5.953,1.157C101.104,9.41,101.151,9.927,101.532,9.884z"/>
		<path fill="#ACBCC1" d="M113.297,102.226c-2.266-0.606-4.165-1.771-6.529-2.029c-2.726-0.299-5.947,0.13-8.464-1.101
			c-0.184-0.09-0.396,0.144-0.229,0.297c1.848,1.694,4.49,1.364,6.838,1.517c1.852,0.121,3.729,0.248,5.325,1.275
			c0.942,0.606,2.003,0.668,3.059,0.437C113.5,102.579,113.488,102.277,113.297,102.226z"/>
		<path fill="#ACBCC1" d="M105.663,102.84c-2.376-0.845-4.593-1.334-7.137-1.588c-1.9-0.189-4.02-0.049-5.799-0.83
			c-0.192-0.083-2.25-1.132-0.927-1.669c1.251-0.508,2.478-0.158,3.29,0.783c-0.437,0.026-0.874,0.052-1.312,0.081
			c-0.107,0.008-0.148,0.12-0.083,0.2c0.536,0.654,1.352,0.482,2.14,0.48c0.307-0.001,0.503-0.343,0.348-0.608
			c-0.927-1.602-2.12-1.895-3.898-1.654c-1.063,0.144-2.468,0.652-1.595,1.859c1.03,1.426,3.703,1.752,5.224,1.93
			c1.855,0.218,3.692,0.27,5.541,0.583c1.433,0.243,2.734,0.65,4.191,0.553C105.716,102.956,105.728,102.864,105.663,102.84z"/>
		<path fill="#ACBCC1" d="M86.741,81.293c0.299,0.313,0.725-0.143,0.465-0.464c-1.063-1.315-2.37-2.144-3.967-2.663
			c-1.353-0.441-2.467-0.74-3.28-1.995c-0.496-0.765-0.808-1.662-1.252-2.46c-0.08-0.143-0.285-0.042-0.254,0.107
			c0.317,1.527,0.867,3.104,2.178,4.054c0.694,0.502,1.624,0.712,2.427,0.957C84.576,79.292,85.665,80.167,86.741,81.293z"/>
		<path fill="#ACBCC1" d="M94.276,81.286c-0.636-1.333-3.447-3.6-4.996-2.694c-1.38,0.807,0.801,2.515,1.551,2.665
			c0.461,0.092,0.66-0.604,0.196-0.708c-0.524-0.117-2.129-1.601-0.723-1.378c0.773,0.122,1.584,0.785,2.15,1.257
			c0.293,0.244,2.607,2.811,0.464,2.899c-0.735,0.03-1.614-0.394-2.302-0.635c-1.924-0.673-4.036-0.709-5.703-2.042
			c-0.739-0.592-1.233-1.005-2.213-0.984c-0.154,0.004-0.163,0.199-0.034,0.251c1.626,0.664,2.773,2.036,4.48,2.675
			c1.617,0.607,3.49,1.067,5.178,1.471C94.381,84.557,95.059,82.93,94.276,81.286z"/>
		<path fill="#ACBCC1" d="M85.065,48.97c0.096-0.131-0.036-0.294-0.173-0.301c-0.6-0.032-1.092,0.095-1.61-0.33
			c-0.522-0.428-0.773-1.19-0.83-1.838c-0.111-1.276,1.002-2.981,2.321-3.118c0.273-0.028,0.272-0.393,0-0.423
			c-1.971-0.212-3.242,2.037-3.137,3.793C81.719,48.134,83.752,50.773,85.065,48.97z"/>
	</g>
</g>
</svg>
