<?xml version="1.0" encoding="utf-8"?>
<!-- Generator: Adobe Illustrator 17.0.0, SVG Export Plug-In . SVG Version: 6.00 Build 0)  -->
<!DOCTYPE svg PUBLIC "-//W3C//DTD SVG 1.1//EN" "http://www.w3.org/Graphics/SVG/1.1/DTD/svg11.dtd">
<svg version="1.1" id="Layer_1" xmlns="http://www.w3.org/2000/svg" xmlns:xlink="http://www.w3.org/1999/xlink" x="0px" y="0px"
	 width="210px" height="110px" viewBox="0 0 210 110" enable-background="new 0 0 210 110" xml:space="preserve">
<g id="marte">
	<circle fill="#DD6033" cx="105" cy="54.998" r="52.393"/>
	<path fill="#AC3925" d="M138.857,39.188c1.751,2.094,3.744,2.308,6.372,3.409c5.42,2.26,8.71,10.902,3.267,14.94
		c-5.511,4.091-14.036-1.37-16.673-6.361c-1.167-2.215-1.452-4.714-2.614-6.954c-1.096-2.116-3.288-5.287-2.089-7.781
		c1.098-2.285,5.073-3.192,7.265-2.379c2.121,0.788,2.911,3.005,4.105,4.655C138.615,38.882,138.737,39.039,138.857,39.188z"/>
	<path fill="#AC3925" d="M135.508,77.435c1.683-0.329,3.575-1.395,4.566-3.507c2.436-7.292-9.406-3.427-5.842,2.347L135.508,77.435z
		"/>
	<path fill="#AC3925" d="M111.831,80.924c1.963,0.893,6.644,0.845,7.16-2.034c0.427-2.363-5.103-6.934-7.457-6.21
		C108.352,73.655,109.281,79.773,111.831,80.924z"/>
	<path fill="#AC3925" d="M92.014,62.897c-2.315,3.356-5.959,5.664-9.678,7.183c-6.632,2.703-13.217,1.103-15.043-6.463
		c-1.107-4.867,1.399-9.949,1.909-14.543c0.904-5.356-1.048-10.089,2.219-14.76c6.63-9.895,24.94,0.632,26.924,10.054
		c0.569,2.943-0.811,4.922-2.018,7.441c-1.194,2.477-1.694,5.055-2.566,7.63C93.334,60.698,92.738,61.847,92.014,62.897z"/>
	<path fill="#AC3925" d="M106.146,30.355c1.005-0.173,2.11-0.514,3.235-0.87c2.477-0.774,3.92-0.742,3.689-3.771
		c-0.183-2.457-1.612-4.874-4.018-5.692c-4.347-1.484-7.867,1.936-7.609,6.228C101.683,30.202,103.619,30.793,106.146,30.355z"/>
	<path fill="#AC3925" d="M91.22,14.814c-2.678,2.438-9.126-0.164-8.356-4.331c0.975-4.911,13.057-3.92,9.406,3.427L91.22,14.814z"/>
	<path fill="#AC3925" d="M85.028,80.337c0.906-2.094,0.224-5.603-2.993-5.18c-2.849,0.377-1.961,5.18-0.094,6.292
		C83.396,82.312,84.491,81.575,85.028,80.337z"/>
	<path fill="#F9AB5A" d="M106.799,91.23c-2.687-0.352-5.023-3.397-2.187-4.993c3.045-2.34,10.141,3.63,4.406,5.614L106.799,91.23z"
		/>
	<path fill="#AC3925" d="M122.945,93.999c1.352-0.148,5.118-1.167,5.514-2.685c0.454-1.721-1.443-2.984-2.943-2.973
		C121.853,88.373,119.648,91.78,122.945,93.999z"/>
	<path fill="#AC3925" d="M125.376,9.141c-1.135-0.039-2.171-0.002-2.986,0.055c-4.119,0.306-12.643-2.479-15.662,1.463
		c-3.016,3.94,2.322,5.329,5.333,5.794c2.781,0.23,5.568,0,8.349,0.696c2.55,0.696,4.173,2.32,6.495,3.246
		c4.635,1.856,8.349-0.231,8.349-5.331C135.255,10.421,129.643,9.275,125.376,9.141z"/>
	<path fill="#F9AB5A" d="M129.917,62.137c-1.854-0.461-8.114,1.157-3.708,4.176c2.32,1.623,8.114-0.466,5.561-3.715L129.917,62.137z
		"/>
	<path fill="#F9AB5A" d="M138.962,81.385c-3.246,0.231,0.927,4.868,2.55,1.393c-0.231,0-0.696-0.233-1.158-0.466L138.962,81.385z"/>
	<path fill="#F9AB5A" d="M93.279,98.083c1.393-0.696,5.333-1.393,6.26,0.23c1.623,2.783-4.406,2.783-5.795,1.158L93.279,98.083z"/>
	<path fill="#F9AB5A" d="M60.579,45.208c-5.794,3.715,3.479,6.029,0.696,1.623L60.579,45.208z"/>
	<path fill="#F9AB5A" d="M138.962,25.268c-1.157,0-2.319,0.231-2.089,1.388c0.235,1.623,5.566,1.162,2.55-1.157L138.962,25.268z"/>
	<path fill="#F9AB5A" d="M121.568,30.37c-0.927-5.338,6.495,1.854,1.162,1.619L121.568,30.37z"/>
	<path fill="#F47741" d="M86.553,43.124c0.815,0.169,1.365,0.566,1.886,0.961c0.5,0.436,0.952,0.868,1.361,1.589
		c-0.415,0.055-0.79-0.023-1.144-0.144c-0.361-0.114-0.667-0.322-0.957-0.541C87.151,44.509,86.717,43.929,86.553,43.124z"/>
	<path fill="#F47741" d="M87.019,39.414c0.596-0.322,1.13-0.31,1.664-0.148c0.258,0.107,0.518,0.238,0.721,0.464
		c0.205,0.224,0.377,0.495,0.395,0.845c-0.676-0.016-1.05-0.057-1.504-0.208C87.87,40.19,87.409,39.978,87.019,39.414z"/>
	<path fill="#F47741" d="M132.451,56.413c2.203,1.591,4.351,2.751,6.742,3.459c2.377,0.744,4.863,1.016,7.559,1.31
		c-2.5,1.087-5.404,1.16-8.071,0.365c-1.326-0.422-2.603-1.052-3.685-1.934C133.91,58.765,133.01,57.63,132.451,56.413z"/>
	<path fill="#F47741" d="M145.163,66.347c0.902-0.895,1.587-1.365,2.409-1.884c0.817-0.479,1.584-0.906,2.756-1.297
		c-0.046,0.612-0.26,1.185-0.603,1.644c-0.331,0.47-0.772,0.838-1.242,1.151c-0.495,0.272-1.02,0.493-1.587,0.575
		C146.296,66.641,145.739,66.566,145.163,66.347z"/>
	<path fill="#972E22" d="M126.89,17.485c1.45-0.683,2.621-1.365,3.114-2.228c0.235-0.409,0.288-0.749,0.107-1.267
		c-0.208-0.505-0.678-1.075-1.235-1.669c0.804-0.03,1.685,0.16,2.352,0.877c0.345,0.345,0.568,0.854,0.641,1.395
		c0.05,0.548-0.107,1.091-0.345,1.536C130.408,17.857,128.342,18.161,126.89,17.485z"/>
	<path fill="#F47741" d="M63.796,64.477c0.377,2.564,1.422,4.568,2.998,6.265c1.557,1.717,3.5,3.055,5.683,4.415
		c-2.6-0.028-5.148-1.269-6.977-3.235c-0.893-1-1.619-2.203-1.941-3.53C63.204,67.082,63.303,65.669,63.796,64.477z"/>
	<path fill="#F47741" d="M63.131,76.495c1.854,0.516,3.445,1.091,5.107,1.701c1.637,0.644,3.274,1.267,4.909,2.306
		c-1.915,0.32-3.781-0.032-5.532-0.669C65.898,79.152,64.191,78.145,63.131,76.495z"/>
	<path fill="#972E22" d="M71.807,39.77c1.1,1.372,1.79,3.094,2.066,4.886c0.231,1.801,0.055,3.607-0.126,5.347
		c-0.169,1.747-0.429,3.443-0.431,5.125c0.071,1.715-0.235,3.651-0.413,5.276c-0.208,1.692-0.132,3.215,1.073,3.87
		c1.176,0.719,3.057,0.915,4.602,0.909c1.598-0.053,3.157-0.717,4.169-2.007c1.08-1.247,1.553-2.977,1.749-4.708
		c0.194,1.737-0.075,3.6-1.053,5.21c-1,1.607-2.868,2.621-4.735,2.847c-0.938,0.144-1.895,0.096-2.781-0.009
		c-0.92-0.107-1.879-0.301-2.806-0.82c-0.945-0.491-1.692-1.559-1.888-2.589c-0.228-1.032-0.155-1.986-0.073-2.886
		c0.231-1.836,0.507-3.361,0.5-5.148c0.107-1.808,0.4-3.571,0.76-5.271C73.149,46.436,73.487,42.952,71.807,39.77z"/>
</g>
</svg>
