<?xml version="1.0" encoding="utf-8"?>
<!-- Generator: Adobe Illustrator 17.0.0, SVG Export Plug-In . SVG Version: 6.00 Build 0)  -->
<!DOCTYPE svg PUBLIC "-//W3C//DTD SVG 1.1//EN" "http://www.w3.org/Graphics/SVG/1.1/DTD/svg11.dtd">
<svg version="1.1" id="Layer_1" xmlns="http://www.w3.org/2000/svg" xmlns:xlink="http://www.w3.org/1999/xlink" x="0px" y="0px"
	 width="210px" height="110px" viewBox="0 0 210 110" enable-background="new 0 0 210 110" xml:space="preserve">
<g>
	<path fill="#674532" d="M110.863,37.9c17.232,6.227,33.082,12.848,46.45,19.233c0.025-0.705,0.098-1.484,0.289-2.241
		c-13.618-6.338-29.246-12.787-46.075-18.866C94.794,29.98,78.751,24.975,64.311,21.158c-0.102,0.745-0.231,1.462-0.308,2.139
		C78.083,26.905,94.083,31.84,110.863,37.9z"/>
	<path fill="#6F4C34" d="M109.499,42.653c18.774,6.784,35.507,14.061,47.891,20.559c0.123-1.087,0.36-2.155,0.687-3.174
		c-13.461-6.458-29.828-13.301-47.731-19.768c-16.13-5.83-31.487-10.623-44.954-14.175c-0.372,0.945-0.754,1.89-1.056,2.835
		C77.19,31.944,92.849,36.638,109.499,42.653z"/>
	<path fill="none" stroke="#785643" stroke-width="0.5" stroke-miterlimit="10" d="M62.781,30.097
		c12.722,3.032,28.849,7.914,46.149,14.163c19.657,7.105,37.04,14.606,49.156,20.95"/>
	<path fill="none" stroke="#866858" stroke-width="0.25" stroke-miterlimit="10" d="M58.013,30.651
		c12.787,2.983,30.708,8.428,50.246,15.49c21.871,7.902,40.897,16.065,52.533,22.259"/>
	<g>
		<path fill="#8F7D95" d="M154.004,33.003c-1.01-2.179-2.164-4.276-3.454-6.28c-16.056-1.838-31.97-5.944-47.066-10.909
			c-6.563-2.189-13.726-4.497-20.19-7.813c-1.284,0.634-2.543,1.314-3.765,2.047c7.6,4.722,16.598,8.616,23.471,11.174
			C119.254,27.385,136.52,31.698,154.004,33.003z"/>
		<path fill="#AF8F90" d="M155.743,37.211c-0.514-1.434-1.102-2.835-1.739-4.208c-17.484-1.305-34.75-5.618-50.997-11.78
			c-6.877-2.561-15.874-6.452-23.471-11.174c-1.182,0.711-2.333,1.474-3.454,2.275c19.639,11.374,37.671,16.268,59.77,21.101
			C141.925,34.767,148.706,36.047,155.743,37.211z"/>
		<path fill="#CD8B45" d="M106.455,107.391c6.597,0,12.901-1.231,18.719-3.457c-23.755-3.675-47.152-12.498-66.025-26.405
			C67.571,95.189,85.587,107.391,106.455,107.391z"/>
		<path fill="#DCB57F" d="M158.843,54.769c-0.028-6.163-1.121-12.076-3.103-17.561c-7.037-1.164-13.818-2.444-19.891-3.783
			c-22.099-4.833-40.131-9.73-59.77-21.101c-4.288,3.06-8.096,6.738-11.288,10.922c3.777,2.056,7.64,3.989,11.509,5.806
			C101.483,40.859,130.591,52.039,158.843,54.769z"/>
		<path fill="#5C5173" d="M150.553,26.723c-2.318-3.608-5.067-6.914-8.176-9.841C127.34,14.146,112.18,9.987,98.765,3.175
			c-5.479,0.806-10.678,2.463-15.468,4.827c6.464,3.315,13.627,5.624,20.19,7.813C118.58,20.779,134.497,24.886,150.553,26.723z"/>
		<path fill="#3C345E" d="M106.455,2.609c-2.61,0-5.181,0.197-7.689,0.566c13.415,6.812,28.575,10.971,43.612,13.707
			C132.995,8.039,120.359,2.609,106.455,2.609z"/>
		<path fill="#AF7835" d="M158.615,59.873c0.145-1.604,0.234-3.226,0.234-4.873c0-0.077-0.003-0.154-0.003-0.231
			c-28.252-2.733-57.359-13.91-82.542-25.722c-3.869-1.813-7.733-3.749-11.509-5.806c-0.56,0.73-1.099,1.471-1.616,2.232
			c3.143,2.029,6.409,3.845,9.278,5.498C98.504,45.83,128.605,56.425,158.615,59.873z"/>
		<path fill="#CD8B45" d="M158.273,62.742c0.138-0.948,0.249-1.905,0.339-2.869C128.602,56.425,98.5,45.83,72.449,30.975
			c-2.869-1.653-6.138-3.469-9.278-5.498c-1.204,1.758-2.29,3.595-3.272,5.498c13.104,6.846,27.479,11.956,41.423,16.604
			C119.589,53.562,138.881,59.18,158.273,62.742z"/>
		<path fill="#D69548" d="M56.166,40.292c-0.81,2.777-1.397,5.649-1.739,8.594c8.73,6.27,17.931,11.83,27.405,16.493
			c20.332,10.007,43.711,17.244,67.167,20.178c1.391-1.936,2.66-3.971,3.783-6.092c-24.81-5.116-49.042-14.972-71.433-25.635
			C72.957,49.632,64.425,45.15,56.166,40.292z"/>
		<path fill="#D7AC77" d="M101.323,47.575c-13.941-4.648-28.32-9.758-41.423-16.604c-1.53,2.952-2.783,6.073-3.734,9.321
			c8.259,4.857,16.789,9.339,25.186,13.538c22.391,10.663,46.623,20.519,71.433,25.635c2.712-5.131,4.605-10.765,5.489-16.727
			C138.881,59.18,119.589,53.562,101.323,47.575z"/>
		<path fill="#EFC281" d="M54.088,53.87c-0.006,0.376-0.028,0.751-0.028,1.13c0,8.068,1.825,15.705,5.085,22.529
			c18.872,13.907,42.27,22.726,66.025,26.405c9.044-3.463,16.884-9.358,22.711-16.884c-20.184-2.419-40.06-7.335-58.831-14.932
			C78.009,67.581,64.065,62.071,54.088,53.87z"/>
		<path fill="#AF7835" d="M54.427,48.887c-0.194,1.641-0.305,3.303-0.339,4.987c9.977,8.2,23.921,13.71,34.965,18.245
			c18.771,7.6,38.647,12.516,58.831,14.932c0.385-0.489,0.754-0.988,1.117-1.49c-23.456-2.937-46.835-10.17-67.167-20.178
			C72.36,60.716,63.16,55.154,54.427,48.887z"/>
		<path fill="#CB975E" d="M71.4,78.653c4.587,2.296,9.158,4.457,13.849,6.387c4.694,1.899,9.429,3.678,14.249,5.211
			c4.805,1.585,9.684,2.921,14.594,4.211c4.913,1.265,9.881,2.343,14.874,3.472c-5.119-0.175-10.207-0.822-15.256-1.736
			c-5.051-0.893-10.029-2.192-14.926-3.752c-4.876-1.61-9.681-3.481-14.268-5.799C79.927,84.366,75.466,81.75,71.4,78.653z"/>
		<path fill="#CB975E" d="M123.803,99.354c0.372-0.905,0.81-1.108,1.274-1.093c0.434,0.068,0.908,0.403,0.997,1.379
			c-0.649,0.77-0.917,0.914-1.25,0.914C124.527,100.481,124.197,100.262,123.803,99.354z"/>
		<path fill="#AF7835" d="M59.152,42.641c6.443,3.86,13.073,7.314,19.855,10.438c6.788,3.112,13.658,6.039,20.667,8.634
			c6.944,2.764,14.015,5.205,21.076,7.696c7.061,2.496,14.166,4.888,21.203,7.523c-7.314-1.715-14.554-3.685-21.754-5.833
			c-7.197-2.149-14.298-4.617-21.354-7.234c-6.984-2.792-13.935-5.713-20.618-9.198C71.551,51.183,65.062,47.292,59.152,42.641z"/>
		<path fill="#AF7835" d="M126.358,78.087c4.368,0.086,8.539,0.302,12.805,0.582c4.239,0.351,8.573,0.779,12.713,2.253
			c-4.353,0.339-8.585,0.339-12.885,0.049C134.722,80.614,130.342,79.952,126.358,78.087z"/>
		<path fill="#CB975E" d="M79.283,27.327c3.614,1.453,7.169,2.823,10.808,4.045c3.638,1.194,7.277,2.355,10.965,3.392l11.082,3.124
			c3.703,1.05,7.428,2.069,11.1,3.334c-3.872-0.326-7.693-0.914-11.503-1.604c-3.814-0.671-7.585-1.585-11.322-2.638
			c-3.722-1.105-7.418-2.349-10.968-3.962C85.901,31.436,82.42,29.608,79.283,27.327z"/>
		<path fill="#8F7D95" d="M94.311,9.747c3.143,1.185,6.092,2.432,9.139,3.642c3.014,1.256,6.058,2.441,9.01,4.014
			c-1.662-0.197-3.275-0.579-4.879-1c-1.604-0.422-3.164-0.988-4.71-1.588c-1.53-0.649-3.041-1.345-4.479-2.189l-2.121-1.33
			C95.619,10.775,94.942,10.304,94.311,9.747z"/>
		<path fill="#CB975E" d="M58.869,63.622c2.696,1.542,5.144,2.94,7.717,4.34c2.536,1.441,5.141,2.798,7.594,4.734
			c-3.115-0.234-6.015-1.259-8.714-2.718C62.824,68.48,60.272,66.454,58.869,63.622z"/>
		<path fill="#CB975E" d="M63.175,69.295c2.342,0.708,4.346,1.462,6.43,2.33c2.05,0.908,4.097,1.828,6.049,3.34
			c-2.463,0.243-4.774-0.326-6.954-1.219C66.573,72.795,64.428,71.468,63.175,69.295z"/>
		<path fill="#CB975E" d="M144.221,38.67c1.391-0.591,2.604-0.526,3.759-0.32c1.157,0.268,2.256,0.668,3.331,1.736
			c-1.314,0.745-2.592,0.736-3.799,0.523C146.308,40.317,145.172,39.843,144.221,38.67z"/>
	</g>
	<path fill="#674532" d="M157.605,54.892c-0.191,0.757-0.265,1.536-0.289,2.241c26.623,12.71,43.357,24.469,41.297,30.268
		c-3.094,8.708-47.395,0.665-98.952-17.964C48.107,50.807,8.823,28.647,11.917,19.939c2.084-5.87,22.936-4.116,52.096,3.361
		c0.077-0.68,0.206-1.394,0.308-2.139C29.191,11.877,3.593,9.652,1.035,16.852C-2.573,27.007,41.049,52.06,98.464,72.807
		c57.421,20.75,106.897,29.335,110.502,19.18C211.514,84.8,190.444,70.179,157.605,54.892z"/>
	<path fill="#6F4C34" d="M158.076,60.039c-0.329,1.019-0.566,2.087-0.687,3.174c14.492,7.603,23.016,14.138,21.806,17.549
		c-2.247,6.329-37.099-0.477-77.839-15.197C60.62,50.844,29.413,33.782,31.663,27.453c1.33-3.74,14.061-2.887,32.672,1.478
		c0.302-0.945,0.683-1.89,1.056-2.835c-27.612-7.283-47.241-9.321-49.064-4.183c-2.718,7.643,34.975,28.255,84.186,46.038
		s91.312,26.002,94.021,18.358C196.262,81.442,181.622,71.333,158.076,60.039z"/>
	<path fill="none" stroke="#785643" stroke-width="0.5" stroke-miterlimit="10" d="M158.086,65.21
		c11.753,6.153,18.546,11.214,17.644,13.766c-1.841,5.178-34.732-1.973-73.462-15.97C63.535,49.013,33.627,33.471,35.471,28.293
		c1.016-2.866,11.54-1.955,27.31,1.804"/>
	<path fill="none" stroke="#866858" stroke-width="0.25" stroke-miterlimit="10" d="M160.791,68.403
		c8.099,4.31,12.621,7.674,12.033,9.33c-1.437,4.045-32.675-3.543-69.774-16.946C65.958,47.385,37.053,33.24,38.491,29.195
		c0.677-1.915,8.034-1.222,19.519,1.456"/>
</g>
</svg>
