<?xml version="1.0" encoding="utf-8"?>
<!-- Generator: Adobe Illustrator 17.0.0, SVG Export Plug-In . SVG Version: 6.00 Build 0)  -->
<!DOCTYPE svg PUBLIC "-//W3C//DTD SVG 1.1//EN" "http://www.w3.org/Graphics/SVG/1.1/DTD/svg11.dtd">
<svg version="1.1" id="Capa_1" xmlns="http://www.w3.org/2000/svg" xmlns:xlink="http://www.w3.org/1999/xlink" x="0px" y="0px"
	 width="80px" height="80px" viewBox="295 320 80 80" enable-background="new 295 320 80 80" xml:space="preserve">
<g>
	<g>
		<g>
			<path fill="#18A489" d="M341.836,336.348c-0.755,0-1.367,0.613-1.367,1.367s0.613,1.367,1.367,1.367s1.367-0.613,1.367-1.367
				S342.591,336.348,341.836,336.348z"/>
		</g>
	</g>
	<g>
		<g>
			<path fill="#18A489" d="M328.164,336.348c-0.755,0-1.367,0.613-1.367,1.367s0.612,1.367,1.367,1.367
				c0.755,0,1.367-0.613,1.367-1.367S328.919,336.348,328.164,336.348z"/>
		</g>
	</g>
	<g>
		<g>
			<path fill="#FFFFFF" d="M364.685,365.863c1.173-1.761,1.761-3.959,1.761-5.863c0-2.871-1.275-5.538-3.463-7.346
				c0.484-1.157,0.729-2.361,0.729-3.591c0-3.808-2.223-7.356-5.527-9.012c0.501-4.158-2.208-7.97-6.223-8.942
				c-1.572-3.633-5.07-6.108-8.758-6.108c-3.433,0-6.512,2.002-8.203,4.924c-1.691-2.922-4.77-4.924-8.203-4.924
				c-3.688,0-7.186,2.475-8.758,6.108c-4.039,0.978-6.723,4.809-6.223,8.942c-3.304,1.656-5.527,5.204-5.527,9.012
				c0,1.231,0.245,2.434,0.729,3.591c-2.188,1.809-3.463,4.476-3.463,7.346c0,1.914,0.592,4.109,1.761,5.863
				c-1.142,1.612-1.761,3.522-1.761,5.485c0,2.545,1.032,4.97,2.857,6.77c-0.938,5.673,3.586,11.414,9.447,11.414
				c0.042,0,0.084-0.001,0.125-0.002c1.944,3.353,5.551,5.471,9.445,5.471c4.059,0,7.686-2.436,9.57-5.946
				c1.885,3.51,5.511,5.946,9.57,5.946c3.894,0,7.502-2.118,9.445-5.471c0.041,0.001,0.083,0.002,0.125,0.002
				c5.188,0,9.57-4.57,9.57-9.98c0-0.461-0.04-0.934-0.123-1.433c1.825-1.8,2.857-4.225,2.857-6.77
				C366.445,369.385,365.827,367.475,364.685,365.863z M333.633,345.697c-0.805-0.467-1.739-0.736-2.734-0.736
				c-0.755,0-1.367,0.612-1.367,1.367s0.612,1.367,1.367,1.367c1.508,0,2.734,1.227,2.734,2.734v26
				c-2.006-2.275-4.939-3.715-8.203-3.715c-0.755,0-1.367,0.612-1.367,1.367c0,0.755,0.612,1.367,1.367,1.367
				c4.523,0,8.203,3.68,8.203,8.203c0,4.669-3.757,8.613-8.203,8.613c-3.165,0-6.079-1.872-7.424-4.769
				c-0.248-0.534-0.809-0.849-1.395-0.783c-0.097,0.011-0.193,0.024-0.289,0.037c-3.891,0.532-8.273-3.874-7.087-8.803
				c0.122-0.506-0.055-1.038-0.455-1.371c-1.584-1.318-2.492-3.224-2.492-5.23c0-1.24,0.351-2.454,1.003-3.518
				c1.64,1.344,3.68,2.151,5.833,2.151c0.755,0,1.367-0.612,1.367-1.367c0-0.755-0.612-1.367-1.367-1.367
				c-3.71,0-6.836-3.387-6.836-7.246c0-2.341,1.193-4.495,3.193-5.762c0.616-0.39,0.817-1.195,0.458-1.829
				c-0.608-1.072-0.916-2.198-0.916-3.347c0-3.69,3.008-7.246,6.836-7.246c3.642,0,6.836,3.386,6.836,7.246
				c0,0.755,0.612,1.367,1.367,1.367c0.755,0,1.367-0.612,1.367-1.367c0-5.41-4.383-9.98-9.57-9.98
				c-0.458,0-0.913,0.037-1.364,0.107c-0.001-0.036-0.003-0.071-0.003-0.107c0-3.051,2.477-5.469,5.469-5.469
				c1.46,0,2.834,0.569,3.868,1.602c0.534,0.534,1.4,0.533,1.933-0.001c0.534-0.534,0.533-1.4-0.001-1.933
				c-1.247-1.246-2.825-2.041-4.535-2.304c1.206-1.79,3.211-3.242,5.57-3.242c3.642,0,6.836,3.386,6.836,7.246V345.697z
				 M356.875,369.98c2.153,0,4.193-0.807,5.833-2.15c0.652,1.064,1.003,2.278,1.003,3.518c0,2.006-0.908,3.912-2.492,5.23
				c-0.4,0.333-0.577,0.864-0.455,1.371c0.145,0.602,0.212,1.111,0.212,1.602c0,4.244-3.838,7.673-7.299,7.2
				c-0.096-0.013-0.192-0.026-0.289-0.037c-0.586-0.066-1.147,0.249-1.394,0.783c-1.345,2.897-4.259,4.769-7.424,4.769
				c-4.446,0-8.203-3.944-8.203-8.613c0-4.523,3.68-8.203,8.203-8.203c0.755,0,1.367-0.612,1.367-1.367
				c0-0.755-0.612-1.367-1.367-1.367c-3.264,0-6.197,1.439-8.203,3.715v-26c0-1.508,1.227-2.734,2.734-2.734
				c0.755,0,1.367-0.612,1.367-1.367s-0.612-1.367-1.367-1.367c-0.996,0-1.929,0.269-2.734,0.736V334.98
				c0-3.86,3.194-7.246,6.836-7.246c2.359,0,4.364,1.452,5.57,3.242c-1.71,0.263-3.287,1.058-4.534,2.304
				c-0.534,0.534-0.535,1.399-0.001,1.933s1.399,0.535,1.933,0.001c1.034-1.033,2.408-1.602,3.868-1.602
				c3.007,0,5.469,2.432,5.469,5.469c0,0.036-0.003,0.071-0.003,0.107c-0.451-0.07-0.906-0.107-1.364-0.107
				c-5.188,0-9.57,4.57-9.57,9.98c0,0.755,0.612,1.367,1.367,1.367c0.755,0,1.367-0.612,1.367-1.367c0-3.86,3.194-7.246,6.836-7.246
				c3.826,0,6.836,3.554,6.836,7.246c0,1.149-0.308,2.275-0.916,3.347c-0.36,0.634-0.158,1.439,0.458,1.829
				c1.999,1.266,3.193,3.42,3.193,5.762c0,3.873-3.136,7.246-6.836,7.246c-0.755,0-1.367,0.612-1.367,1.367
				S356.12,369.98,356.875,369.98z"/>
		</g>
	</g>
	<g>
		<g>
			<path fill="#18A489" d="M330.55,354.265c-0.503-0.563-1.368-0.611-1.93-0.108c-4.384,3.922-11.393,0.787-11.393-5.095
				c0-0.755-0.612-1.367-1.367-1.367s-1.367,0.612-1.367,1.367c0,4.746,3.474,8.695,8.012,9.441c-0.526,1.658-2.08,2.863-3.91,2.863
				c-0.755,0-1.367,0.612-1.367,1.367c0,0.755,0.612,1.367,1.367,1.367c3.33,0,6.11-2.394,6.713-5.551
				c1.901-0.249,3.691-1.062,5.136-2.355C331.005,355.692,331.054,354.828,330.55,354.265z"/>
		</g>
	</g>
	<g>
		<g>
			<path fill="#18A489" d="M315.859,378.184c-0.755,0-1.367,0.612-1.367,1.367c0,0.755,0.612,1.367,1.367,1.367
				c3.642,0,6.836,3.386,6.836,7.246c0,0.755,0.612,1.367,1.367,1.367s1.367-0.612,1.367-1.367
				C325.43,382.754,321.047,378.184,315.859,378.184z"/>
		</g>
	</g>
	<g>
		<g>
			<path fill="#18A489" d="M326.797,367.246c-4.633,0-8.611,2.541-10.705,6.235c-0.372,0.657-0.142,1.491,0.515,1.864
				c0.657,0.372,1.491,0.142,1.864-0.515c1.632-2.879,4.728-4.85,8.326-4.85c0.755,0,1.367-0.612,1.367-1.367
				C328.164,367.858,327.552,367.246,326.797,367.246z"/>
		</g>
	</g>
	<g>
		<g>
			<path fill="#18A489" d="M351.406,361.367c-1.83,0-3.384-1.205-3.91-2.863c4.538-0.747,8.012-4.695,8.012-9.441
				c0-0.755-0.612-1.367-1.367-1.367s-1.367,0.612-1.367,1.367c0,3.769-3.067,6.836-6.836,6.836c-1.684,0-3.302-0.618-4.557-1.741
				c-0.563-0.503-1.427-0.455-1.93,0.107c-0.504,0.563-0.455,1.427,0.107,1.93c1.445,1.293,3.235,2.106,5.136,2.355
				c0.603,3.157,3.383,5.551,6.713,5.551c0.755,0,1.367-0.612,1.367-1.367S352.161,361.367,351.406,361.367z"/>
		</g>
	</g>
	<g>
		<g>
			<path fill="#18A489" d="M354.141,378.184c-5.188,0-9.57,4.57-9.57,9.98c0,0.755,0.612,1.367,1.367,1.367
				c0.755,0,1.367-0.612,1.367-1.367c0-3.86,3.194-7.246,6.836-7.246c0.755,0,1.367-0.612,1.367-1.367
				C355.508,378.796,354.896,378.184,354.141,378.184z"/>
		</g>
	</g>
	<g>
		<g>
			<path fill="#18A489" d="M353.908,373.482c-2.089-3.686-6.062-6.236-10.705-6.236c-0.755,0-1.367,0.612-1.367,1.367
				c0,0.755,0.612,1.367,1.367,1.367c3.596,0,6.694,1.97,8.326,4.85c0.373,0.658,1.208,0.887,1.864,0.515
				C354.05,374.973,354.28,374.139,353.908,373.482z"/>
		</g>
	</g>
</g>
</svg>
