<?xml version="1.0" encoding="utf-8"?>
<!-- Generator: Adobe Illustrator 17.0.0, SVG Export Plug-In . SVG Version: 6.00 Build 0)  -->
<!DOCTYPE svg PUBLIC "-//W3C//DTD SVG 1.1//EN" "http://www.w3.org/Graphics/SVG/1.1/DTD/svg11.dtd">
<svg version="1.1" id="Capa_1" xmlns="http://www.w3.org/2000/svg" xmlns:xlink="http://www.w3.org/1999/xlink" x="0px" y="0px"
	 width="80px" height="80px" viewBox="574 562 80 80" enable-background="new 574 562 80 80" xml:space="preserve">
<g>
	<path fill="#FFFFFF" d="M626.823,599.697c0.644,0,1.166-0.522,1.166-1.166c0-0.644-0.522-1.166-1.166-1.166h-13.989
		c-0.644,0-1.166,0.522-1.166,1.166c0,0.644,0.522,1.166,1.166,1.166H626.823z"/>
	<path fill="#FFFFFF" d="M631.486,599.193c-0.644,0-1.166,0.632-1.166,1.276v30.703c0,1.931-1.565,3.497-3.497,3.497h-25.646
		c-1.931,0-3.497-1.566-3.497-3.497V612.52c0-0.644-0.522-1.166-1.166-1.166c-0.644,0-1.166,0.522-1.166,1.166v18.652
		c0.004,3.217,2.612,5.825,5.829,5.829h25.646c3.218-0.004,5.825-2.612,5.829-5.829v-30.703
		C632.652,599.825,632.13,599.193,631.486,599.193z"/>
	<path fill="#FFFFFF" d="M602.343,612.52c-0.644,0-1.166,0.522-1.166,1.166c0,0.644,0.522,1.166,1.166,1.166h9.326
		c0.644,0,1.166-0.522,1.166-1.166c0-0.644-0.522-1.166-1.166-1.166H602.343z"/>
	<path fill="#18A489" d="M625.657,618.348h-17.486c-0.644,0-1.166,0.522-1.166,1.166c0,0.644,0.522,1.166,1.166,1.166h17.486
		c0.644,0,1.166-0.522,1.166-1.166C626.823,618.87,626.301,618.348,625.657,618.348z"/>
	<path fill="#FFFFFF" d="M625.794,607.484h-15.429c-0.568,0-1.029,0.522-1.029,1.166c0,0.644,0.461,1.166,1.029,1.166h15.429
		c0.568,0,1.029-0.522,1.029-1.166C626.823,608.006,626.362,607.484,625.794,607.484z"/>
	<path fill="#18A489" d="M626.119,602.611h-10.567c-0.389,0-0.704,0.522-0.704,1.166c0,0.644,0.315,1.166,0.704,1.166h10.567
		c0.389,0,0.704-0.522,0.704-1.166C626.823,603.133,626.508,602.611,626.119,602.611z"/>
	<path fill="#FFFFFF" d="M612.834,625.343c0-0.644-0.522-1.166-1.166-1.166h-9.326c-0.644,0-1.166,0.522-1.166,1.166
		c0,0.644,0.522,1.166,1.166,1.166h9.326C612.312,626.508,612.834,625.987,612.834,625.343z"/>
	<path fill="#FFFFFF" d="M626.823,625.343c0-0.644-0.522-1.166-1.166-1.166h-8.16c-0.644,0-1.166,0.522-1.166,1.166
		c0,0.644,0.522,1.166,1.166,1.166h8.16C626.301,626.508,626.823,625.987,626.823,625.343z"/>
	<path fill="#FFFFFF" d="M626.823,613.685c0-0.644-0.522-1.166-1.166-1.166h-8.16c-0.644,0-1.166,0.522-1.166,1.166
		c0,0.644,0.522,1.166,1.166,1.166h8.16C626.301,614.851,626.823,614.329,626.823,613.685z"/>
	<path fill="#FFFFFF" d="M602.343,628.84c-0.644,0-1.166,0.522-1.166,1.166c0,0.644,0.522,1.166,1.166,1.166h6.994
		c0.644,0,1.166-0.522,1.166-1.166c0-0.644-0.522-1.166-1.166-1.166H602.343z"/>
	<path fill="#FFFFFF" d="M615.166,628.84c-0.644,0-1.166,0.522-1.166,1.166c0,0.644,0.522,1.166,1.166,1.166h6.994
		c0.644,0,1.166-0.522,1.166-1.166c0-0.644-0.522-1.166-1.166-1.166H615.166z"/>
	<path fill="#FFFFFF" d="M609.337,603.194v-9.326c-0.003-3.218-2.611-5.825-5.829-5.829v-1.166c0-1.932-1.565-3.497-3.497-3.497
		c-1.931,0-3.497,1.565-3.497,3.497v1.166h-11.657c-3.217,0.003-5.825,2.611-5.829,5.829v9.326c0.004,3.217,2.611,5.825,5.829,5.829
		h18.652C606.726,609.019,609.334,606.411,609.337,603.194z M598.846,586.874c0-0.644,0.522-1.166,1.166-1.166
		c0.644,0,1.166,0.522,1.166,1.166v1.166h-2.331V586.874z M581.36,603.194v-9.326c0-1.932,1.566-3.497,3.497-3.497h18.652
		c1.932,0,3.497,1.565,3.497,3.497v9.326c0,1.931-1.565,3.497-3.497,3.497h-18.652C582.925,606.691,581.36,605.125,581.36,603.194z"
		/>
	<path fill="#18A489" d="M598.846,597.365c-0.644,0-1.166,0.522-1.166,1.166c0,1.931-1.565,3.497-3.497,3.497
		c-1.931,0-3.497-1.566-3.497-3.497c0-1.932,1.566-3.497,3.497-3.497c0.644,0,1.166-0.522,1.166-1.166
		c0-0.644-0.522-1.166-1.166-1.166c-3.219,0-5.829,2.609-5.829,5.829c0,3.219,2.61,5.829,5.829,5.829
		c3.219,0,5.829-2.61,5.829-5.829C600.011,597.887,599.489,597.365,598.846,597.365z"/>
	<path fill="#FFFFFF" d="M586.023,603.194c0,0.644-0.522,1.166-1.166,1.166c-0.644,0-1.166-0.522-1.166-1.166
		c0-0.644,0.522-1.166,1.166-1.166C585.501,602.028,586.023,602.55,586.023,603.194z"/>
	<path fill="#FFFFFF" d="M648.381,576.534c-0.366-0.207-0.815-0.202-1.175,0.015l-5.551,3.33h-3.174
		c-0.007-2.613-1.755-4.901-4.275-5.596c1.293-1.92,0.986-4.497-0.722-6.059c-1.708-1.563-4.302-1.639-6.099-0.18
		c-1.797,1.458-2.256,4.013-1.079,6.006h-3.194c0.138-0.373,0.211-0.768,0.214-1.166c0.001-1.584-1.063-2.971-2.592-3.38
		c-1.53-0.409-3.144,0.26-3.935,1.633c-0.791,1.372-0.561,3.104,0.561,4.223c-1.063,0.841-1.798,2.027-2.078,3.354h-4.78
		c-0.334,0-0.652,0.143-0.874,0.394c-0.221,0.25-0.324,0.584-0.282,0.916l0.583,4.663c0.093,0.626,0.669,1.063,1.297,0.985
		c0.628-0.079,1.079-0.644,1.016-1.274l-0.418-3.353h3.342v6.994h-3.497c-0.644,0-1.166,0.522-1.166,1.166
		c0,0.644,0.522,1.166,1.166,1.166h3.614c0.558,2.712,2.943,4.659,5.712,4.663h11.657c3.218-0.004,5.825-2.611,5.829-5.829h3.174
		l5.551,3.33c0.36,0.216,0.808,0.222,1.174,0.015c0.365-0.207,0.591-0.594,0.591-1.014v-13.989
		C648.972,577.128,648.746,576.741,648.381,576.534z M627.989,571.719c0-1.288,1.044-2.331,2.331-2.331
		c1.288,0,2.331,1.044,2.331,2.331s-1.043,2.331-2.331,2.331C629.033,574.051,627.989,573.007,627.989,571.719z M619.829,571.719
		c0.644,0,1.166,0.522,1.166,1.166c0,0.644-0.522,1.166-1.166,1.166c-0.644,0-1.166-0.522-1.166-1.166
		C618.663,572.241,619.185,571.719,619.829,571.719z M636.149,589.205c0,1.931-1.565,3.497-3.497,3.497h-11.657
		c-1.931,0-3.497-1.566-3.497-3.497v-9.326c0-1.932,1.566-3.497,3.497-3.497h11.657c1.932,0,3.497,1.565,3.497,3.497V589.205z
		 M638.48,582.211h2.331v4.663h-2.331V582.211z M646.64,589.478l-3.497-2.098v-5.675l3.497-2.099V589.478z"/>
	<path fill="#18A489" d="M630.32,578.714h-6.994c-0.644,0-1.166,0.522-1.166,1.166c0,0.644,0.522,1.166,1.166,1.166h6.994
		c0.644,0,1.166,0.522,1.166,1.166v2.331c0,0.644-0.522,1.166-1.166,1.166h-6.994c-0.644,0-1.166,0.522-1.166,1.166
		c0,0.644,0.522,1.166,1.166,1.166h6.994c1.932,0,3.497-1.566,3.497-3.497v-2.331C633.817,580.279,632.252,578.714,630.32,578.714z"
		/>
</g>
</svg>
