<?xml version="1.0" encoding="utf-8"?>
<!-- Generator: Adobe Illustrator 17.0.0, SVG Export Plug-In . SVG Version: 6.00 Build 0)  -->
<!DOCTYPE svg PUBLIC "-//W3C//DTD SVG 1.1//EN" "http://www.w3.org/Graphics/SVG/1.1/DTD/svg11.dtd">
<svg version="1.1" id="Capa_1" xmlns="http://www.w3.org/2000/svg" xmlns:xlink="http://www.w3.org/1999/xlink" x="0px" y="0px"
	 width="80px" height="80px" viewBox="433 454 80 80" enable-background="new 433 454 80 80" xml:space="preserve">
<g>
	<path fill="#FFFFFF" d="M505.945,480.918h-10.959c-1.171,0-2.192,0.884-2.192,2.055v2.328H480.74c-1.171,0-2.192,0.884-2.192,2.055
		v23.15h-38.356c-0.038,0-0.137-0.099-0.137-0.137v-4.384h36.301v-2.055h-36.301v-35.205c0-0.038,0.099,0,0.137,0h59.178
		c0.038,0,0-0.038,0,0v9.863h2.055v-9.863c0-1.171-0.884-2.055-2.055-2.055h-59.178c-1.171,0-2.192,0.884-2.192,2.055v41.644
		c0,1.171,1.021,2.192,2.192,2.192h23.014v6.712h-4.384v2.055h21.918v-2.055h-4.52v-6.712h2.328v2.192
		c0,1.171,1.021,2.192,2.192,2.192h18.63c1.171,0,2.055-1.021,2.055-2.192v-7.671h4.52c1.171,0,2.055-1.021,2.055-2.192v-21.918
		C508,481.802,507.116,480.918,505.945,480.918z M474.164,519.274h-8.904v-6.712h8.904V519.274z M494.986,482.973h10.959
		c0.038,0,0-0.038,0,0v2.328h-11.096v-2.328C494.849,482.935,494.949,482.973,494.986,482.973z M494.849,487.356h11.096v13.287
		h-11.096V487.356z M499.37,514.89h-18.63c-0.037,0-0.137-0.099-0.137-0.137v-2.192h18.767v2.192
		C499.37,514.791,499.408,514.89,499.37,514.89z M499.37,510.507h-18.767v-23.15c0-0.038,0.099,0,0.137,0h12.055v17.534
		c0,1.171,1.021,2.192,2.192,2.192h4.384V510.507z M505.945,505.027h-10.959c-0.037,0-0.137-0.099-0.137-0.137v-2.192h11.096v2.192
		C505.945,504.928,505.983,505.027,505.945,505.027z"/>
	<path fill="#18A489" d="M464.301,499.548h2.192v2.055h-2.192V499.548z"/>
	<path fill="#18A489" d="M468.685,499.548h2.192v2.055h-2.192V499.548z"/>
	<path fill="#18A489" d="M473.068,499.548h2.192v2.055h-2.192V499.548z"/>
	<path fill="#18A489" d="M444.439,476.397v-3.288h3.424v-2.055h-5.479v5.343H444.439z"/>
	<path fill="#18A489" d="M481.835,492.836h2.055v-2.192h2.328v-2.055h-4.384V492.836z"/>
	<path fill="#18A489" d="M496.082,488.589v4.247h2.055v-2.192h2.328v-2.055H496.082z"/>
</g>
</svg>
