<?xml version="1.0" encoding="utf-8"?>
<!-- Generator: Adobe Illustrator 17.0.0, SVG Export Plug-In . SVG Version: 6.00 Build 0)  -->
<!DOCTYPE svg PUBLIC "-//W3C//DTD SVG 1.1//EN" "http://www.w3.org/Graphics/SVG/1.1/DTD/svg11.dtd">
<svg version="1.1" id="Capa_1" xmlns="http://www.w3.org/2000/svg" xmlns:xlink="http://www.w3.org/1999/xlink" x="0px" y="0px"
	 width="80px" height="80px" viewBox="433 320 80 80" enable-background="new 433 320 80 80" xml:space="preserve">
<g>
	<path fill="#18A489" d="M467.57,342.727c0.046,0.523,0.485,0.934,1.021,0.934c0.566,0,1.025-0.459,1.025-1.025v-10.758
		c0-0.566-0.459-1.025-1.025-1.025c-0.535,0-0.974,0.41-1.021,0.934l-4.668,1.576h-2.67c-1.653,0-2.998,1.345-2.998,2.998v1.795
		c0,1.404,0.971,2.585,2.276,2.909l1.154,2.785c0.216,0.522,0.815,0.772,1.34,0.555c0.523-0.217,0.772-0.817,0.555-1.34
		l-0.792-1.912h1.135L467.57,342.727z M467.566,340.561l-3.47-1.171v-4.267l3.47-1.171V340.561z M459.285,336.359
		c0-0.522,0.425-0.947,0.947-0.947h1.813v3.688h-1.8c-0.004,0-0.008,0-0.013,0c-0.522,0-0.947-0.425-0.947-0.947L459.285,336.359
		L459.285,336.359z"/>
	<path fill="#18A489" d="M503.94,370.235c0-0.566-0.459-1.025-1.025-1.025h-6.188c-0.566,0-1.025,0.459-1.025,1.025
		c0,0.566,0.459,1.025,1.025,1.025h6.188C503.481,371.261,503.94,370.802,503.94,370.235z"/>
	<path fill="#18A489" d="M496.727,373.118c-0.566,0-1.025,0.459-1.025,1.025c0,0.566,0.459,1.025,1.025,1.025h4.821
		c0.566,0,1.025-0.459,1.025-1.025c0-0.566-0.459-1.025-1.025-1.025H496.727z"/>
	<path fill="#18A489" d="M476.563,335.412h8.05c0.566,0,1.025-0.459,1.025-1.025c0-0.566-0.459-1.025-1.025-1.025h-8.05
		c-0.566,0-1.025,0.459-1.025,1.025C475.538,334.953,475.997,335.412,476.563,335.412L476.563,335.412z"/>
	<path fill="#18A489" d="M476.563,340.114h16.253c0.566,0,1.025-0.459,1.025-1.025c0-0.566-0.459-1.025-1.025-1.025h-16.253
		c-0.566,0-1.025,0.459-1.025,1.025C475.538,339.656,475.997,340.114,476.563,340.114L476.563,340.114z"/>
	<path fill="#18A489" d="M465.831,363.017c0.566,0,1.025-0.459,1.025-1.025c0-0.566-0.459-1.025-1.025-1.025h-5.599
		c-0.566,0-1.025,0.459-1.025,1.025c0,0.566,0.459,1.025,1.025,1.025H465.831z"/>
	<path fill="#18A489" d="M462.167,374.802c0.405,0.546,1.017,1.371,2.243,1.371c1.226,0,1.838-0.825,2.244-1.371
		c0.355-0.479,0.441-0.543,0.597-0.543c0.155,0,0.242,0.064,0.597,0.543c0.405,0.546,1.017,1.371,2.244,1.371
		c0.566,0,1.025-0.459,1.025-1.025s-0.459-1.025-1.025-1.025c-0.155,0-0.241-0.064-0.596-0.543
		c-0.405-0.546-1.018-1.371-2.244-1.371c-1.226,0-1.838,0.825-2.244,1.371c-0.355,0.479-0.442,0.543-0.597,0.543
		c-0.155,0-0.241-0.064-0.596-0.543c-0.405-0.546-1.017-1.371-2.243-1.371c-0.566,0-1.025,0.459-1.025,1.025
		c0,0.566,0.459,1.025,1.025,1.025C461.725,374.26,461.812,374.324,462.167,374.802z"/>
	<path fill="#18A489" d="M459.896,378.835c0,0.566,0.459,1.025,1.025,1.025h10.012c0.566,0,1.025-0.459,1.025-1.025
		c0-0.566-0.459-1.025-1.025-1.025h-10.012C460.355,377.81,459.896,378.269,459.896,378.835z"/>
	<path fill="#FFFFFF" d="M506.974,370.954c0.566,0,1.025-0.459,1.025-1.025v-4.023c0-1.145-0.932-2.077-2.077-2.077h-6.377v-36.512
		c0-1.277-1.039-2.316-2.316-2.316h-22.18c-0.566,0-1.025,0.459-1.025,1.025c0,0.566,0.459,1.025,1.025,1.025h22.18
		c0.146,0,0.266,0.119,0.266,0.266v36.512h-12.351c-1.145,0-2.077,0.932-2.077,2.077v12.567c0,1.145,0.932,2.077,2.077,2.077h12.351
		v3.886c0,0.146-0.119,0.266-0.266,0.266h-42.991c-0.146,0-0.266-0.119-0.266-0.266v-15.158h15.754c1.23,0,2.231-1.001,2.231-2.231
		v-16.995c0-1.23-1.001-2.231-2.231-2.231h-15.754v-20.504c0-0.146,0.119-0.266,0.266-0.266h16.711c0.566,0,1.025-0.459,1.025-1.025
		S471.516,325,470.95,325h-16.711c-1.277,0-2.316,1.039-2.316,2.316v20.504h-11.691c-1.23,0-2.231,1.001-2.231,2.231v16.995
		c0,1.23,1.001,2.231,2.231,2.231h2.298c0.566,0,1.025-0.459,1.025-1.025c0-0.566-0.459-1.025-1.025-1.025h-2.298
		c-0.1,0-0.181-0.081-0.181-0.18v-16.995c0-0.03,0.009-0.057,0.023-0.083l13.374,8.8c0.465,0.306,0.999,0.459,1.532,0.459
		c0.533,0,1.067-0.153,1.532-0.459l13.374-8.8c0.013,0.025,0.023,0.052,0.023,0.083v16.995c0,0.1-0.081,0.18-0.18,0.18H446.63
		c-0.566,0-1.025,0.459-1.025,1.025c0,0.566,0.459,1.025,1.025,1.025h5.293v15.158c0,1.277,1.039,2.316,2.316,2.316h42.99
		c1.277,0,2.316-1.039,2.316-2.316v-3.886h6.377c1.145,0,2.077-0.932,2.077-2.077v-4.444c0-0.566-0.459-1.025-1.025-1.025
		c-0.566,0-1.025,0.459-1.025,1.025v4.444c0,0.014-0.012,0.026-0.026,0.026h-20.778c-0.014,0-0.026-0.012-0.026-0.026v-12.567
		c0-0.014,0.012-0.026,0.026-0.026h20.778c0.014,0,0.026,0.012,0.026,0.026v4.023C505.949,370.495,506.408,370.954,506.974,370.954
		L506.974,370.954z M455.384,357.056c-0.246,0.162-0.564,0.162-0.81,0l-10.919-7.184h22.648L455.384,357.056z"/>
	<path fill="#FFFFFF" d="M493.625,388.916h-1.711c-0.081-0.485-0.502-0.856-1.01-0.856c-0.508,0-0.929,0.37-1.01,0.856h-32.351
		c-1.333,0-2.615,0.404-3.707,1.169l-1.475,1.033c-0.274,0.192-0.437,0.505-0.437,0.84s0.163,0.648,0.437,0.84l1.475,1.033
		c1.092,0.765,2.374,1.169,3.707,1.169h36.083c1.677,0,3.042-1.364,3.042-3.042C496.666,390.281,495.302,388.916,493.625,388.916
		L493.625,388.916z M493.625,392.949h-36.082c-0.91,0-1.785-0.276-2.531-0.798l-0.276-0.193l0.276-0.193
		c0.746-0.522,1.621-0.798,2.531-0.798h36.083c0.546,0,0.991,0.444,0.991,0.991C494.616,392.504,494.171,392.949,493.625,392.949z"
		/>
</g>
</svg>
