<?xml version="1.0" encoding="utf-8"?>
<!-- Generator: Adobe Illustrator 17.0.0, SVG Export Plug-In . SVG Version: 6.00 Build 0)  -->
<!DOCTYPE svg PUBLIC "-//W3C//DTD SVG 1.1//EN" "http://www.w3.org/Graphics/SVG/1.1/DTD/svg11.dtd">
<svg version="1.1" id="Capa_1" xmlns="http://www.w3.org/2000/svg" xmlns:xlink="http://www.w3.org/1999/xlink" x="0px" y="0px"
	 width="670px" height="720px" viewBox="0 0 670 720" enable-background="new 0 0 670 720" xml:space="preserve">
<g>
	<g>
		<path fill="#18A489" d="M400.43,133.613c-7.223,0-13.086,5.863-13.086,13.086s5.863,13.086,13.086,13.086
			s13.086-5.863,13.086-13.086S407.653,133.613,400.43,133.613z"/>
	</g>
</g>
<g>
	<g>
		<path fill="#18A489" d="M269.57,133.613c-7.223,0-13.086,5.863-13.086,13.086s5.862,13.086,13.086,13.086
			s13.086-5.863,13.086-13.086S276.794,133.613,269.57,133.613z"/>
	</g>
</g>
<g>
	<g>
		<path fill="#18A489" d="M619.126,416.115c11.232-16.857,16.851-37.89,16.851-56.115c0-27.475-12.205-53.002-33.149-70.312
			c4.635-11.076,6.977-22.595,6.977-34.375c0-36.451-21.273-70.406-52.9-86.262c4.799-39.8-21.135-76.281-59.567-85.586
			C482.295,48.691,448.815,25,413.516,25c-32.859,0-62.33,19.166-78.516,47.13C318.813,44.166,289.342,25,256.484,25
			c-35.302,0-68.782,23.691-83.822,58.465C134,92.83,108.31,129.493,113.095,169.05c-31.626,15.855-52.9,49.812-52.9,86.262
			c0,11.78,2.342,23.299,6.977,34.375C46.229,306.999,34.023,332.525,34.023,360c0,18.32,5.666,39.326,16.851,56.114
			c-10.929,15.428-16.851,33.713-16.851,52.499c0,24.361,9.877,47.567,27.348,64.799c-8.982,54.296,34.319,109.244,90.425,109.244
			c0.406,0,0.805-0.007,1.196-0.018C171.595,674.727,206.123,695,243.398,695c38.85,0,73.564-23.319,91.602-56.916
			C353.038,671.681,387.752,695,426.602,695c37.275,0,71.804-20.273,90.406-52.362c0.393,0.012,0.79,0.018,1.196,0.018
			c49.653,0,91.602-43.746,91.602-95.527c0-4.409-0.387-8.943-1.176-13.717c17.471-17.232,27.348-40.437,27.348-64.799
			C635.977,449.827,630.055,431.542,619.126,416.115z M321.914,223.096c-7.705-4.469-16.641-7.042-26.172-7.042
			c-7.227,0-13.086,5.859-13.086,13.086s5.859,13.086,13.086,13.086c14.431,0,26.172,11.741,26.172,26.172v248.854
			c-19.198-21.776-47.27-35.553-78.516-35.553c-7.227,0-13.086,5.859-13.086,13.086s5.859,13.086,13.086,13.086
			c43.294,0,78.516,35.222,78.516,78.516c0,44.687-35.956,82.441-78.516,82.441c-30.297,0-58.187-17.916-71.055-45.644
			c-2.372-5.11-7.746-8.124-13.348-7.493c-0.925,0.106-1.845,0.229-2.765,0.355c-37.243,5.093-79.183-37.079-67.83-84.256
			c1.166-4.846-0.522-9.931-4.352-13.119c-15.159-12.613-23.853-30.859-23.853-50.058c0-11.87,3.357-23.487,9.602-33.673
			c15.695,12.863,35.218,20.587,55.827,20.587c7.227,0,13.086-5.859,13.086-13.086s-5.859-13.086-13.086-13.086
			c-35.514,0-65.43-32.414-65.43-69.355c0-22.41,11.423-43.025,30.558-55.147c5.895-3.735,7.823-11.438,4.38-17.509
			c-5.817-10.258-8.766-21.036-8.766-32.032c0-35.319,28.792-69.355,65.43-69.355c34.856,0,65.43,32.41,65.43,69.355
			c0,7.227,5.859,13.086,13.086,13.086s13.086-5.859,13.086-13.086c0-51.781-41.948-95.527-91.602-95.527
			c-4.381,0-8.739,0.355-13.053,1.026c-0.007-0.344-0.033-0.679-0.033-1.026c0-29.204,23.708-52.344,52.344-52.344
			c13.978,0,27.127,5.445,37.023,15.33c5.113,5.107,13.397,5.102,18.506-0.009c5.107-5.114,5.104-13.399-0.009-18.506
			c-11.938-11.925-27.038-19.531-43.402-22.051c11.541-17.131,30.731-31.033,53.312-31.033c34.856,0,65.43,32.409,65.43,69.355
			V223.096z M544.375,455.527c20.61,0,40.133-7.725,55.829-20.583c6.245,10.185,9.601,21.8,9.601,33.669
			c0,19.198-8.694,37.444-23.852,50.058c-3.832,3.188-5.518,8.274-4.352,13.119c1.387,5.762,2.032,10.636,2.032,15.338
			c0,40.619-36.739,73.446-69.862,68.918c-0.92-0.126-1.841-0.25-2.766-0.355c-5.61-0.635-10.976,2.383-13.346,7.493
			c-12.869,27.728-40.761,45.644-71.057,45.644c-42.559,0-78.516-37.754-78.516-82.441c0-43.294,35.222-78.516,78.516-78.516
			c7.226,0,13.086-5.859,13.086-13.086s-5.86-13.086-13.086-13.086c-31.245,0-59.317,13.777-78.516,35.553V268.398
			c0-14.431,11.741-26.172,26.172-26.172c7.226,0,13.086-5.859,13.086-13.086s-5.86-13.086-13.086-13.086
			c-9.53,0-18.467,2.573-26.172,7.042V120.527c0-36.947,30.574-69.355,65.43-69.355c22.581,0,41.77,13.903,53.311,31.032
			c-16.363,2.52-31.461,10.126-43.401,22.051c-5.114,5.107-5.119,13.392-0.012,18.506c5.107,5.114,13.395,5.118,18.506,0.01
			c9.9-9.885,23.047-15.33,37.025-15.33c28.78,0,52.344,23.276,52.344,52.344c0,0.345-0.026,0.682-0.033,1.026
			c-4.314-0.671-8.672-1.026-13.053-1.026c-49.653,0-91.602,43.746-91.602,95.527c0,7.227,5.86,13.086,13.086,13.086
			s13.086-5.859,13.086-13.086c0-36.946,30.574-69.355,65.43-69.355c36.617,0,65.43,34.02,65.43,69.355
			c0,10.996-2.95,21.774-8.766,32.032c-3.442,6.071-1.514,13.774,4.381,17.509c19.134,12.122,30.557,32.737,30.557,55.147
			c0,37.074-30.02,69.355-65.43,69.355c-7.226,0-13.086,5.859-13.086,13.086S537.149,455.527,544.375,455.527z"/>
	</g>
</g>
<g>
	<g>
		<path fill="#18A489" d="M292.409,305.108c-4.818-5.386-13.09-5.847-18.477-1.029c-41.964,37.537-109.049,7.537-109.049-48.767
			c0-7.227-5.859-13.086-13.086-13.086s-13.086,5.859-13.086,13.086c0,45.428,33.247,83.22,76.684,90.368
			c-5.038,15.871-19.909,27.406-37.426,27.406c-7.227,0-13.086,5.859-13.086,13.086s5.859,13.086,13.086,13.086
			c31.873,0,58.481-22.913,64.255-53.132c18.199-2.38,35.327-10.168,49.157-22.541C296.767,318.768,297.227,310.495,292.409,305.108
			z"/>
	</g>
</g>
<g>
	<g>
		<path fill="#18A489" d="M151.797,534.043c-7.227,0-13.086,5.859-13.086,13.086s5.859,13.086,13.086,13.086
			c34.856,0,65.43,32.41,65.43,69.355c0,7.227,5.859,13.086,13.086,13.086s13.086-5.859,13.086-13.086
			C243.398,577.789,201.45,534.043,151.797,534.043z"/>
	</g>
</g>
<g>
	<g>
		<path fill="#18A489" d="M256.484,429.355c-44.343,0-82.415,24.32-102.463,59.682c-3.563,6.288-1.356,14.274,4.931,17.837
			c6.288,3.563,14.273,1.357,17.837-4.931c15.618-27.554,45.252-46.417,79.695-46.417c7.227,0,13.086-5.859,13.086-13.086
			S263.712,429.355,256.484,429.355z"/>
	</g>
</g>
<g>
	<g>
		<path fill="#18A489" d="M492.031,373.086c-17.517,0-32.388-11.535-37.426-27.406c43.436-7.148,76.684-44.94,76.684-90.368
			c0-7.227-5.86-13.086-13.086-13.086c-7.226,0-13.086,5.859-13.086,13.086c0,36.078-29.352,65.43-65.43,65.43
			c-16.117,0-31.606-5.917-43.619-16.662c-5.385-4.818-13.659-4.359-18.477,1.029c-4.82,5.386-4.358,13.659,1.029,18.477
			c13.831,12.373,30.96,20.16,49.157,22.541c5.773,30.218,32.381,53.132,64.255,53.132c7.226,0,13.086-5.859,13.086-13.086
			S499.257,373.086,492.031,373.086z"/>
	</g>
</g>
<g>
	<g>
		<path fill="#18A489" d="M518.203,534.043c-49.653,0-91.602,43.746-91.602,95.527c0,7.227,5.86,13.086,13.086,13.086
			s13.086-5.859,13.086-13.086c0-36.946,30.574-69.355,65.43-69.355c7.226,0,13.086-5.859,13.086-13.086
			S525.429,534.043,518.203,534.043z"/>
	</g>
</g>
<g>
	<g>
		<path fill="#18A489" d="M515.979,489.039c-19.998-35.278-58.018-59.684-102.463-59.684c-7.226,0-13.086,5.859-13.086,13.086
			s5.86,13.086,13.086,13.086c34.417,0,64.074,18.858,79.692,46.417c3.569,6.296,11.56,8.491,17.837,4.932
			C517.333,503.313,519.541,495.327,515.979,489.039z"/>
	</g>
</g>
</svg>
