<?xml version="1.0" encoding="utf-8"?>
<!-- Generator: Adobe Illustrator 17.0.0, SVG Export Plug-In . SVG Version: 6.00 Build 0)  -->
<!DOCTYPE svg PUBLIC "-//W3C//DTD SVG 1.1//EN" "http://www.w3.org/Graphics/SVG/1.1/DTD/svg11.dtd">
<svg version="1.1" id="Capa_1" xmlns="http://www.w3.org/2000/svg" xmlns:xlink="http://www.w3.org/1999/xlink" x="0px" y="0px"
	 width="80px" height="80px" viewBox="574 454 80 80" enable-background="new 574 454 80 80" xml:space="preserve">
<g>
	<g>
		<path fill="#FFFFFF" d="M627.859,492.199c-0.259-11.324-3.033-24.198-13.184-32.949c-0.388-0.334-0.962-0.334-1.35,0
			c-10.157,8.753-12.932,21.629-13.19,32.955c-9.902,9.131-10.685,18.96-10.685,21.779c0,0.571,0.463,1.033,1.034,1.034h11.442v4.98
			l-2.398,4.004c-0.293,0.49-0.134,1.125,0.357,1.419c0.16,0.096,0.343,0.146,0.53,0.147h5.216c0.511,2.028,2.34,3.445,4.43,3.433
			h7.88c2.091,0.011,3.92-1.406,4.43-3.433h5.216c0.571-0.001,1.034-0.465,1.033-1.036c0-0.187-0.051-0.37-0.147-0.53l-2.398-4.004
			v-4.98h11.442c0.571,0,1.033-0.463,1.034-1.034C638.55,511.165,637.767,501.336,627.859,492.199z M603.994,519.254v-4.237h7.751
			c0.421,0.744,0.919,1.441,1.487,2.079c0.38,0.426,1.034,0.463,1.46,0.082c0.029-0.026,0.056-0.053,0.082-0.082
			c0.567-0.639,1.064-1.337,1.484-2.082h7.749v4.235L603.994,519.254z M615.772,509.063c0.001,2.03-0.617,4.012-1.772,5.681
			c-1.155-1.669-1.773-3.651-1.772-5.681v-14.03h3.544V509.063z M614,461.415c15.339,14.009,11.889,38.815,10.404,49.494
			c-0.104,0.748-0.199,1.431-0.278,2.041h-6.942c0.431-1.251,0.652-2.564,0.656-3.887V494c0-0.571-0.463-1.033-1.034-1.034h-5.612
			c-0.571,0-1.033,0.463-1.034,1.034v15.063c0.003,1.323,0.225,2.637,0.656,3.888h-6.943c-0.079-0.605-0.174-1.282-0.276-2.023
			C602.107,500.246,598.648,475.432,614,461.415z M600.122,495.096c0.129,5.397,0.606,10.781,1.427,16.117
			c0.088,0.63,0.168,1.207,0.236,1.737h-10.232C591.754,509.672,593.06,502.329,600.122,495.096z M617.94,526.932h-7.88
			c-0.936-0.007-1.791-0.533-2.219-1.366h12.319C619.731,526.399,618.876,526.925,617.94,526.932z M602.238,523.499l1.305-2.179
			h20.913l1.305,2.179H602.238z M626.212,512.95c0.071-0.536,0.152-1.119,0.24-1.756c0.818-5.331,1.293-10.71,1.421-16.102
			c7.066,7.237,8.373,14.581,8.574,17.859H626.212z"/>
		<path fill="#18A489" d="M622.483,506.349c0.039,0.005,0.079,0.007,0.118,0.007c0.526,0,0.968-0.394,1.027-0.917
			c0.354-3.081,0.567-5.886,0.656-8.576c0.019-0.571-0.429-1.049-0.999-1.068c-0.571-0.019-1.049,0.429-1.068,0.999l0,0
			c-0.087,2.634-0.295,5.385-0.643,8.41C621.509,505.772,621.915,506.284,622.483,506.349
			C622.483,506.349,622.483,506.349,622.483,506.349z"/>
		<path fill="#18A489" d="M614,486.97c3.458,0,6.262-2.803,6.262-6.262s-2.803-6.262-6.262-6.262s-6.262,2.803-6.262,6.262l0,0
			C607.741,484.166,610.543,486.968,614,486.97z M614,476.515c2.316,0,4.194,1.878,4.194,4.194c0,2.316-1.878,4.194-4.194,4.194
			s-4.194-1.878-4.194-4.194l0,0C609.806,478.392,611.684,476.515,614,476.515z"/>
	</g>
	<g>
		<path fill="#18A489" d="M591.553,512.937c0.198-3.239,1.476-10.449,8.323-17.599c0.081-0.085,0.163-0.17,0.246-0.255l0,0
			c0.013-0.017,0.002,0.007,0.013-0.017l0-2.874c-0.107,0.098-0.212,0.197-0.317,0.295c-9.602,9.046-10.369,18.695-10.369,21.483
			c0,0.571,0.463,1.033,1.034,1.034h9.789h1.653l-0.141-2.068H591.553z"/>
	</g>
</g>
</svg>
