<?xml version="1.0" encoding="utf-8"?>
<!-- Generator: Adobe Illustrator 17.0.0, SVG Export Plug-In . SVG Version: 6.00 Build 0)  -->
<!DOCTYPE svg PUBLIC "-//W3C//DTD SVG 1.1//EN" "http://www.w3.org/Graphics/SVG/1.1/DTD/svg11.dtd">
<svg version="1.1" id="Capa_1" xmlns="http://www.w3.org/2000/svg" xmlns:xlink="http://www.w3.org/1999/xlink" x="0px" y="0px"
	 width="80px" height="80px" viewBox="295 454 80 80" enable-background="new 295 454 80 80" xml:space="preserve">
<g>
	<path fill="#FFFFFF" d="M368.516,466.111h-7.117c-0.344,0.326-0.322,1.823,0.004,2.267l4.744,0.015c0.762,0,1.379,0.61,1.379,1.363
		v7.276h-65.051v-7.276c0-0.753,0.617-1.363,1.379-1.363h54.497c0.445-0.637,0.445-1.675,0-2.282h-56.866
		c-0.82,0-1.484,0.664-1.484,1.484v15.879c0.358,0.31,2.101,0.33,2.474,0.043v-4.47h65.051v39.196c0,0.753-0.617,1.363-1.379,1.363
		h-62.293c-0.762,0-1.379-0.61-1.379-1.363V485.78c-0.422-0.376-1.958-0.361-2.474-0.015v34.64c0,0.82,0.664,1.484,1.484,1.484
		h67.032c0.82,0,1.484-0.664,1.484-1.484v-52.809C370,466.776,369.336,466.111,368.516,466.111z"/>
	<path fill="#18A489" d="M362.144,485.271c0,0.753-0.61,1.363-1.363,1.363h-12.329c-0.753,0-1.363-0.61-1.363-1.363l0,0
		c0-0.753,0.61-1.363,1.363-1.363h12.329C361.533,483.908,362.144,484.518,362.144,485.271L362.144,485.271z"/>
	<path fill="#18A489" d="M362.144,489.657c0,0.753-0.61,1.363-1.363,1.363h-12.329c-0.753,0-1.363-0.61-1.363-1.363l0,0
		c0-0.753,0.61-1.363,1.363-1.363h12.329C361.533,488.294,362.144,488.904,362.144,489.657L362.144,489.657z"/>
	<path fill="#18A489" d="M315.951,514.196c0,0.753-0.381,1.363-0.852,1.363h-7.701c-0.47,0-0.852-0.61-0.852-1.363l0,0
		c0-0.753,0.381-1.363,0.852-1.363h7.701C315.569,512.833,315.951,513.443,315.951,514.196L315.951,514.196z"/>
	<circle fill="none" cx="329.287" cy="496.357" r="7.325"/>
	<path fill="none" d="M346.083,511.206c-0.013-0.013-0.026-0.026-0.039-0.039l-6.374-6.374c-0.622,0.771-1.328,1.471-2.104,2.087
		l6.282,6.282c0.072,0.076,0.146,0.15,0.222,0.222c0.486,0.458,1.052,0.82,1.604,0.991c0.51,0.158,0.924,0.125,1.201-0.057
		c0.092-0.06,0.168-0.137,0.228-0.228c0.181-0.276,0.214-0.686,0.058-1.193C346.98,512.311,346.582,511.71,346.083,511.206z"/>
	<path fill="#18A489" d="M306.981,474.635c1.079,0,1.954-0.875,1.954-1.954c0-1.079-0.875-1.954-1.954-1.954
		c-1.079,0-1.954,0.875-1.954,1.954C305.027,473.76,305.902,474.635,306.981,474.635z M306.981,471.144
		c0.849,0,1.537,0.688,1.537,1.537s-0.688,1.537-1.537,1.537s-1.537-0.688-1.537-1.537S306.133,471.144,306.981,471.144z"/>
	<path fill="#18A489" d="M312.843,474.635c1.079,0,1.954-0.875,1.954-1.954c0-1.079-0.875-1.954-1.954-1.954
		c-1.079,0-1.954,0.875-1.954,1.954C310.889,473.76,311.764,474.635,312.843,474.635z M312.843,471.144
		c0.849,0,1.537,0.688,1.537,1.537s-0.688,1.537-1.537,1.537c-0.849,0-1.537-0.688-1.537-1.537S311.994,471.144,312.843,471.144z"/>
	<path fill="#18A489" d="M318.678,474.635c1.079,0,1.954-0.875,1.954-1.954c0-1.079-0.875-1.954-1.954-1.954
		s-1.954,0.875-1.954,1.954C316.723,473.76,317.598,474.635,318.678,474.635z M318.678,471.144c0.849,0,1.537,0.688,1.537,1.537
		s-0.688,1.537-1.537,1.537s-1.537-0.688-1.537-1.537S317.829,471.144,318.678,471.144z"/>
	<g>
		<path fill="#FFFFFF" d="M329.287,505.672c5.144,0,9.315-4.17,9.315-9.315c0-5.144-4.17-9.315-9.315-9.315
			c-5.144,0-9.315,4.17-9.315,9.315C319.972,501.502,324.142,505.672,329.287,505.672z M329.287,489.032
			c4.046,0,7.325,3.28,7.325,7.325s-3.28,7.325-7.325,7.325c-4.046,0-7.325-3.28-7.325-7.325S325.241,489.032,329.287,489.032z"/>
		<path fill="#FFFFFF" d="M348.383,510.959c-0.015-0.015-0.03-0.03-0.045-0.045l-7.62-7.62c1.209-2.007,1.905-4.358,1.905-6.871
			c0-7.365-5.971-13.336-13.336-13.336s-13.336,5.971-13.336,13.336c0,2.65,0.773,5.119,2.106,7.195
			c0.923,0.182,1.456-0.225,1.677-0.794c-1.229-1.83-1.946-4.032-1.946-6.401c0-6.351,5.148-11.499,11.499-11.499
			c6.351,0,11.499,5.148,11.499,11.499c0,6.351-5.148,11.499-11.499,11.499c-3.39,0-6.436-1.468-8.541-3.801
			c-0.893-0.164-1.448,0.095-1.682,0.866c2.446,2.917,6.118,4.773,10.223,4.773c2.512,0,4.861-0.695,6.867-1.902l7.505,7.505
			c0.08,0.09,0.165,0.175,0.255,0.255c0.573,0.512,1.329,0.824,2.159,0.824c0.768,0,1.473-0.267,2.028-0.713
			c0.183-0.147,0.35-0.314,0.498-0.498c0.444-0.552,0.71-1.252,0.71-2.015C349.307,512.337,348.955,511.541,348.383,510.959z
			 M347.102,514.088c-0.06,0.092-0.137,0.168-0.228,0.228c-0.277,0.182-0.691,0.215-1.201,0.057
			c-0.551-0.17-1.118-0.533-1.604-0.991c-0.076-0.072-0.15-0.146-0.222-0.222l-6.282-6.282c0.776-0.616,1.482-1.316,2.104-2.087
			l6.374,6.374c0.013,0.013,0.026,0.026,0.039,0.039c0.499,0.504,0.897,1.105,1.077,1.689
			C347.317,513.401,347.284,513.812,347.102,514.088z"/>
	</g>
</g>
</svg>
