<?xml version="1.0" encoding="utf-8"?>
<!-- Generator: Adobe Illustrator 17.0.0, SVG Export Plug-In . SVG Version: 6.00 Build 0)  -->
<!DOCTYPE svg PUBLIC "-//W3C//DTD SVG 1.1//EN" "http://www.w3.org/Graphics/SVG/1.1/DTD/svg11.dtd">
<svg version="1.1" id="Layer_1" xmlns="http://www.w3.org/2000/svg" xmlns:xlink="http://www.w3.org/1999/xlink" x="0px" y="0px"
	 width="670px" height="720px" viewBox="0 0 670 720" enable-background="new 0 0 670 720" xml:space="preserve">
<rect fill="none" width="670" height="720"/>
<g>
	<line fill="none" x1="313.715" y1="407.892" x2="285.49" y2="686.436"/>
	<polygon fill="#45C4ED" points="323.972,371.041 353.371,407.892 381.596,686.436 335.788,684.171 	"/>
	<g opacity="0.69">
		<polygon fill="#FFFFFF" points="323.89,396.725 313.008,423.726 293.526,766.761 333.046,766.761 372.565,766.761 
			353.083,423.726 342.201,396.725 333.046,397.615 		"/>
	</g>
	<g opacity="0.69">
		<polygon fill="#FFFFFF" points="329.072,387.556 324.349,414.558 315.894,757.592 333.046,757.592 350.197,757.592 
			341.742,414.558 337.019,387.556 333.046,388.447 		"/>
	</g>
</g>
<g>
	<g>
		<path fill="#77C8F0" d="M365.152,245.406c-2.322-5.902-6.329-14.479-12.24-20.736c0,0-4.575-4.993-11.114-5.687
			c-1.381-0.136-5.657-0.162-5.657-0.162c-2.743-0.124-5.428,0.989-7.341,2.949l-3.178,3.294l-3.607,1.497
			c-1.182,0.506-2.078,1.616-2.191,2.933l-0.73,6.241c-0.395,3.503,1.768,6.848,5.195,7.858c0,0,2.789,0.997,6.367,1.777
			c1.059,0.234,1.869,1.167,1.909,2.254c0.358,7.32,1.99,14.428,3.984,20.618c10.982-5.532,22.604-10.101,32.33-17.517
			C367.26,249.269,365.969,247.463,365.152,245.406z"/>
		<path fill="#3F4499" d="M345.283,209.224l-3.623,10.138c-0.498,1.393-0.041,2.914,1.131,3.833l5.526,4.332
			c1.57,1.205,3.91,0.254,4.187-1.719c1.197-9.146-2.962-14.705-5.233-16.946C346.667,208.147,345.577,208.401,345.283,209.224z"/>
		<path fill="#4E4251" d="M332.333,230.462c-1.267-0.453-1.918-1.829-1.465-3.096c0.453-1.266,1.829-1.918,3.096-1.465
			c1.268,0.453,1.919,1.829,1.466,3.096C334.977,230.264,333.601,230.915,332.333,230.462z"/>
		<path fill="#3F4499" d="M323.558,229.826c0.453-1.267-0.176-2.706-1.374-3.349l-0.172,0.082c-1.182,0.506-2.078,1.616-2.191,2.933
			l-0.186,1.719c0.126,0.045,0.231,0.155,0.421,0.222C321.511,231.953,323.059,231.221,323.558,229.826z"/>
	</g>
	<g>
		<g>
			<g>
				<g>
					<polygon fill="#465B65" points="362.331,335.855 308.261,335.855 306.643,341.694 363.791,341.694 					"/>
					<polygon fill="#556F7A" points="306.643,341.694 302.374,357.106 367.644,357.106 363.791,341.694 					"/>
				</g>
				<path fill="#465B65" d="M371.606,361.957h-73.195c-1.334,0-2.425-1.091-2.425-2.425l0,0c0-1.334,1.091-2.425,2.425-2.425h73.195
					c1.334,0,2.425,1.091,2.425,2.425l0,0C374.032,360.865,372.94,361.957,371.606,361.957z"/>
			</g>
			<g>
				<path fill="#F1592B" d="M301.002,361.957c-7.499,19.872-0.481,43.275,3.963,49.183l4.216-6.135
					c0,12.27,14.847,33.4,25.828,44.079v-87.127L301.002,361.957L301.002,361.957z"/>
				<path fill="#F05423" d="M369.015,361.957c7.499,19.872,0.481,43.275-3.962,49.183l-4.216-6.135
					c0,12.27-14.847,33.4-25.828,44.079v-87.127L369.015,361.957L369.015,361.957z"/>
			</g>
			<g>
				<path fill="#FFCA29" d="M313.418,361.957c-4.761,12.617-0.305,27.476,2.516,31.226l2.677-3.895
					c0,7.79,9.427,21.206,16.398,27.986v-55.318L313.418,361.957L313.418,361.957z"/>
				<path fill="#FDC010" d="M356.6,361.957c4.761,12.617,0.305,27.476-2.516,31.226l-2.677-3.895c0,7.79-9.427,21.206-16.398,27.986
					v-55.318L356.6,361.957L356.6,361.957z"/>
			</g>
		</g>
	</g>
	<path fill="#465B65" d="M367.681,156.419L353.06,134.81c-4.324-6.391-11.192-9.585-18.06-9.584v31.192L367.681,156.419
		L367.681,156.419z"/>
	<path fill="#556F7A" d="M335,125.226c-6.864,0.001-13.728,3.195-18.05,9.582l-14.626,21.611H335V125.226z"/>
	<path fill="#ECEEEF" d="M334.899,264.543c-17.296,0-31.318-14.022-31.318-31.318s14.022-31.318,31.318-31.318
		c0.034,0,0.067,0.003,0.101,0.003v-18.732V156.42h-32.676c-11.802,17.438-18.11,38.012-18.11,59.069v109.167
		c0,6.257,5.072,11.329,11.329,11.329H335v-71.444C334.966,264.541,334.933,264.543,334.899,264.543z"/>
	<path fill="#CFD8DB" d="M367.683,156.422l-0.003-0.004H335v26.758v18.733c17.232,0.076,31.178,14.065,31.178,31.315
		S352.232,264.463,335,264.54v71.444h39.457c6.257,0,11.329-5.072,11.329-11.329V215.481
		C385.786,194.428,379.481,173.859,367.683,156.422z"/>
	<g opacity="0.4">
		<g>
			<path fill="#34C1D6" d="M360.032,233.225c0-6.616-2.566-12.624-6.74-17.117c0.013,0.497,0.038,0.992,0.038,1.492
				c0,16.04-6.708,30.504-17.458,40.772C349.304,257.84,360.032,246.788,360.032,233.225z"/>
			<path fill="#5AC8DA" d="M353.33,217.6c0-0.501-0.025-0.995-0.038-1.492c-3.496-3.763-8.117-6.467-13.341-7.54
				c0.051,0.687,0.086,1.379,0.086,2.08c0,15.329-12.426,27.755-27.755,27.755c-0.7,0-1.392-0.035-2.08-0.086
				c2.355,11.462,12.499,20.081,24.657,20.081c0.339,0,0.676-0.012,1.012-0.026C346.622,248.104,353.33,233.64,353.33,217.6z"/>
		</g>
		<path fill="#89D3E1" d="M340.037,210.647c0-0.7-0.035-1.392-0.086-2.08c-1.645-0.338-3.348-0.516-5.092-0.516
			c-13.903,0-25.173,11.27-25.173,25.173c0,1.745,0.178,3.447,0.516,5.092c0.687,0.051,1.379,0.086,2.08,0.086
			C327.611,238.402,340.037,225.976,340.037,210.647z"/>
	</g>
	<path fill="#465B65" d="M334.859,201.907c-17.297,0-31.318,14.022-31.318,31.318s14.022,31.318,31.318,31.318
		c17.297,0,31.318-14.022,31.318-31.318S352.156,201.907,334.859,201.907z M335.872,258.372c-0.336,0.013-0.673,0.026-1.012,0.026
		c-12.158,0-22.303-8.62-24.657-20.081c-0.338-1.645-0.516-3.347-0.516-5.092c0-13.903,11.27-25.173,25.173-25.173
		c1.745,0,3.447,0.178,5.092,0.516c5.224,1.073,9.844,3.777,13.341,7.54c4.174,4.493,6.74,10.501,6.74,17.117
		C360.032,246.788,349.304,257.84,335.872,258.372z"/>
	<g>
		<polygon fill="#AFBDC4" points="385.786,268.24 385.786,318.134 395.956,318.134 395.956,273.579 		"/>
		<path fill="#CFD8DB" d="M433.306,302.301c0-5.604-3.108-10.745-8.069-13.35l-29.28-15.371v44.554h28.978
			c4.624,0,8.372-3.748,8.372-8.372v-7.461H433.306z"/>
	</g>
	<g>
		<polygon fill="#AFBDC4" points="284.214,268.24 284.214,318.134 274.044,318.134 274.044,273.579 		"/>
		<path fill="#CFD8DB" d="M236.694,302.301c0-5.604,3.108-10.745,8.069-13.35l29.28-15.371v44.554h-28.978
			c-4.624,0-8.372-3.748-8.372-8.372L236.694,302.301L236.694,302.301z"/>
	</g>
	<path opacity="0.15" fill="#8FA3AD" enable-background="new    " d="M338.404,295.126l40.067,40.067
		c-0.978,0.338-1.794,0.768-6.864,0.768s-33.93,0-33.93,0L338.404,295.126z"/>
	<path fill="#AFBDC4" d="M335.014,346.868L335.014,346.868c-3.054,0-5.554-2.499-5.554-5.554v-41.921
		c0-3.054,2.499-5.554,5.554-5.554l0,0c3.054,0,5.553,2.499,5.553,5.554v41.921C340.568,344.369,338.069,346.868,335.014,346.868z"
		/>
	<path fill="#FFFFFF" d="M334.859,343.557L334.859,343.557c-1.453,0-2.642-1.189-2.642-2.642v-21.344
		c0-1.453,1.189-2.642,2.642-2.642l0,0c1.453,0,2.642,1.189,2.642,2.642v21.344C337.501,342.368,336.312,343.557,334.859,343.557z"
		/>
</g>
<g>
	<g opacity="0.26">
		<path fill="#45C4ED" d="M196.761,588.518c7.911,0,14.324,6.381,14.324,14.252c0,0.829-0.071,1.643-0.208,2.433
			c3.259-1.56,6.914-2.433,10.772-2.433c4.775,0,9.236,1.34,13.024,3.659c4.091-9.684,13.714-16.485,24.936-16.485
			c13.263,0,24.295,9.502,26.595,22.036c2.477-1.33,5.31-2.084,8.32-2.084c9.691,0,17.548,7.816,17.548,17.458
			c0,1.275-0.138,2.518-0.399,3.716c0.426,0.234,0.845,0.48,1.254,0.741c4.649-4.728,11.131-7.664,18.304-7.664
			c4.976,0,9.619,1.413,13.549,3.857c3.683-7.555,11.465-12.764,20.472-12.764c12.426,0,22.522,9.916,22.735,22.228
			c2.918-1.012,6.053-1.564,9.317-1.564c5.461,0,10.559,1.54,14.883,4.207c5.493-10.341,16.412-17.39,28.986-17.39
			c13.36,0,24.85,7.956,29.952,19.364c3.747,0.806,7.126,2.593,9.855,5.076c4.889-3.968,11.131-6.349,17.932-6.349
			c9.684,0,18.234,4.826,23.357,12.191c5.875-9.409,16.356-15.674,28.308-15.674c10.772,0,20.348,5.09,26.436,12.983
			c4.643-4.087,10.747-6.569,17.433-6.569c9.867,0,18.463,5.402,22.97,13.395c4.349-6.364,11.685-10.545,20.003-10.545
			c13.35,0,29.081,11.023,29.081,24.305l-4.909,48.556H304.914h-24.709H39.171v-2.601c-18.758-2.293-27.269-6.366-33.283-23.995
			c-4.495-13.176,7.435-39.346,18.534-45.937c-0.643-2.316-0.988-4.754-0.988-7.274c0-15.053,12.265-27.257,27.396-27.257
			c7.785,0,14.812,3.231,19.8,8.419c5.105-10.466,15.888-17.682,28.367-17.682c4.237,0,8.277,0.834,11.968,2.343
			c2.304-11.1,12.184-19.445,24.023-19.445c11.783,0,21.624,8.267,23.988,19.288c4.179-3.16,9.391-5.037,15.045-5.037
			c2.968,0,5.814,0.517,8.454,1.466C183.004,594.35,189.198,588.518,196.761,588.518z"/>
	</g>
	<path fill="#45C4ED" d="M470.384,621.494c-7.654,0-13.858,6.205-13.858,13.858c0,0.807,0.069,1.597,0.201,2.366
		c-3.153-1.516-6.689-2.366-10.422-2.366c-4.62,0-8.935,1.303-12.601,3.558c-3.958-9.417-13.268-16.03-24.124-16.03
		c-12.832,0-23.504,9.24-25.73,21.428c-2.396-1.293-5.137-2.027-8.049-2.027c-9.376,0-16.977,7.601-16.977,16.977
		c0,1.24,0.134,2.449,0.386,3.613c-0.413,0.228-0.817,0.467-1.213,0.72c-4.497-4.598-10.769-7.452-17.709-7.452
		c-4.814,0-9.306,1.374-13.108,3.751c-3.563-7.347-11.092-12.411-19.806-12.411c-12.022,0-21.789,9.642-21.995,21.615
		c-2.823-0.984-5.856-1.521-9.013-1.521c-5.283,0-10.215,1.498-14.399,4.091c-5.315-10.056-15.878-16.91-28.043-16.91
		c-12.925,0-24.042,7.736-28.977,18.83c-3.625,0.784-6.894,2.521-9.534,4.936c-4.73-3.859-10.769-6.174-17.349-6.174
		c-9.369,0-17.641,4.693-22.597,11.855c-5.684-9.149-15.824-15.241-27.386-15.241c-10.422,0-19.686,4.95-25.576,12.624
		c-4.492-3.974-10.397-6.388-16.866-6.388c-9.546,0-17.863,5.253-22.223,13.025c-4.207-6.188-11.305-10.254-19.353-10.254
		c-12.915,0-23.386,10.47-23.386,23.386v47.464h345.074h23.905h233.19v-2.529c18.147-2.23,32.2-17.696,32.2-36.447
		c0-13.414-7.193-25.147-17.931-31.556c0.622-2.252,0.956-4.623,0.956-7.073c0-14.638-11.866-26.505-26.505-26.505
		c-7.532,0-14.33,3.142-19.155,8.187c-4.939-10.177-15.371-17.194-27.444-17.194c-4.099,0-8.008,0.811-11.578,2.278
		c-2.229-10.794-11.788-18.908-23.241-18.908c-11.4,0-20.921,8.039-23.208,18.756c-4.043-3.073-9.086-4.898-14.556-4.898
		c-2.871,0-5.625,0.503-8.179,1.426C483.694,627.166,477.702,621.494,470.384,621.494z"/>
	<path fill="#FFFFFF" d="M195.732,632.334c7.861,0,14.234,6.014,14.234,13.431c0,0.782-0.07,1.548-0.207,2.293
		c3.239-1.47,6.87-2.293,10.705-2.293c4.745,0,9.178,1.262,12.942,3.448c4.066-9.127,13.628-15.536,24.779-15.536
		c13.18,0,24.142,8.955,26.429,20.768c2.461-1.253,5.276-1.964,8.268-1.964c9.63,0,17.437,7.367,17.437,16.453
		c0,1.202-0.136,2.373-0.397,3.502c0.424,0.221,0.839,0.453,1.246,0.698c4.62-4.456,11.061-7.222,18.189-7.222
		c4.945,0,9.559,1.332,13.464,3.635c3.66-7.12,11.393-12.029,20.343-12.029c12.348,0,22.38,9.345,22.592,20.949
		c2.899-0.954,6.015-1.474,9.258-1.474c5.426,0,10.493,1.452,14.789,3.965c5.459-9.746,16.309-16.389,28.804-16.389
		c13.276,0,24.694,7.498,29.764,18.25c3.723,0.76,7.082,2.443,9.793,4.783c4.858-3.74,11.061-5.984,17.82-5.984
		c9.623,0,18.119,4.548,23.211,11.489c5.838-8.867,16.253-14.771,28.13-14.771c10.705,0,20.22,4.797,26.27,12.235
		c4.614-3.852,10.679-6.192,17.323-6.192c9.805,0,18.348,5.091,22.826,12.624c6.435-5.111,19.184-10.399,27.923-8.605
		c12.583,2.583,17.752,22.198,22.188,33.816l16.681,33.517H303.205h-24.554H39.132H3.036c1.517-7.833,3.045-16.392,6.067-33.667
		C11.344,709.255,18,692.859,18,692.859s4.806-9.839,5.494-12.339c3.764-13.678,12.188-25.688,27.224-25.688
		c7.737,0,14.719,3.045,19.675,7.934c5.073-9.863,15.788-16.664,28.189-16.664c4.21,0,8.225,0.786,11.893,2.207
		c2.289-10.461,12.108-18.325,23.872-18.325c11.709,0,21.489,7.791,23.838,18.178c4.152-2.979,9.332-4.747,14.951-4.747
		c2.949,0,5.778,0.488,8.4,1.382C182.061,637.831,188.216,632.334,195.732,632.334z"/>
</g>
</svg>
